<svg width="402" height="302" xmlns="http://www.w3.org/2000/svg" xmlns:xlink="http://www.w3.org/1999/xlink" xml:space="preserve" overflow="hidden"><defs><linearGradient x1="327.048" y1="85.8393" x2="352.331" y2="90.119" gradientUnits="userSpaceOnUse" spreadMethod="pad" id="fill0"><stop offset="0" stop-color="#47A2E9"/><stop offset="0.191" stop-color="#47A2E9"/><stop offset="0.6581" stop-color="#8ABCF7"/><stop offset="1" stop-color="#8ABCF7"/></linearGradient><linearGradient x1="336.317" y1="147.758" x2="336.319" y2="100.276" gradientUnits="userSpaceOnUse" spreadMethod="pad" id="fill1"><stop offset="0" stop-color="#49687E"/><stop offset="0.2435" stop-color="#49687E"/><stop offset="1" stop-color="#DFF1FD"/></linearGradient><linearGradient x1="329.067" y1="127.177" x2="329.068" y2="87.8464" gradientUnits="userSpaceOnUse" spreadMethod="pad" id="fill2"><stop offset="0" stop-color="#49687E"/><stop offset="0.2435" stop-color="#49687E"/><stop offset="1" stop-color="#DFF1FD"/></linearGradient><linearGradient x1="298.595" y1="160.983" x2="345.892" y2="160.983" gradientUnits="userSpaceOnUse" spreadMethod="pad" id="fill3"><stop offset="0" stop-color="#47A2E9"/><stop offset="0.191" stop-color="#47A2E9"/><stop offset="0.6581" stop-color="#8ABCF7"/><stop offset="1" stop-color="#8ABCF7"/></linearGradient><linearGradient x1="334.707" y1="250.622" x2="334.707" y2="166.28" gradientUnits="userSpaceOnUse" spreadMethod="pad" id="fill4"><stop offset="0" stop-color="#49687E"/><stop offset="0.2435" stop-color="#49687E"/><stop offset="1" stop-color="#DFF1FD"/></linearGradient><linearGradient x1="359.886" y1="244.905" x2="359.887" y2="164.132" gradientUnits="userSpaceOnUse" spreadMethod="pad" id="fill5"><stop offset="0" stop-color="#49687E"/><stop offset="0.2435" stop-color="#49687E"/><stop offset="1" stop-color="#DFF1FD"/></linearGradient><linearGradient x1="124.969" y1="232.389" x2="124.97" y2="150.272" gradientUnits="userSpaceOnUse" spreadMethod="pad" id="fill6"><stop offset="0" stop-color="#49687E"/><stop offset="0.2435" stop-color="#49687E"/><stop offset="1" stop-color="#DFF1FD"/></linearGradient><linearGradient x1="62.486" y1="185.655" x2="62.4867" y2="135.082" gradientUnits="userSpaceOnUse" spreadMethod="pad" id="fill7"><stop offset="0" stop-color="#49687E"/><stop offset="0.2435" stop-color="#49687E"/><stop offset="1" stop-color="#DFF1FD"/></linearGradient><linearGradient x1="68.7178" y1="167.6" x2="68.7204" y2="95.0744" gradientUnits="userSpaceOnUse" spreadMethod="pad" id="fill8"><stop offset="0" stop-color="#49687E"/><stop offset="0.2435" stop-color="#49687E"/><stop offset="1" stop-color="#DFF1FD"/></linearGradient><linearGradient x1="65.0411" y1="154.534" x2="125.014" y2="154.534" gradientUnits="userSpaceOnUse" spreadMethod="pad" id="fill9"><stop offset="0" stop-color="#47A2E9"/><stop offset="0.191" stop-color="#47A2E9"/><stop offset="0.6581" stop-color="#8ABCF7"/><stop offset="1" stop-color="#8ABCF7"/></linearGradient><linearGradient x1="110.877" y1="244.199" x2="110.875" y2="200.053" gradientUnits="userSpaceOnUse" spreadMethod="pad" id="fill10"><stop offset="0" stop-color="#49687E"/><stop offset="0.2435" stop-color="#49687E"/><stop offset="1" stop-color="#DFF1FD"/></linearGradient></defs><g transform="translate(-315 -215)"><path d="M192.885 115.618C193.314 114.403 193.552 113.097 193.552 111.736 193.552 105.462 188.565 100.347 182.345 100.137 180.93 94.383 175.742 90.1178 169.559 90.1178 169.212 90.1178 168.874 90.136 168.536 90.1634 167.403 89.2318 166.061 88.5469 164.599 88.1815 163.878 84.5556 161.321 81.5873 157.932 80.2813 158.078 79.2766 158.151 78.2537 158.151 77.2125 158.151 65.2479 148.452 55.5484 136.487 55.5484 124.897 55.5484 115.435 64.6451 114.851 76.0891 106.969 77.0207 100.858 83.7154 100.858 91.8348 100.858 92.191 100.877 92.5381 100.895 92.8851 96.5933 93.4332 93.2688 97.1047 93.2688 101.553 93.2688 104.941 95.1959 107.873 98.0089 109.325 97.8902 109.9 97.8262 110.494 97.8262 111.097 97.8262 112.704 98.2646 114.202 99.0227 115.499L98.84 115.499C95.5155 115.499 92.7938 118.221 92.7938 121.545L92.7938 121.545C92.7938 124.87 95.5155 127.591 98.84 127.591L191.734 127.591C195.059 127.591 197.781 124.87 197.781 121.545L197.781 121.545C197.781 118.623 195.662 116.157 192.885 115.618Z" fill="#DFF1FD" transform="matrix(1 0 0 1.00166 315 215.12)"/><path d="M234.779 98.5112C234.451 97.5888 234.268 96.5933 234.268 95.5521 234.268 90.7662 238.067 86.8755 242.807 86.7111 243.885 82.3271 247.84 79.0757 252.553 79.0757 252.817 79.0757 253.073 79.0848 253.329 79.1122 254.197 78.3998 255.21 77.8792 256.334 77.5961 256.891 74.8287 258.836 72.5728 261.412 71.5773 261.302 70.8101 261.247 70.0338 261.247 69.2392 261.247 60.1242 268.636 52.7263 277.76 52.7263 286.592 52.7263 293.808 59.6584 294.246 68.3806 300.246 69.0839 304.904 74.1894 304.904 80.3817 304.904 80.6557 304.895 80.9206 304.877 81.1855 308.156 81.6056 310.686 84.4004 310.686 87.7888 310.686 90.3735 309.215 92.602 307.069 93.7071 307.16 94.1455 307.206 94.5931 307.206 95.0589 307.206 96.2827 306.868 97.4244 306.293 98.4108L306.43 98.4108C308.969 98.4108 311.042 100.484 311.042 103.023L311.042 103.023C311.042 105.562 308.969 107.635 306.43 107.635L235.638 107.635C233.099 107.635 231.026 105.562 231.026 103.023L231.026 103.023C231.053 100.795 232.66 98.9222 234.779 98.5112Z" fill="#DFF1FD" transform="matrix(1 0 0 1.00166 315 215.12)"/><path d="M187.451 32.7336C187.213 32.076 187.085 31.3636 187.085 30.6147 187.085 27.1988 189.798 24.4132 193.196 24.2944 193.963 21.1617 196.794 18.8328 200.164 18.8328 200.356 18.8328 200.539 18.8419 200.721 18.8602 201.342 18.3578 202.073 17.9834 202.868 17.7824 203.26 15.8097 204.658 14.1931 206.503 13.4807 206.421 12.9327 206.384 12.3756 206.384 11.8093 206.384 5.28815 211.672 0.00913325 218.184 0.00913325 224.495 0.00913325 229.656 4.96849 229.975 11.1974 234.268 11.6997 237.602 15.353 237.602 19.7826 237.602 19.9744 237.592 20.1662 237.583 20.358 239.93 20.6594 241.739 22.6596 241.739 25.0799 241.739 26.9248 240.689 28.5231 239.154 29.3177 239.218 29.6283 239.255 29.9571 239.255 30.2859 239.255 31.1626 239.017 31.9755 238.606 32.6879L238.707 32.6879C240.515 32.6879 242.004 34.1675 242.004 35.985L242.004 35.985C242.004 37.7934 240.524 39.2821 238.707 39.2821L188.09 39.2821C186.282 39.2821 184.793 37.8025 184.793 35.985L184.793 35.985C184.784 34.3684 185.944 33.0258 187.451 32.7336Z" fill="#DFF1FD" transform="matrix(1 0 0 1.00166 315 215.12)"/><path d="M262.325 175.34C261.996 174.418 261.814 173.422 261.814 172.381 261.814 167.595 265.613 163.704 270.353 163.54 271.431 159.156 275.386 155.905 280.099 155.905 280.363 155.905 280.619 155.914 280.875 155.941 281.743 155.229 282.756 154.708 283.88 154.425 284.437 151.658 286.382 149.402 288.958 148.406 288.848 147.639 288.793 146.863 288.793 146.068 288.793 136.953 296.182 129.555 305.306 129.555 314.138 129.555 321.353 136.487 321.792 145.21 327.792 145.913 332.45 151.018 332.45 157.211 332.45 157.485 332.441 157.749 332.423 158.014 335.702 158.434 338.232 161.229 338.232 164.618 338.232 167.202 336.761 169.431 334.615 170.536 334.706 170.974 334.752 171.422 334.752 171.888 334.752 173.112 334.414 174.253 333.839 175.24L333.976 175.24C336.515 175.24 338.588 177.313 338.588 179.852L338.588 179.852C338.588 182.391 336.515 184.464 333.976 184.464L263.184 184.464C260.645 184.464 258.571 182.391 258.571 179.852L258.571 179.852C258.59 177.633 260.206 175.76 262.325 175.34Z" fill="#DFF1FD" transform="matrix(1 0 0 1.00166 315 215.12)"/><path d="M28.8611 206.996C28.5323 206.074 28.3496 205.078 28.3496 204.037 28.3496 199.251 32.149 195.36 36.8892 195.196 37.9669 190.812 41.9216 187.56 46.6344 187.56 46.8992 187.56 47.155 187.57 47.4107 187.597 48.2784 186.885 49.2922 186.364 50.4155 186.081 50.9727 183.313 52.918 181.058 55.4936 180.062 55.384 179.295 55.3292 178.519 55.3292 177.724 55.3292 168.609 62.718 161.211 71.8421 161.211 80.674 161.211 87.8893 168.143 88.3277 176.865 94.3282 177.569 98.9862 182.674 98.9862 188.866 98.9862 189.14 98.977 189.405 98.9588 189.67 102.238 190.09 104.768 192.885 104.768 196.274 104.768 198.858 103.297 201.087 101.151 202.192 101.242 202.63 101.288 203.078 101.288 203.544 101.288 204.767 100.95 205.909 100.374 206.896L100.511 206.896C103.05 206.896 105.124 208.969 105.124 211.508L105.124 211.508C105.124 214.047 103.05 216.12 100.511 216.12L29.7379 216.12C27.1988 216.12 25.1256 214.047 25.1256 211.508L25.1256 211.508C25.1256 209.288 26.7422 207.407 28.8611 206.996Z" fill="#DFF1FD" transform="matrix(1 0 0 1.00166 315 215.12)"/><path d="M401.991 268.91C401.991 286.772 312.002 301.251 200.995 301.251 89.9887 301.251 6.68939e-06 286.772 6.68939e-06 268.91 6.68939e-06 251.049 89.9887 236.569 200.995 236.569 312.002 236.569 401.991 251.049 401.991 268.91Z" fill="#C6E6FD" transform="matrix(1 0 0 1.00166 315 215.12)"/><path d="M333.099 111.298C333.099 111.298 327.025 89.241 328.149 79.5232 329.272 69.8054 334.606 72.9016 335.62 80.1534 336.633 87.4052 342.616 83.5966 338.204 73.0386 333.793 62.4806 344.314 55.2562 346.333 61.6494 348.351 68.0427 339.519 90.4831 342.826 91.6796 346.132 92.876 346.415 81.3225 349.977 81.7517 353.539 82.181 353.977 93.4697 347.301 101.534 340.625 109.599 340.597 115.526 337.857 116.796 335.108 118.066 333.099 111.298 333.099 111.298Z" fill="url(#fill0)" transform="matrix(1 0 0 1.00166 315 215.12)"/><path d="M336.104 109.179C336.104 109.179 335.117 99.9269 336.67 96.0544 338.232 92.191 340.277 84.5282 340.277 84.5282" stroke="#4089C1" stroke-width="1.68856" stroke-linecap="round" stroke-miterlimit="10" fill="none" transform="matrix(1 0 0 1.00166 315 215.12)"/><path d="M336.314 97.0316C336.314 97.0316 333.117 91.1498 333.546 88.6017" stroke="#4089C1" stroke-width="1.68856" stroke-linecap="round" stroke-miterlimit="10" fill="none" transform="matrix(1 0 0 1.00166 315 215.12)"/><path d="M335.72 100.548C335.848 100.968 347.538 94.7575 348.379 91.1133" stroke="#4089C1" stroke-width="1.68856" stroke-linecap="round" stroke-miterlimit="10" fill="none" transform="matrix(1 0 0 1.00166 315 215.12)"/><path d="M322.733 140.46C322.733 140.46 324.705 123.783 334.24 112.759 343.776 101.744 349.813 100.274 349.813 100.274 349.813 100.274 355.439 114.138 343.858 129.089 332.286 144.031 316.887 156.042 322.733 140.46Z" fill="url(#fill1)" transform="matrix(1 0 0 1.00166 315 215.12)"/><path d="M321.837 147.356C321.837 147.356 341.017 120.285 346.945 104.256" stroke="#B2C0CA" stroke-width="0.844278" stroke-linecap="round" stroke-miterlimit="10" fill="none" transform="matrix(1 0 0 1.00166 315 215.12)"/><path d="M323.655 144.735C323.655 144.735 330.678 141.849 331.774 140.734" stroke="#B2C0CA" stroke-width="0.844278" stroke-linecap="round" stroke-miterlimit="10" fill="none" transform="matrix(1 0 0 1.00166 315 215.12)"/><path d="M327.61 125.619C326.285 128.569 328.733 137.163 328.733 137.163 328.733 137.163 336.213 137.026 337.218 135.866" stroke="#B2C0CA" stroke-width="0.844278" stroke-linecap="round" stroke-miterlimit="10" fill="none" transform="matrix(1 0 0 1.00166 315 215.12)"/><path d="M333.61 129.519C333.61 129.519 338.789 129.181 341.52 128.276" stroke="#B2C0CA" stroke-width="0.844278" stroke-linecap="round" stroke-miterlimit="10" fill="none" transform="matrix(1 0 0 1.00166 315 215.12)"/><path d="M337.565 122.532C337.565 122.532 345.575 122.979 347.493 121.025" stroke="#B2C0CA" stroke-width="0.844278" stroke-linecap="round" stroke-miterlimit="10" fill="none" transform="matrix(1 0 0 1.00166 315 215.12)"/><path d="M335.583 126.03C335.583 126.03 332.761 117.125 334.341 114.75" stroke="#B2C0CA" stroke-width="0.844278" stroke-linecap="round" stroke-miterlimit="10" fill="none" transform="matrix(1 0 0 1.00166 315 215.12)"/><path d="M341.337 116.257C341.337 116.257 347.822 116.157 349.383 114.394" stroke="#B2C0CA" stroke-width="0.844278" stroke-linecap="round" stroke-miterlimit="10" fill="none" transform="matrix(1 0 0 1.00166 315 215.12)"/><path d="M343.209 112.659C343.209 112.659 341.456 108.85 342.086 107.809" stroke="#B2C0CA" stroke-width="0.844278" stroke-linecap="round" stroke-miterlimit="10" fill="none" transform="matrix(1 0 0 1.00166 315 215.12)"/><path d="M323.418 122.212C323.418 122.212 320.385 110.375 323.966 100.402 327.546 90.4283 331.263 87.8436 331.263 87.8436 331.263 87.8436 338.716 95.7713 334.77 108.951 330.825 122.13 323.527 134.304 323.418 122.212Z" fill="url(#fill2)" transform="matrix(1 0 0 1.00166 315 215.12)"/><path d="M324.614 127.117C324.614 127.117 330.532 103.726 330.359 91.296" stroke="#B2C0CA" stroke-width="0.844278" stroke-linecap="round" stroke-miterlimit="10" fill="none" transform="matrix(1 0 0 1.00166 315 215.12)"/><path d="M325.162 124.861C325.162 124.861 329.171 121.061 329.619 120.02" stroke="#B2C0CA" stroke-width="0.844278" stroke-linecap="round" stroke-miterlimit="10" fill="none" transform="matrix(1 0 0 1.00166 315 215.12)"/><path d="M322.833 110.859C322.714 113.207 326.623 118.394 326.623 118.394 326.623 118.394 331.665 116.348 332.039 115.289" stroke="#B2C0CA" stroke-width="0.844278" stroke-linecap="round" stroke-miterlimit="10" fill="none" transform="matrix(1 0 0 1.00166 315 215.12)"/><path d="M327.92 111.937C327.92 111.937 331.345 110.357 332.962 109.024" stroke="#B2C0CA" stroke-width="0.844278" stroke-linecap="round" stroke-miterlimit="10" fill="none" transform="matrix(1 0 0 1.00166 315 215.12)"/><path d="M328.779 106.156C328.779 106.156 334.332 104.357 335.117 102.539" stroke="#B2C0CA" stroke-width="0.844278" stroke-linecap="round" stroke-miterlimit="10" fill="none" transform="matrix(1 0 0 1.00166 315 215.12)"/><path d="M328.349 109.051C328.349 109.051 324.103 103.754 324.55 101.726" stroke="#B2C0CA" stroke-width="0.844278" stroke-linecap="round" stroke-miterlimit="10" fill="none" transform="matrix(1 0 0 1.00166 315 215.12)"/><path d="M329.692 100.913C329.692 100.913 334.067 99.1506 334.661 97.5431" stroke="#B2C0CA" stroke-width="0.844278" stroke-linecap="round" stroke-miterlimit="10" fill="none" transform="matrix(1 0 0 1.00166 315 215.12)"/><path d="M330.021 97.9724C330.021 97.9724 327.838 95.8443 327.993 94.9767" stroke="#B2C0CA" stroke-width="0.844278" stroke-linecap="round" stroke-miterlimit="10" fill="none" transform="matrix(1 0 0 1.00166 315 215.12)"/><path d="M317.435 205.416C317.435 205.416 299.598 167.175 298.648 149.155 297.698 131.126 308.357 135.126 312.421 147.995 316.495 160.873 326.194 152.105 314.924 134.259 303.653 116.412 320.559 100.036 326.194 111.042 331.829 122.048 322.678 165.577 329.053 166.737 335.437 167.897 332.386 146.79 338.999 146.47 345.611 146.15 349.877 166.545 340.232 183.277 330.578 200.009 332.359 210.777 327.765 213.937 323.18 217.106 317.435 205.416 317.435 205.416Z" fill="url(#fill3)" transform="matrix(1 0 0 1.00166 315 215.12)"/><path d="M322.239 200.639C322.239 200.639 317.591 184.117 319.234 176.601 320.878 169.084 322.239 154.525 322.239 154.525" stroke="#4089C1" stroke-width="1.68856" stroke-linecap="round" stroke-miterlimit="10" fill="none" transform="matrix(1 0 0 1.00166 315 215.12)"/><path d="M318.887 178.482C318.887 178.482 311.252 168.773 311.252 164.006" stroke="#4089C1" stroke-width="1.68856" stroke-linecap="round" stroke-miterlimit="10" fill="none" transform="matrix(1 0 0 1.00166 315 215.12)"/><path d="M318.887 185.058C319.244 185.789 338.588 170.892 339.008 163.997" stroke="#4089C1" stroke-width="1.68856" stroke-linecap="round" stroke-miterlimit="10" fill="none" transform="matrix(1 0 0 1.00166 315 215.12)"/><path d="M327.92 240.698C327.92 240.698 317.901 216.842 322.312 194.84 326.724 172.838 333.711 166.28 333.711 166.28 333.711 166.28 351.776 180.592 347.602 209.416 343.419 238.241 331.893 266.015 327.92 240.698Z" fill="url(#fill4)" transform="matrix(1 0 0 1.00166 315 215.12)"/><path d="M331.948 250.626C331.948 250.626 337.117 199.781 332.889 173.797" stroke="#B2C0CA" stroke-width="1.68856" stroke-linecap="round" stroke-miterlimit="10" fill="none" transform="matrix(1 0 0 1.00166 315 215.12)"/><path d="M332.396 245.721C332.396 245.721 339.611 236.524 340.241 234.195" stroke="#B2C0CA" stroke-width="1.68856" stroke-linecap="round" stroke-miterlimit="10" fill="none" transform="matrix(1 0 0 1.00166 315 215.12)"/><path d="M323.18 217.106C323.646 222.066 333.455 231.72 333.455 231.72 333.455 231.72 343.374 225.865 343.849 223.545" stroke="#B2C0CA" stroke-width="1.68856" stroke-linecap="round" stroke-miterlimit="10" fill="none" transform="matrix(1 0 0 1.00166 315 215.12)"/><path d="M334.186 217.773C334.186 217.773 340.871 213.398 343.849 210.11" stroke="#B2C0CA" stroke-width="1.68856" stroke-linecap="round" stroke-miterlimit="10" fill="none" transform="matrix(1 0 0 1.00166 315 215.12)"/><path d="M334.186 205.416C334.186 205.416 345.264 199.936 346.351 195.872" stroke="#B2C0CA" stroke-width="1.68856" stroke-linecap="round" stroke-miterlimit="10" fill="none" transform="matrix(1 0 0 1.00166 315 215.12)"/><path d="M334.186 211.608C334.186 211.608 323.655 201.817 323.966 197.433" stroke="#B2C0CA" stroke-width="1.68856" stroke-linecap="round" stroke-miterlimit="10" fill="none" transform="matrix(1 0 0 1.00166 315 215.12)"/><path d="M334.469 194.146C334.469 194.146 343.081 189.086 343.839 185.533" stroke="#B2C0CA" stroke-width="1.68856" stroke-linecap="round" stroke-miterlimit="10" fill="none" transform="matrix(1 0 0 1.00166 315 215.12)"/><path d="M334.25 187.889C334.25 187.889 329.007 184.108 329.071 182.245" stroke="#B2C0CA" stroke-width="1.68856" stroke-linecap="round" stroke-miterlimit="10" fill="none" transform="matrix(1 0 0 1.00166 315 215.12)"/><path d="M343.757 233.985C343.757 233.985 340.789 208.284 351.164 188.382 361.531 168.481 370.07 164.134 370.07 164.134 370.07 164.134 383.423 182.912 371.385 209.435 359.329 235.948 340.515 259.412 343.757 233.985Z" fill="url(#fill5)" transform="matrix(1 0 0 1.00166 315 215.12)"/><path d="M344.853 244.634C344.853 244.634 363.987 197.251 367.175 171.111" stroke="#B2C0CA" stroke-width="1.68856" stroke-linecap="round" stroke-miterlimit="10" fill="none" transform="matrix(1 0 0 1.00166 315 215.12)"/><path d="M346.652 240.058C346.652 240.058 356.151 233.236 357.402 231.172" stroke="#B2C0CA" stroke-width="1.68856" stroke-linecap="round" stroke-miterlimit="10" fill="none" transform="matrix(1 0 0 1.00166 315 215.12)"/><path d="M345.785 210.01C344.853 214.905 351.575 226.906 351.575 226.906 351.575 226.906 362.736 224.048 363.832 221.956" stroke="#B2C0CA" stroke-width="1.68856" stroke-linecap="round" stroke-miterlimit="10" fill="none" transform="matrix(1 0 0 1.00166 315 215.12)"/><path d="M356.16 213.718C356.16 213.718 363.805 211.38 367.577 209.051" stroke="#B2C0CA" stroke-width="1.68856" stroke-linecap="round" stroke-miterlimit="10" fill="none" transform="matrix(1 0 0 1.00166 315 215.12)"/><path d="M359.613 201.845C359.613 201.845 371.778 199.671 373.952 196.063" stroke="#B2C0CA" stroke-width="1.68856" stroke-linecap="round" stroke-miterlimit="10" fill="none" transform="matrix(1 0 0 1.00166 315 215.12)"/><path d="M357.886 207.791C357.886 207.791 350.498 195.452 352.023 191.332" stroke="#B2C0CA" stroke-width="1.68856" stroke-linecap="round" stroke-miterlimit="10" fill="none" transform="matrix(1 0 0 1.00166 315 215.12)"/><path d="M363.028 191.104C363.028 191.104 372.71 188.647 374.427 185.451" stroke="#B2C0CA" stroke-width="1.68856" stroke-linecap="round" stroke-miterlimit="10" fill="none" transform="matrix(1 0 0 1.00166 315 215.12)"/><path d="M364.563 185.031C364.563 185.031 360.581 179.943 361.156 178.162" stroke="#B2C0CA" stroke-width="1.68856" stroke-linecap="round" stroke-miterlimit="10" fill="none" transform="matrix(1 0 0 1.00166 315 215.12)"/><path d="M157.813 227.464C157.813 227.464 120.257 217.043 98.3651 191.296 76.4727 165.549 75.2306 151.164 75.2306 151.164 75.2306 151.164 109.014 143.164 139.191 175.002 169.376 206.841 191.46 246.397 157.813 227.464Z" fill="url(#fill6)" transform="matrix(1 0 0 1.00166 315 215.12)"/><path d="M173.303 231.966C173.303 231.966 118.011 178.409 83.35 159.156" stroke="#B2C0CA" stroke-width="1.68856" stroke-linecap="round" stroke-miterlimit="10" fill="none" transform="matrix(1 0 0 1.00166 315 215.12)"/><path d="M167.933 226.861C167.933 226.861 163.796 209.745 161.622 206.832" stroke="#B2C0CA" stroke-width="1.68856" stroke-linecap="round" stroke-miterlimit="10" fill="none" transform="matrix(1 0 0 1.00166 315 215.12)"/><path d="M125.5 211.051C131.802 215.125 152.361 212.549 152.361 212.549 152.361 212.549 154.699 195.36 152.397 192.639" stroke="#B2C0CA" stroke-width="1.68856" stroke-linecap="round" stroke-miterlimit="10" fill="none" transform="matrix(1 0 0 1.00166 315 215.12)"/><path d="M136.56 198.666C136.56 198.666 137.62 186.674 136.515 180.089" stroke="#B2C0CA" stroke-width="1.68856" stroke-linecap="round" stroke-miterlimit="10" fill="none" transform="matrix(1 0 0 1.00166 315 215.12)"/><path d="M121.947 187.131C121.947 187.131 125.801 168.919 122.011 163.841" stroke="#B2C0CA" stroke-width="1.68856" stroke-linecap="round" stroke-miterlimit="10" fill="none" transform="matrix(1 0 0 1.00166 315 215.12)"/><path d="M129.263 192.913C129.263 192.913 107.855 196.228 102.968 191.771" stroke="#B2C0CA" stroke-width="1.68856" stroke-linecap="round" stroke-miterlimit="10" fill="none" transform="matrix(1 0 0 1.00166 315 215.12)"/><path d="M108.887 176.272C108.887 176.272 110.951 161.366 107.453 157.165" stroke="#B2C0CA" stroke-width="1.68856" stroke-linecap="round" stroke-miterlimit="10" fill="none" transform="matrix(1 0 0 1.00166 315 215.12)"/><path d="M101.279 170.691C101.279 170.691 91.917 173.358 89.7616 171.55" stroke="#B2C0CA" stroke-width="1.68856" stroke-linecap="round" stroke-miterlimit="10" fill="none" transform="matrix(1 0 0 1.00166 315 215.12)"/><path d="M82.7107 182.619C82.7107 182.619 59.5853 176.199 46.0955 160.343 32.6148 144.488 31.8476 135.629 31.8476 135.629 31.8476 135.629 52.6532 130.706 71.2393 150.306 89.8255 169.906 103.434 194.283 82.7107 182.619Z" fill="url(#fill7)" transform="matrix(1 0 0 1.00166 315 215.12)"/><path d="M92.255 185.396C92.255 185.396 58.2062 152.416 36.8527 140.552" stroke="#B2C0CA" stroke-width="1.68856" stroke-linecap="round" stroke-miterlimit="10" fill="none" transform="matrix(1 0 0 1.00166 315 215.12)"/><path d="M88.9487 182.254C88.9487 182.254 86.4005 171.714 85.0671 169.915" stroke="#B2C0CA" stroke-width="1.68856" stroke-linecap="round" stroke-miterlimit="10" fill="none" transform="matrix(1 0 0 1.00166 315 215.12)"/><path d="M62.8094 172.518C66.691 175.03 79.3588 173.44 79.3588 173.44 79.3588 173.44 80.8019 162.855 79.3771 161.174" stroke="#B2C0CA" stroke-width="1.68856" stroke-linecap="round" stroke-miterlimit="10" fill="none" transform="matrix(1 0 0 1.00166 315 215.12)"/><path d="M69.6228 164.892C69.6228 164.892 70.2804 157.512 69.5954 153.457" stroke="#B2C0CA" stroke-width="1.68856" stroke-linecap="round" stroke-miterlimit="10" fill="none" transform="matrix(1 0 0 1.00166 315 215.12)"/><path d="M60.6265 157.786C60.6265 157.786 63.0012 146.57 60.663 143.438" stroke="#B2C0CA" stroke-width="1.68856" stroke-linecap="round" stroke-miterlimit="10" fill="none" transform="matrix(1 0 0 1.00166 315 215.12)"/><path d="M65.1292 161.339C65.1292 161.339 51.9408 163.385 48.936 160.636" stroke="#B2C0CA" stroke-width="1.68856" stroke-linecap="round" stroke-miterlimit="10" fill="none" transform="matrix(1 0 0 1.00166 315 215.12)"/><path d="M52.5801 151.091C52.5801 151.091 53.8496 141.912 51.6942 139.319" stroke="#B2C0CA" stroke-width="1.68856" stroke-linecap="round" stroke-miterlimit="10" fill="none" transform="matrix(1 0 0 1.00166 315 215.12)"/><path d="M47.8948 147.657C47.8948 147.657 42.1317 149.301 40.8074 148.187" stroke="#B2C0CA" stroke-width="1.68856" stroke-linecap="round" stroke-miterlimit="10" fill="none" transform="matrix(1 0 0 1.00166 315 215.12)"/><path d="M75.395 160.7C75.395 160.7 58.1788 143.977 53.9501 123.591 49.7214 103.206 53.3016 95.0771 53.3016 95.0771 53.3016 95.0771 73.9154 100.731 80.8293 126.852 87.7431 152.973 87.9897 180.866 75.395 160.7Z" fill="url(#fill8)" transform="matrix(1 0 0 1.00166 315 215.12)"/><path d="M82.4367 167.705C82.4367 167.705 68.3715 122.431 55.3292 101.79" stroke="#B2C0CA" stroke-width="1.68856" stroke-linecap="round" stroke-miterlimit="10" fill="none" transform="matrix(1 0 0 1.00166 315 215.12)"/><path d="M81.0393 163.357C81.0393 163.357 83.8615 152.881 83.551 150.671" stroke="#B2C0CA" stroke-width="1.68856" stroke-linecap="round" stroke-miterlimit="10" fill="none" transform="matrix(1 0 0 1.00166 315 215.12)"/><path d="M62.7728 142.278C64.9739 146.342 76.8472 151.018 76.8472 151.018 76.8472 151.018 83.1856 142.415 82.7472 140.268" stroke="#B2C0CA" stroke-width="1.68856" stroke-linecap="round" stroke-miterlimit="10" fill="none" transform="matrix(1 0 0 1.00166 315 215.12)"/><path d="M72.4084 138.853C72.4084 138.853 76.5275 132.688 77.8701 128.797" stroke="#B2C0CA" stroke-width="1.68856" stroke-linecap="round" stroke-miterlimit="10" fill="none" transform="matrix(1 0 0 1.00166 315 215.12)"/><path d="M67.924 128.304C67.924 128.304 75.3858 119.6 74.8379 115.737" stroke="#B2C0CA" stroke-width="1.68856" stroke-linecap="round" stroke-miterlimit="10" fill="none" transform="matrix(1 0 0 1.00166 315 215.12)"/><path d="M70.1708 133.592C70.1708 133.592 57.6217 129.062 56.2974 125.208" stroke="#B2C0CA" stroke-width="1.68856" stroke-linecap="round" stroke-miterlimit="10" fill="none" transform="matrix(1 0 0 1.00166 315 215.12)"/><path d="M64.0697 118.577C64.0697 118.577 69.5862 111.133 68.9378 107.827" stroke="#B2C0CA" stroke-width="1.68856" stroke-linecap="round" stroke-miterlimit="10" fill="none" transform="matrix(1 0 0 1.00166 315 215.12)"/><path d="M61.6129 113.316C61.6129 113.316 55.7676 111.992 55.1374 110.375" stroke="#B2C0CA" stroke-width="1.68856" stroke-linecap="round" stroke-miterlimit="10" fill="none" transform="matrix(1 0 0 1.00166 315 215.12)"/><path d="M88.9396 210.878C88.9396 210.878 66.3257 162.389 65.1201 139.538 63.9145 116.686 77.4226 121.746 82.5828 138.067 87.7431 154.398 100.046 143.282 85.7612 120.65 71.4677 98.0272 92.9034 77.2582 100.055 91.2138 107.197 105.169 95.5977 160.362 103.681 161.832 111.773 163.303 107.909 136.542 116.285 136.14 124.669 135.738 130.085 161.604 117.846 182.811 105.608 204.019 107.855 217.682 102.037 221.691 96.2097 225.701 88.9396 210.878 88.9396 210.878Z" fill="url(#fill9)" transform="matrix(1 0 0 1.00166 315 215.12)"/><path d="M95.0315 204.822C95.0315 204.822 89.1405 183.871 91.2229 174.345 93.3053 164.819 95.0315 146.36 95.0315 146.36" stroke="#4089C1" stroke-width="1.68856" stroke-linecap="round" stroke-miterlimit="10" fill="none" transform="matrix(1 0 0 1.00166 315 215.12)"/><path d="M90.7754 176.728C90.7754 176.728 81.0941 164.417 81.0941 158.371" stroke="#4089C1" stroke-width="1.68856" stroke-linecap="round" stroke-miterlimit="10" fill="none" transform="matrix(1 0 0 1.00166 315 215.12)"/><path d="M90.7754 185.067C91.2229 185.99 115.755 167.102 116.294 158.371" stroke="#4089C1" stroke-width="1.68856" stroke-linecap="round" stroke-miterlimit="10" fill="none" transform="matrix(1 0 0 1.00166 315 215.12)"/><path d="M157.558 240.807C157.558 240.807 119.682 249.986 88.0171 238.149 56.3613 226.313 48.2784 214.357 48.2784 214.357 48.2784 214.357 73.888 190.931 115.755 204.046 157.613 217.161 196.155 240.963 157.558 240.807Z" fill="url(#fill10)" transform="matrix(1 0 0 1.00166 315 215.12)"/><path d="M173.276 237.2C173.276 237.2 98.904 217.326 59.2474 217.39" stroke="#B2C0CA" stroke-width="1.68856" stroke-linecap="round" stroke-miterlimit="10" fill="none" transform="matrix(1 0 0 1.00166 315 215.12)"/><path d="M166.106 235.355C166.106 235.355 154.16 222.413 150.845 220.924" stroke="#B2C0CA" stroke-width="1.68856" stroke-linecap="round" stroke-miterlimit="10" fill="none" transform="matrix(1 0 0 1.00166 315 215.12)"/><path d="M121.335 242.205C128.824 242.698 145.529 230.432 145.529 230.432 145.529 230.432 139.2 214.275 135.866 213.024" stroke="#B2C0CA" stroke-width="1.68856" stroke-linecap="round" stroke-miterlimit="10" fill="none" transform="matrix(1 0 0 1.00166 315 215.12)"/><path d="M124.97 226.002C124.97 226.002 120.066 215.015 115.883 209.8" stroke="#B2C0CA" stroke-width="1.68856" stroke-linecap="round" stroke-miterlimit="10" fill="none" transform="matrix(1 0 0 1.00166 315 215.12)"/><path d="M106.585 223.034C106.585 223.034 101.087 205.252 95.3055 202.658" stroke="#B2C0CA" stroke-width="1.68856" stroke-linecap="round" stroke-miterlimit="10" fill="none" transform="matrix(1 0 0 1.00166 315 215.12)"/><path d="M115.791 224.523C115.791 224.523 98.703 237.839 92.2641 236.323" stroke="#B2C0CA" stroke-width="1.68856" stroke-linecap="round" stroke-miterlimit="10" fill="none" transform="matrix(1 0 0 1.00166 315 215.12)"/><path d="M89.8986 219.901C89.8986 219.901 84.446 205.882 79.3405 203.909" stroke="#B2C0CA" stroke-width="1.68856" stroke-linecap="round" stroke-miterlimit="10" fill="none" transform="matrix(1 0 0 1.00166 315 215.12)"/><path d="M80.537 218.732C80.537 218.732 73.6597 225.619 70.9014 225.089" stroke="#B2C0CA" stroke-width="1.68856" stroke-linecap="round" stroke-miterlimit="10" fill="none" transform="matrix(1 0 0 1.00166 315 215.12)"/><path d="M87.8071 229.72C86.7841 228.55 85.7612 227.637 84.6287 226.733 83.5053 225.838 82.3271 225.016 81.0759 224.276 79.8246 223.536 78.5003 222.879 77.1029 222.322 76.7558 222.175 76.4088 222.048 76.0434 221.92L75.5046 221.737C75.3036 221.673 75.2032 221.618 74.8561 221.536 73.6779 221.207 72.4358 221.171 71.3124 221.299 70.1799 221.436 69.1661 221.737 68.271 222.121 67.3669 222.495 66.5631 222.943 65.8416 223.408 64.3711 224.349 63.1747 225.399 62.0696 226.477 60.9644 227.555 59.9781 228.687 59.0647 229.847 58.6081 230.432 58.1697 231.016 57.7404 231.619L57.1102 232.533C56.9549 232.77 56.8088 232.98 56.6535 233.227 54.8543 235.428 53.055 237.638 51.2832 239.867 49.4566 242.141 47.6299 244.424 45.8307 246.726 44.0131 249.018 42.223 251.329 40.442 253.639 39.7479 254.544 39.0629 255.466 38.3779 256.37L38.3779 267.193C39.5652 267.221 40.7617 266.746 41.602 265.778 43.5017 263.558 45.3831 261.321 47.2463 259.074 49.1095 256.818 50.9635 254.562 52.7902 252.288 54.6351 250.023 56.4526 247.739 58.2701 245.447 60.0968 243.164 61.896 240.871 63.6953 238.561L63.8688 238.341 64.0332 238.086 64.4625 237.401 64.9557 236.661C65.2936 236.168 65.6407 235.684 65.9969 235.209 66.7184 234.268 67.4673 233.364 68.2254 232.542 68.9926 231.738 69.7872 230.998 70.5452 230.468 71.2942 229.93 72.0157 229.61 72.3993 229.555 72.6002 229.519 72.7189 229.5 72.8194 229.528 72.8011 229.509 73.0112 229.573 73.1299 229.601L73.5409 229.71C73.8149 229.774 74.0889 229.875 74.3721 229.957 75.4863 230.286 76.6188 230.678 77.7696 231.108 78.9113 231.528 80.0803 231.975 81.2494 232.441 82.4093 232.889 83.6332 233.409 84.7748 233.811L85.0123 233.893C85.8617 234.186 86.8481 234.03 87.5787 233.391 88.6473 232.441 88.7478 230.797 87.8071 229.72Z" fill="#0D2933" transform="matrix(1 0 0 1.00166 315 215.12)"/><path d="M162.49 223.637C162.407 223.153 162.27 222.669 162.088 222.221 161.722 221.317 161.184 220.568 160.617 219.965 160.051 219.353 159.448 218.887 158.845 218.504 158.243 218.111 157.658 217.819 157.074 217.554 156.781 217.435 156.489 217.317 156.206 217.216L155.768 217.061 155.201 216.915C153.685 216.522 152.05 216.504 150.571 216.787 149.082 217.061 147.758 217.591 146.607 218.212 145.438 218.833 144.424 219.563 143.511 220.349 142.597 221.125 141.775 221.947 141.017 222.806 140.634 223.235 140.268 223.673 139.921 224.121L139.401 224.815C139.218 225.071 139.081 225.262 138.844 225.628L138.561 226.066 138.378 226.632C136.688 231.829 135.017 237.035 133.391 242.25L131.199 249.383 131.199 262.946C131.217 262.955 131.227 262.965 131.245 262.965 133.391 263.732 135.747 262.617 136.515 260.471 137.437 257.896 138.332 255.32 139.218 252.735L141.83 244.963C143.483 239.976 145.091 234.971 146.689 229.966L147 229.519C147.228 229.208 147.475 228.898 147.721 228.596 148.224 227.993 148.744 227.436 149.283 226.952 150.352 225.975 151.448 225.262 152.26 225.071 152.671 224.952 153 224.925 153.356 224.988L153.493 225.007 153.749 225.062C153.923 225.098 154.078 225.144 154.242 225.189 154.553 225.272 154.854 225.354 155.101 225.418 155.621 225.564 155.886 225.664 156.069 225.536 156.16 225.482 156.27 225.399 156.416 225.409 156.48 225.409 156.571 225.436 156.644 225.491L156.763 225.573C156.781 225.591 156.809 225.6 156.827 225.61 156.836 225.61 156.845 225.619 156.864 225.61 156.882 225.591 156.882 225.628 156.946 225.536 156.316 226.797 156.818 228.322 158.078 228.952 159.339 229.583 160.864 229.08 161.494 227.82L161.75 227.409 161.923 227.098C162.033 226.897 162.124 226.687 162.207 226.477 162.362 226.048 162.481 225.591 162.526 225.116 162.563 224.623 162.563 224.13 162.49 223.637Z" fill="#0D2933" transform="matrix(1 0 0 1.00166 315 215.12)"/><path d="M45.9768 244.123C41.7938 244.123 38.3688 247.548 38.3688 251.731L38.3688 260.362 54.6077 244.123 45.9768 244.123Z" fill="#7FC8FD" fill-opacity="0.59" transform="matrix(1 0 0 1.00166 315 215.12)"/><path d="M68.3167 244.123 60.5626 244.123 38.3688 266.316 38.3688 269.33C38.3688 272.609 40.4786 275.413 43.4012 276.473L73.6049 246.269C72.2349 244.954 70.3717 244.123 68.3167 244.123Z" fill="#7FC8FD" fill-opacity="0.59" transform="matrix(1 0 0 1.00166 315 215.12)"/><path d="M75.9247 251.731C75.9247 249.593 75.0296 247.666 73.6049 246.278L43.4012 276.482C44.2049 276.774 45.0726 276.948 45.9768 276.948L55.8681 276.948 75.9247 256.891 75.9247 251.731Z" fill="#F0F8FF" fill-opacity="0.59" transform="matrix(1 0 0 1.00166 315 215.12)"/><path d="M55.8772 276.948 68.3167 276.948C72.4997 276.948 75.9247 273.523 75.9247 269.34L75.9247 256.891 55.8772 276.948Z" fill="#7FC8FD" fill-opacity="0.59" transform="matrix(1 0 0 1.00166 315 215.12)"/><path d="M54.6168 244.123 38.3688 260.371 38.3688 266.326 60.5626 244.123Z" fill="#F0F8FF" fill-opacity="0.59" transform="matrix(1 0 0 1.00166 315 215.12)"/><path d="M102.639 244.123C98.4564 244.123 95.0315 247.548 95.0315 251.731L95.0315 260.773 111.681 244.123 102.639 244.123Z" fill="#7FC8FD" fill-opacity="0.59" transform="matrix(1 0 0 1.00166 315 215.12)"/><path d="M111.681 244.123 95.0315 260.782 95.0315 265.294 116.193 244.123Z" fill="#F0F8FF" fill-opacity="0.59" transform="matrix(1 0 0 1.00166 315 215.12)"/><path d="M124.97 244.123 116.193 244.123 95.0223 265.294 95.0223 269.33C95.0223 272.445 96.9129 275.13 99.6072 276.308L129.93 245.986C128.605 244.835 126.87 244.123 124.97 244.123Z" fill="#7FC8FD" fill-opacity="0.59" transform="matrix(1 0 0 1.00166 315 215.12)"/><path d="M132.578 251.731C132.578 249.438 131.546 247.383 129.93 245.986L99.6072 276.308C100.539 276.71 101.553 276.938 102.63 276.938L110.467 276.938 132.569 254.836 132.569 251.731Z" fill="#F0F8FF" fill-opacity="0.59" transform="matrix(1 0 0 1.00166 315 215.12)"/><path d="M110.476 276.948 124.97 276.948C129.153 276.948 132.578 273.523 132.578 269.34L132.578 254.845 110.476 276.948Z" fill="#7FC8FD" fill-opacity="0.59" transform="matrix(1 0 0 1.00166 315 215.12)"/><path d="M68.3167 276.948 45.9768 276.948C41.7938 276.948 38.3688 273.523 38.3688 269.34L38.3688 251.74C38.3688 247.557 41.7938 244.132 45.9768 244.132L68.3167 244.132C72.4997 244.132 75.9247 247.557 75.9247 251.74L75.9247 269.34C75.9247 273.523 72.4997 276.948 68.3167 276.948Z" stroke="#174859" stroke-width="5.07197" stroke-miterlimit="10" fill="none" transform="matrix(1 0 0 1.00166 315 215.12)"/><path d="M124.97 276.948 102.63 276.948C98.4473 276.948 95.0223 273.523 95.0223 269.34L95.0223 251.74C95.0223 247.557 98.4473 244.132 102.63 244.132L124.97 244.132C129.153 244.132 132.578 247.557 132.578 251.74L132.578 269.34C132.578 273.523 129.162 276.948 124.97 276.948Z" stroke="#174859" stroke-width="5.07197" stroke-miterlimit="10" fill="none" transform="matrix(1 0 0 1.00166 315 215.12)"/><path d="M75.9247 258.571C75.9247 258.571 86.0535 247.612 95.0223 258.571" stroke="#174859" stroke-width="5.07197" stroke-miterlimit="10" fill="none" transform="matrix(1 0 0 1.00166 315 215.12)"/><path d="M268.691 229.948C270.81 231.583 274.153 233.473 278.655 233.921 280.802 234.131 282.838 232.898 283.642 230.898L285.606 225.993C274.847 226.888 269.166 219.408 269.166 219.408L267.193 224.34C266.39 226.331 266.983 228.633 268.691 229.948Z" fill="#FF5D7B" transform="matrix(1 0 0 1.00166 315 215.12)"/><path d="M254.855 183.883 326.986 183.883 326.986 190.533 254.855 190.533Z" fill="#F4B031" transform="matrix(0.371719 -0.929638 0.928099 0.372336 323.978 603.362)"/><path d="M260.838 186.487 332.97 186.487 332.97 192.708 260.838 192.708Z" fill="#E8A423" transform="matrix(0.371719 -0.929638 0.928099 0.372336 325.512 610.427)"/><path d="M249.529 182.659 321.661 182.659 321.661 187.491 249.529 187.491Z" fill="#F4C43E" transform="matrix(0.371719 -0.929638 0.928099 0.372336 322.611 597.063)"/><path d="M296.694 150.662 310.658 139.611 313.133 157.247C313.133 157.247 304.338 159.275 296.694 150.662Z" fill="#FACFC9" transform="matrix(1 0 0 1.00166 315 215.12)"/><path d="M305.425 143.748C307.617 145.173 309.754 145.94 311.599 146.324L310.658 139.602 305.425 143.748Z" fill="#174859" transform="matrix(1 0 0 1.00166 315 215.12)"/><path d="M268.253 221.673C268.253 221.673 273.934 229.144 284.693 228.258L287.88 220.303C277.121 221.198 271.44 213.718 271.44 213.718L268.253 221.673Z" fill="#174859" transform="matrix(1 0 0 1.00166 315 215.12)"/><path d="M274.144 241.3C275.769 243.429 278.509 246.114 282.747 247.712 284.766 248.47 287.049 247.803 288.346 246.077L291.515 241.848C280.893 239.93 277.34 231.245 277.34 231.245L274.153 235.501C272.856 237.218 272.838 239.593 274.144 241.3Z" fill="#FF5D7B" transform="matrix(1 0 0 1.00166 315 215.12)"/><path d="M270.73 202.508 342.89 202.508 342.89 209.161 270.73 209.161Z" fill="#F4B031" transform="matrix(0.598732 -0.801535 0.800208 0.599725 273.225 543.651)"/><path d="M275.884 206.584 348.045 206.584 348.045 212.808 275.884 212.808Z" fill="#E8A423" transform="matrix(0.598732 -0.801535 0.800208 0.599725 272.202 549.331)"/><path d="M266.124 199.977 338.284 199.977 338.284 204.811 266.124 204.811Z" fill="#F4C43E" transform="matrix(0.598732 -0.801535 0.800208 0.599725 274.135 538.583)"/><path d="M321.691 171.952 338.04 164.883 335.875 182.555C335.866 182.555 326.852 182.245 321.691 171.952Z" fill="#FACFC9" transform="matrix(1 0 0 1.00166 315 215.12)"/><path d="M331.911 167.531C333.665 169.477 335.528 170.764 337.209 171.614L338.031 164.883 331.911 167.531Z" fill="#174859" transform="matrix(1 0 0 1.00166 315 215.12)"/><path d="M275.861 233.199C275.861 233.199 279.414 241.885 290.035 243.803L295.168 236.944C284.546 235.026 280.994 226.34 280.994 226.34L275.861 233.199Z" fill="#174859" transform="matrix(1 0 0 1.00166 315 215.12)"/><path d="M376.664 243.986 371.111 264.636C370.6 266.545 368.618 267.677 366.718 267.166L366.718 267.166C364.809 266.654 363.677 264.672 364.188 262.773L369.741 242.122C370.253 240.214 372.235 239.081 374.134 239.593L374.134 239.593C376.034 240.095 377.176 242.077 376.664 243.986Z" fill="#AAB9D8" transform="matrix(1 0 0 1.00166 315 215.12)"/><path d="M312.357 203.379C294.228 198.511 275.578 209.617 271.358 228.085 267.476 245.091 277.687 262.444 294.438 267.33 303.288 269.906 312.302 268.636 319.746 264.535 323.673 262.371 328.258 261.741 332.587 262.901L336.524 263.96C343.757 265.905 351.201 261.613 353.146 254.379L355.978 243.84C357.923 236.606 353.63 229.162 346.397 227.217L342.46 226.158C338.149 224.998 334.496 222.175 332.195 218.339 327.92 211.234 321.006 205.708 312.357 203.379Z" fill="#B4D3F7" transform="matrix(1 0 0 1.00166 315 215.12)"/><path d="M299.214 202.548C301.616 202.575 304.055 202.904 306.484 203.553 314.12 205.608 320.239 210.494 324.02 216.778 326.057 220.166 329.281 222.66 333.09 223.682L336.569 224.614C342.963 226.331 346.753 232.907 345.036 239.3L342.533 248.616C340.816 255.009 334.24 258.8 327.847 257.083L324.367 256.151C320.541 255.119 316.485 255.685 313.015 257.594 306.439 261.22 298.465 262.343 290.638 260.06 281.149 257.293 274.034 249.995 271.057 241.145 273.221 253.238 282.035 263.695 294.438 267.312 303.288 269.888 312.302 268.618 319.746 264.517 323.673 262.353 328.258 261.722 332.587 262.882L336.524 263.942C343.757 265.887 351.201 261.595 353.146 254.361L355.978 243.821C357.923 236.588 353.63 229.144 346.397 227.199L342.46 226.139C338.149 224.979 334.496 222.157 332.195 218.321 327.92 211.206 321.006 205.681 312.357 203.361 307.937 202.192 303.48 201.964 299.214 202.548Z" fill="#99C5F7" transform="matrix(1 0 0 1.00166 315 215.12)"/><path d="M349.603 255.795 310.75 245.356C310.75 245.356 315.526 245.483 314.54 241.529 313.554 237.574 303.745 240.899 308.978 242.46 314.211 244.022 320.157 236.579 314.549 232.77 308.941 228.952 305.462 237.711 313.645 235.985 321.828 234.259 315.344 228.258 315.344 228.258L354.197 238.697" stroke="#C1DEFF" stroke-width="1.30943" stroke-linejoin="round" stroke-miterlimit="10" fill="none" transform="matrix(1 0 0 1.00166 315 215.12)"/><path d="M363.33 237.647 356.407 263.421C355.767 265.796 353.302 267.221 350.918 266.581L350.918 266.581C348.543 265.942 347.118 263.476 347.758 261.092L354.681 235.318C355.32 232.944 357.786 231.519 360.17 232.158L360.17 232.158C362.544 232.807 363.969 235.273 363.33 237.647Z" fill="#E0EFF2" transform="matrix(1 0 0 1.00166 315 215.12)"/><path d="M366.828 238.597 359.905 264.371C359.266 266.746 356.8 268.17 354.416 267.531L354.416 267.531C352.041 266.892 350.616 264.426 351.256 262.042L358.179 236.268C358.818 233.893 361.284 232.469 363.668 233.108L363.668 233.108C366.052 233.747 367.467 236.213 366.828 238.597Z" fill="#E0EFF2" transform="matrix(1 0 0 1.00166 315 215.12)"/><path d="M370.335 239.538 363.412 265.312C362.773 267.686 360.307 269.111 357.923 268.472L357.923 268.472C355.548 267.833 354.124 265.367 354.763 262.983L361.686 237.209C362.325 234.834 364.791 233.409 367.175 234.049L367.175 234.049C369.55 234.688 370.974 237.154 370.335 239.538Z" fill="#E0EFF2" transform="matrix(1 0 0 1.00166 315 215.12)"/><path d="M373.842 240.478 366.919 266.253C366.28 268.627 363.814 270.052 361.43 269.413L361.43 269.413C359.055 268.773 357.631 266.307 358.27 263.924L365.193 238.149C365.832 235.775 368.298 234.35 370.682 234.989L370.682 234.989C373.057 235.629 374.482 238.104 373.842 240.478Z" fill="#E0EFF2" transform="matrix(1 0 0 1.00166 315 215.12)"/><path d="M360.014 235.674 352.543 263.476C351.858 266.042 349.192 267.577 346.625 266.883L346.625 266.883C344.059 266.198 342.524 263.531 343.218 260.964L350.689 233.163C351.374 230.596 354.041 229.062 356.608 229.756L356.608 229.756C359.165 230.441 360.699 233.108 360.014 235.674Z" fill="#AAB9D8" transform="matrix(1 0 0 1.00166 315 215.12)"/><path d="M296.502 220.12 296.502 220.12C295.68 223.171 292.52 224.988 289.469 224.176L286.611 223.408C283.56 222.586 281.743 219.426 282.555 216.376L282.555 216.376C283.377 213.325 286.537 211.508 289.588 212.321L292.447 213.088C295.497 213.91 297.315 217.07 296.502 220.12Z" fill="#C1DEFF" transform="matrix(1 0 0 1.00166 315 215.12)"/><path d="M307.69 221.691 307.69 221.691C307.069 224.002 304.667 225.381 302.356 224.76L302.356 224.76C300.046 224.139 298.666 221.737 299.287 219.426L299.287 219.426C299.909 217.116 302.311 215.737 304.621 216.358L304.621 216.358C306.923 216.979 308.311 219.381 307.69 221.691Z" fill="#C1DEFF" transform="matrix(1 0 0 1.00166 315 215.12)"/><path d="M374.692 239.803 371.102 253.137C370.591 255.046 368.609 256.179 366.709 255.667 366.663 255.658 366.627 255.631 366.581 255.621 365.641 257.466 363.503 258.471 361.43 257.914 360.809 257.749 360.252 257.448 359.777 257.064 359.174 257.165 358.544 257.138 357.923 256.973 357.302 256.809 356.745 256.507 356.27 256.124 355.667 256.224 355.037 256.197 354.416 256.032 353.795 255.868 353.238 255.567 352.763 255.183 352.16 255.283 351.53 255.256 350.909 255.092L350.909 255.092C350.708 255.037 350.507 254.964 350.315 254.882 349.237 255.521 347.913 255.74 346.616 255.393 345.091 254.982 343.94 253.877 343.392 252.507 342.479 252.744 341.529 252.891 340.57 252.927 339.236 252.982 337.875 252.836 336.515 252.47L332.578 251.411C332.039 251.265 331.491 251.146 330.943 251.055 327.655 250.516 324.294 250.973 321.235 252.306 320.723 252.525 320.221 252.772 319.737 253.046 317.408 254.324 314.933 255.329 312.348 256.032 311.316 256.316 310.266 256.544 309.206 256.717 307.087 257.074 304.914 257.229 302.712 257.156 301.616 257.119 300.511 257.028 299.406 256.882 297.744 256.663 296.082 256.316 294.419 255.831 293.725 255.631 293.059 255.402 292.383 255.156 292.209 255.092 292.045 255.028 291.88 254.964 291.25 254.726 290.629 254.471 290.026 254.197 289.99 254.178 289.962 254.169 289.926 254.151 289.287 253.859 288.665 253.539 288.054 253.21 287.907 253.128 287.761 253.046 287.615 252.973 287.049 252.653 286.483 252.324 285.944 251.977 285.907 251.95 285.862 251.932 285.816 251.904 285.231 251.521 284.656 251.119 284.099 250.708 283.98 250.626 283.871 250.534 283.752 250.443 283.231 250.05 282.72 249.639 282.227 249.219 282.19 249.192 282.154 249.164 282.126 249.137 281.587 248.671 281.076 248.187 280.564 247.694 280.482 247.612 280.409 247.529 280.327 247.456 279.852 246.981 279.386 246.488 278.939 245.977 278.92 245.958 278.902 245.931 278.884 245.913 278.409 245.365 277.943 244.808 277.505 244.232 277.459 244.177 277.413 244.114 277.368 244.059 276.938 243.492 276.527 242.917 276.135 242.333 276.126 242.323 276.126 242.314 276.116 242.305 275.705 241.684 275.313 241.054 274.947 240.405 274.929 240.378 274.911 240.351 274.902 240.314 273.029 237.008 271.714 233.382 271.038 229.61 269.641 237.428 271.175 245.246 274.902 251.804 274.92 251.831 274.938 251.859 274.947 251.895 275.313 252.544 275.705 253.174 276.116 253.795 276.126 253.804 276.126 253.813 276.135 253.822 276.527 254.416 276.938 254.991 277.368 255.548 277.413 255.603 277.459 255.667 277.505 255.722 277.943 256.297 278.409 256.854 278.884 257.402 278.902 257.421 278.92 257.448 278.939 257.466 279.386 257.969 279.852 258.462 280.327 258.946 280.409 259.028 280.482 259.11 280.564 259.183 281.067 259.677 281.587 260.161 282.126 260.626 282.163 260.654 282.199 260.681 282.227 260.709 282.72 261.129 283.231 261.54 283.752 261.932 283.871 262.024 283.98 262.106 284.099 262.197 284.656 262.608 285.231 263.01 285.816 263.394 285.852 263.421 285.898 263.449 285.944 263.467 286.492 263.814 287.049 264.143 287.615 264.462 287.761 264.545 287.907 264.627 288.054 264.7 288.665 265.029 289.287 265.348 289.926 265.641 289.962 265.659 289.99 265.668 290.026 265.686 290.629 265.96 291.25 266.216 291.88 266.453 292.045 266.517 292.218 266.581 292.383 266.645 293.049 266.892 293.725 267.12 294.419 267.321 296.082 267.805 297.744 268.152 299.406 268.371 300.511 268.518 301.616 268.609 302.712 268.645 304.904 268.709 307.078 268.563 309.206 268.207 310.266 268.024 311.316 267.796 312.348 267.522 314.933 266.828 317.408 265.823 319.737 264.535 320.23 264.261 320.732 264.015 321.235 263.796 324.294 262.462 327.655 262.006 330.943 262.544 331.491 262.636 332.039 262.754 332.578 262.901L336.515 263.96C337.875 264.325 339.236 264.472 340.57 264.417 341.529 264.38 342.479 264.234 343.392 263.997 343.94 265.367 345.091 266.472 346.616 266.883 347.913 267.23 349.237 267.011 350.315 266.371 350.507 266.453 350.699 266.527 350.909 266.581L350.909 266.581C351.53 266.746 352.16 266.773 352.763 266.673 353.238 267.056 353.795 267.358 354.416 267.522 355.037 267.686 355.667 267.714 356.27 267.613 356.745 267.997 357.302 268.298 357.923 268.463 358.544 268.627 359.174 268.655 359.777 268.554 360.252 268.938 360.809 269.239 361.43 269.403 363.503 269.961 365.641 268.947 366.581 267.111 366.627 267.129 366.663 267.148 366.709 267.157 368.618 267.668 370.591 266.527 371.102 264.627L376.655 243.977C377.121 242.278 376.244 240.524 374.692 239.803Z" fill="#E0EFF2" transform="matrix(1 0 0 1.00166 315 215.12)"/><path d="M166.755 230.952C166.755 230.952 169.12 227.792 177.797 227.007 186.474 226.221 251.959 227.007 251.959 227.007 251.959 227.007 255.905 227.792 258.27 230.952 260.636 234.113 282.729 262.508 282.729 262.508 282.729 262.508 285.889 266.453 282.729 268.819 279.569 271.184 152.553 268.819 152.553 268.819 152.553 268.819 145.456 269.604 148.607 264.088 151.758 258.571 166.755 230.952 166.755 230.952Z" fill="#164454" transform="matrix(1 0 0 1.00166 315 215.12)"/><path d="M152.553 247.52 277.212 247.52 277.212 264.088 152.553 264.088Z" fill="#FFFFFF" transform="matrix(1 0 0 1.00166 315 215.12)"/><path d="M166.755 212.805C166.755 212.805 169.12 209.645 177.797 208.859 186.474 208.074 251.959 208.859 251.959 208.859 251.959 208.859 255.905 209.645 258.27 212.805 260.636 215.965 282.729 244.36 282.729 244.36 282.729 244.36 285.889 248.306 282.729 250.671 279.569 253.037 152.553 250.671 152.553 250.671 152.553 250.671 145.456 251.457 148.607 245.94 151.758 240.424 166.755 212.805 166.755 212.805Z" fill="#164454" transform="matrix(1 0 0 1.00166 315 215.12)"/><path d="M152.553 253.046 277.212 253.046 277.212 253.831 152.553 253.831Z" fill="#DFECF0" transform="matrix(1 0 0 1.00166 315 215.12)"/><path d="M152.553 255.411 277.212 255.411 277.212 256.197 152.553 256.197Z" fill="#DFECF0" transform="matrix(1 0 0 1.00166 315 215.12)"/><path d="M152.553 257.777 277.212 257.777 277.212 258.562 152.553 258.562Z" fill="#DFECF0" transform="matrix(1 0 0 1.00166 315 215.12)"/><path d="M152.553 260.142 277.212 260.142 277.212 260.928 152.553 260.928Z" fill="#DFECF0" transform="matrix(1 0 0 1.00166 315 215.12)"/><path d="M152.553 262.517 277.212 262.517 277.212 263.302 152.553 263.302Z" fill="#DFECF0" transform="matrix(1 0 0 1.00166 315 215.12)"/><path d="M167.23 209.124C167.23 209.124 169.431 206.192 177.496 205.462 185.56 204.731 246.406 205.462 246.406 205.462 246.406 205.462 250.068 206.192 252.27 209.124 254.471 212.056 274.993 238.442 274.993 238.442 274.993 238.442 277.925 242.104 274.993 244.305 272.061 246.506 154.041 244.305 154.041 244.305 154.041 244.305 147.447 245.036 150.379 239.903 153.302 234.779 167.23 209.124 167.23 209.124Z" fill="#66A1ED" transform="matrix(1 0 0 1.00166 315 215.12)"/><path d="M154.032 224.523 269.851 224.523 269.851 239.912 154.032 239.912Z" fill="#FFFFFF" transform="matrix(1 0 0 1.00166 315 215.12)"/><path d="M167.23 192.264C167.23 192.264 169.431 189.332 177.496 188.602 185.56 187.871 246.406 188.602 246.406 188.602 246.406 188.602 250.068 189.332 252.27 192.264 254.471 195.196 274.993 221.582 274.993 221.582 274.993 221.582 277.925 225.244 274.993 227.445 272.061 229.646 154.041 227.445 154.041 227.445 154.041 227.445 147.447 228.176 150.379 223.043 153.302 217.919 167.23 192.264 167.23 192.264Z" fill="#8CBDF7" transform="matrix(1 0 0 1.00166 315 215.12)"/><path d="M154.032 229.656 269.851 229.656 269.851 230.386 154.032 230.386Z" fill="#DFECF0" transform="matrix(1 0 0 1.00166 315 215.12)"/><path d="M154.032 231.848 269.851 231.848 269.851 232.578 154.032 232.578Z" fill="#DFECF0" transform="matrix(1 0 0 1.00166 315 215.12)"/><path d="M154.032 234.049 269.851 234.049 269.851 234.779 154.032 234.779Z" fill="#DFECF0" transform="matrix(1 0 0 1.00166 315 215.12)"/><path d="M154.032 236.25 269.851 236.25 269.851 236.98 154.032 236.98Z" fill="#DFECF0" transform="matrix(1 0 0 1.00166 315 215.12)"/><path d="M154.032 238.451 269.851 238.451 269.851 239.182 154.032 239.182Z" fill="#DFECF0" transform="matrix(1 0 0 1.00166 315 215.12)"/><path d="M251.073 281.514C251.913 278.29 252.452 273.532 250.763 268.143 249.959 265.577 247.548 263.841 244.862 263.896L238.277 264.033C244.552 275.943 238.743 286.099 238.743 286.099L245.374 285.962C248.05 285.916 250.397 284.108 251.073 281.514Z" fill="#FF5D7B" transform="matrix(1 0 0 1.00166 315 215.12)"/><path d="M146.237 272.818 236.138 272.818 236.138 281.111 146.237 281.111Z" fill="#F4B031" transform="matrix(0.999772 -0.0213347 0.0212994 1.00143 309.149 219.259)"/><path d="M146.072 265.063 235.973 265.063 235.973 272.827 146.072 272.827Z" fill="#E8A423" transform="matrix(0.999772 -0.0213347 0.0212994 1.00143 309.32 219.253)"/><path d="M146.392 281.111 236.293 281.111 236.293 287.13 146.392 287.13Z" fill="#F4C43E" transform="matrix(0.999772 -0.0213347 0.0212994 1.00143 308.996 219.264)"/><path d="M146.461 288.081 126.97 277.459 145.995 266.015C145.995 266.006 152.607 275.103 146.461 288.081Z" fill="#FACFC9" transform="matrix(1 0 0 1.00166 315 215.12)"/><path d="M134.268 281.432C134.834 278.217 134.67 275.395 134.213 273.093L126.97 277.45 134.268 281.432Z" fill="#174859" transform="matrix(1 0 0 1.00166 315 215.12)"/><path d="M241.803 286.053C241.803 286.053 247.612 275.897 241.337 263.987L230.66 264.216C236.935 276.126 231.126 286.282 231.126 286.282L241.803 286.053Z" fill="#174859" transform="matrix(1 0 0 1.00166 315 215.12)"/><path d="M252.808 204.932C252.808 212.024 234.522 217.773 211.964 217.773 189.407 217.773 171.121 212.024 171.121 204.932 171.121 197.84 189.407 192.091 211.964 192.091 234.522 192.091 252.808 197.84 252.808 204.932Z" fill="#0F2F3B" transform="matrix(1 0 0 1.00166 315 215.12)"/><path d="M252.808 182.674C252.808 188.662 234.522 193.515 211.964 193.515 189.407 193.515 171.121 188.662 171.121 182.674 171.121 176.687 189.407 171.833 211.964 171.833 234.522 171.833 252.808 176.687 252.808 182.674Z" fill="#DFECF0" transform="matrix(1 0 0 1.00166 315 215.12)"/><path d="M171.121 182.674 252.808 182.674 252.808 204.932 171.121 204.932Z" fill="#0F2F3B" transform="matrix(1 0 0 1.00166 315 215.12)"/><path d="M215.216 161.713C215.216 161.713 135.702 181.953 136.423 181.953 137.145 181.953 208.713 206.53 212.33 207.252 215.947 207.973 283.898 186.291 286.784 184.839 289.679 183.396 218.111 160.983 215.216 161.713Z" fill="#143E4D" transform="matrix(1 0 0 1.00166 315 215.12)"/><path d="M286.784 184.839 286.784 182.674 136.423 179.779 136.423 181.953Z" fill="#143E4D" transform="matrix(1 0 0 1.00166 315 215.12)"/><path d="M215.216 159.54C215.216 159.54 135.702 179.779 136.423 179.779 137.145 179.779 208.713 204.356 212.33 205.078 215.947 205.8 283.898 184.117 286.784 182.665 289.679 181.231 218.111 158.818 215.216 159.54Z" fill="#174859" transform="matrix(1 0 0 1.00166 315 215.12)"/><path d="M211.645 180.099 211.645 183.277 138.734 182.674C138.734 182.674 136.688 182.985 135.921 185.862 135.154 188.739 136.432 202.192 136.432 202.192 136.432 202.192 134.177 205.005 132.852 201.105 131.528 197.205 132.852 182.674 132.852 182.674 132.852 182.674 133.693 179.742 137.501 180.099 141.301 180.464 211.645 180.099 211.645 180.099Z" fill="#0F2F3B" transform="matrix(1 0 0 1.00166 315 215.12)"/><path d="M132.761 203.169C132.761 203.169 129.482 205.754 131.099 209.535 132.715 213.316 132.715 213.316 132.715 213.316L132.77 212.165 134.725 214.129 135.364 212.165 136.222 214.741C136.222 214.741 142.004 208.421 135.921 202.658 135.912 202.649 133.994 201.744 132.761 203.169Z" fill="#0F2F3B" transform="matrix(1 0 0 1.00166 315 215.12)"/><path d="M218.787 181.514C218.787 182.473 216.431 183.25 213.517 183.25 210.613 183.25 208.247 182.473 208.247 181.514 208.247 180.555 210.604 179.779 213.517 179.779 216.431 179.779 218.787 180.555 218.787 181.514Z" fill="#F4C43E" transform="matrix(1 0 0 1.00166 315 215.12)"/><path d="M136.478 202.649C136.478 203.818 135.537 204.758 134.368 204.758 133.199 204.758 132.259 203.818 132.259 202.649 132.259 201.48 133.199 200.539 134.368 200.539 135.528 200.539 136.478 201.489 136.478 202.649Z" fill="#F4C43E" transform="matrix(1 0 0 1.00166 315 215.12)"/><path d="M203.58 88.8209C203.58 88.8209 203.808 90.6932 201.452 93.0861 199.087 95.479 198.201 104.694 209.425 101.324 220.65 97.945 211.873 85.8434 203.58 88.8209Z" fill="#CF2949" transform="matrix(1 0 0 1.00166 315 215.12)"/><path d="M203.955 101.571C203.955 101.571 208.859 99.6072 213.143 100.411 213.143 100.411 214.988 106.211 212.165 108.192 209.343 110.165 202.712 107.626 203.955 101.571Z" fill="#66A1ED" transform="matrix(1 0 0 1.00166 315 215.12)"/><path d="M171.258 46.3604 163.175 48.3332C162.426 48.5158 161.668 48.05 161.485 47.3102L161.485 47.3102C161.302 46.5613 161.768 45.8032 162.508 45.6206L170.591 43.6478C171.34 43.4651 172.098 43.9309 172.281 44.6707L172.281 44.6707C172.463 45.4197 171.997 46.1777 171.258 46.3604Z" fill="#AAB9D8" transform="matrix(1 0 0 1.00166 315 215.12)"/><path d="M173.075 16.8143C171.349 9.71778 164.061 5.42515 156.964 7.4436 150.434 9.29765 146.415 16.038 147.886 22.6687 148.662 26.1759 150.781 29.0163 153.576 30.7882 155.046 31.7198 156.124 33.172 156.535 34.8616L156.909 36.4051C157.603 39.2364 160.453 40.9809 163.293 40.2868L167.422 39.2821C170.253 38.588 171.997 35.7384 171.303 32.898L170.929 31.3545C170.518 29.6648 170.801 27.8929 171.678 26.386 173.313 23.6003 173.906 20.2027 173.075 16.8143Z" fill="#FFD96E" transform="matrix(1 0 0 1.00166 315 215.12)"/><path d="M170.901 12.1655C171.34 12.9875 171.687 13.8825 171.915 14.8324 172.646 17.8281 172.116 20.8238 170.682 23.2898 169.906 24.6141 169.659 26.185 170.025 27.6829L170.353 29.0437C170.965 31.5462 169.431 34.0762 166.919 34.679L163.266 35.5649C160.763 36.1768 158.234 34.6424 157.622 32.1308L157.293 30.7699C156.928 29.2721 155.978 27.9934 154.672 27.1623 152.206 25.5914 150.324 23.0797 149.639 19.9836 148.808 16.2298 149.968 12.4304 152.434 9.75431 148.708 12.7592 146.79 17.7185 147.876 22.6322 148.653 26.1394 150.772 28.9798 153.566 30.7517 155.037 31.6832 156.115 33.1354 156.526 34.8251L156.9 36.3686C157.594 39.1999 160.444 40.9444 163.284 40.2502L167.412 39.2456C170.244 38.5514 171.988 35.7019 171.294 32.8614L170.92 31.3179C170.509 29.6283 170.792 27.8564 171.669 26.3494 173.294 23.5638 173.888 20.1662 173.066 16.7778 172.655 15.079 171.906 13.5172 170.901 12.1655Z" fill="#F4C43E" transform="matrix(1 0 0 1.00166 315 215.12)"/><path d="M162.152 39.3369 158.444 24.1209C158.444 24.1209 159.293 25.774 160.462 24.6963 161.631 23.6186 158.654 20.8969 159.101 22.9701 159.549 25.0434 163.202 25.6918 163.458 23.0615 163.714 20.4311 160.069 20.8877 162.188 23.3537 164.307 25.8197 165.147 22.4861 165.147 22.4861L168.856 37.7021" stroke="#FFF8E6" stroke-width="0.509727" stroke-linejoin="round" stroke-miterlimit="10" fill="none" transform="matrix(1 0 0 1.00166 315 215.12)"/><path d="M170.92 40.6247 160.827 43.0815C159.896 43.3099 158.946 42.7345 158.718 41.8029L158.718 41.8029C158.489 40.8713 159.065 39.9214 159.996 39.6931L170.089 37.2363C171.02 37.0079 171.97 37.5833 172.198 38.5149L172.198 38.5149C172.427 39.4556 171.851 40.3964 170.92 40.6247Z" fill="#E0EFF2" transform="matrix(1 0 0 1.00166 315 215.12)"/><path d="M171.258 41.9947 161.165 44.4515C160.234 44.6799 159.284 44.1045 159.056 43.1729L159.056 43.1729C158.827 42.2413 159.403 41.2914 160.334 41.0631L170.426 38.6062C171.358 38.3779 172.308 38.9533 172.536 39.8849L172.536 39.8849C172.765 40.8256 172.189 41.7755 171.258 41.9947Z" fill="#E0EFF2" transform="matrix(1 0 0 1.00166 315 215.12)"/><path d="M171.586 43.3738 161.494 45.8307C160.563 46.059 159.613 45.4836 159.384 44.552L159.384 44.552C159.156 43.6204 159.731 42.6705 160.663 42.4422L170.755 39.9854C171.687 39.757 172.637 40.3324 172.865 41.264L172.865 41.264C173.093 42.1956 172.518 43.1455 171.586 43.3738Z" fill="#E0EFF2" transform="matrix(1 0 0 1.00166 315 215.12)"/><path d="M171.924 44.7438 161.832 47.2006C160.9 47.429 159.951 46.8536 159.722 45.922L159.722 45.922C159.494 44.9904 160.069 44.0405 161.001 43.8122L171.093 41.3554C172.025 41.127 172.975 41.7024 173.203 42.634L173.203 42.634C173.431 43.5747 172.856 44.5155 171.924 44.7438Z" fill="#E0EFF2" transform="matrix(1 0 0 1.00166 315 215.12)"/><path d="M170.974 39.1268 160.088 41.7755C159.083 42.0221 158.06 41.401 157.813 40.3964L157.813 40.3964C157.567 39.3917 158.188 38.3688 159.193 38.1222L170.079 35.4735C171.084 35.2269 172.107 35.848 172.354 36.8527L172.354 36.8527C172.6 37.8573 171.979 38.8802 170.974 39.1268Z" fill="#AAB9D8" transform="matrix(1 0 0 1.00166 315 215.12)"/><path d="M164.398 14.531 164.398 14.531C163.202 14.8233 161.987 14.0835 161.695 12.887L161.421 11.7636C161.129 10.5672 161.869 9.35245 163.065 9.06932L163.065 9.06932C164.262 8.77705 165.476 9.51685 165.768 10.7133L166.042 11.8367C166.326 13.024 165.586 14.2387 164.398 14.531Z" fill="#FFE69E" transform="matrix(1 0 0 1.00166 315 215.12)"/><path d="M165.951 18.641 165.951 18.641C165.047 18.8602 164.124 18.303 163.905 17.3988L163.905 17.3988C163.686 16.4946 164.243 15.5722 165.147 15.353L165.147 15.353C166.052 15.1338 166.974 15.6909 167.193 16.5951L167.193 16.5951C167.422 17.5084 166.855 18.4218 165.951 18.641Z" fill="#FFE69E" transform="matrix(1 0 0 1.00166 315 215.12)"/><path d="M172.317 44.9082 167.093 46.1777C166.344 46.3604 165.586 45.8946 165.403 45.1548 165.403 45.1365 165.403 45.1183 165.394 45.1 164.59 45.1274 163.841 44.5794 163.65 43.7665 163.586 43.5199 163.586 43.2733 163.631 43.045 163.485 42.8532 163.376 42.6431 163.321 42.3965 163.257 42.15 163.257 41.9034 163.303 41.675 163.156 41.4832 163.047 41.2732 162.992 41.0266 162.928 40.78 162.928 40.5334 162.974 40.305 162.828 40.1132 162.718 39.9032 162.663 39.6566L162.663 39.6566C162.645 39.5744 162.636 39.4922 162.627 39.4191 162.207 39.1725 161.887 38.7615 161.759 38.2501 161.613 37.6564 161.777 37.0536 162.143 36.6061 161.887 36.3412 161.668 36.0398 161.467 35.7201 161.202 35.2726 160.992 34.7794 160.864 34.2497L160.489 32.7062C160.435 32.4961 160.38 32.286 160.307 32.0851 159.878 30.8613 159.092 29.8018 158.06 29.0072 157.886 28.8702 157.713 28.7515 157.53 28.6327 156.654 28.0756 155.85 27.418 155.128 26.6691 154.836 26.3677 154.562 26.0572 154.306 25.7284 153.786 25.0708 153.329 24.3584 152.945 23.5912 152.754 23.2076 152.58 22.8149 152.416 22.413 152.178 21.8011 151.986 21.1709 151.84 20.5133 151.776 20.2393 151.731 19.9653 151.694 19.6913 151.685 19.6182 151.676 19.5543 151.667 19.4812 151.63 19.2255 151.603 18.9606 151.585 18.7049 151.585 18.6866 151.585 18.6775 151.585 18.6592 151.566 18.3852 151.557 18.1112 151.557 17.8464 151.557 17.7824 151.557 17.7185 151.557 17.6546 151.557 17.3988 151.566 17.1522 151.585 16.8965 151.585 16.8782 151.585 16.86 151.585 16.8417 151.603 16.5677 151.63 16.3029 151.667 16.0289 151.676 15.9741 151.685 15.9193 151.694 15.8645 151.731 15.6087 151.776 15.3621 151.831 15.1155 151.831 15.0973 151.84 15.079 151.84 15.0607 151.895 14.7867 151.968 14.5219 152.041 14.257 152.05 14.2113 152.069 14.1748 152.078 14.1291 152.151 13.8734 152.233 13.6268 152.324 13.3802 152.324 13.3711 152.333 13.3619 152.333 13.3528 152.434 13.0879 152.534 12.8231 152.653 12.5674 152.662 12.54 152.681 12.5126 152.69 12.4852 152.799 12.2294 152.918 11.9828 153.046 11.7454 153.046 11.7454 153.046 11.7362 153.055 11.7362 153.192 11.4805 153.338 11.2248 153.484 10.9782 153.493 10.969 153.503 10.9599 153.503 10.9416 154.279 9.68125 155.274 8.55786 156.434 7.61713 153.503 8.60352 151.119 10.5854 149.575 13.0879 149.566 13.0971 149.557 13.1062 149.557 13.1245 149.402 13.3711 149.265 13.6268 149.128 13.8825 149.128 13.8825 149.128 13.8917 149.119 13.8917 148.991 14.1383 148.872 14.3849 148.762 14.6406 148.753 14.668 148.735 14.6954 148.726 14.7228 148.616 14.9785 148.507 15.2434 148.406 15.5083 148.406 15.5174 148.397 15.5265 148.397 15.5357 148.306 15.7823 148.224 16.0289 148.15 16.2846 148.141 16.3302 148.123 16.3668 148.114 16.4124 148.041 16.6773 147.968 16.9422 147.913 17.2162 147.913 17.2344 147.904 17.2527 147.904 17.271 147.849 17.5176 147.813 17.7733 147.767 18.0199 147.758 18.0747 147.749 18.1295 147.739 18.1843 147.703 18.4492 147.676 18.7232 147.657 18.9972 147.657 19.0154 147.657 19.0337 147.657 19.052 147.639 19.3077 147.63 19.5543 147.63 19.81 147.63 19.874 147.63 19.9379 147.63 20.0018 147.63 20.2758 147.639 20.5498 147.657 20.8147 147.657 20.8329 147.657 20.8421 147.657 20.8603 147.676 21.1161 147.703 21.3809 147.739 21.6367 147.749 21.7097 147.758 21.7737 147.767 21.8467 147.813 22.1207 147.858 22.3947 147.913 22.6687 148.059 23.3263 148.251 23.9565 148.488 24.5684 148.644 24.9703 148.817 25.363 149.018 25.7466 149.402 26.5047 149.867 27.2262 150.388 27.8838 150.644 28.2126 150.918 28.5231 151.21 28.8245 151.932 29.5735 152.735 30.2311 153.612 30.7882 153.795 30.9069 153.977 31.0257 154.142 31.1626 155.165 31.9572 155.95 33.0167 156.389 34.2406 156.462 34.4415 156.526 34.6516 156.571 34.8616L156.946 36.4051C157.074 36.9349 157.284 37.4281 157.549 37.8756 157.74 38.1953 157.969 38.4875 158.224 38.7615 157.859 39.1999 157.695 39.8027 157.841 40.4055 157.969 40.917 158.288 41.328 158.708 41.5746 158.718 41.6568 158.727 41.739 158.745 41.812L158.745 41.812C158.809 42.0586 158.919 42.2778 159.056 42.4605 159.01 42.6979 159.019 42.9354 159.074 43.182 159.138 43.4286 159.247 43.6478 159.384 43.8305 159.339 44.0679 159.348 44.3054 159.403 44.552 159.467 44.7986 159.576 45.0178 159.713 45.2005 159.667 45.4379 159.677 45.6754 159.731 45.922 159.932 46.7348 160.672 47.2737 161.476 47.2554 161.476 47.2737 161.476 47.292 161.485 47.3102 161.668 48.0592 162.426 48.5158 163.175 48.3332L171.258 46.3604C171.924 46.196 172.363 45.5749 172.317 44.9082Z" fill="#E0EFF2" transform="matrix(1 0 0 1.00166 315 215.12)"/><path d="M207.891 163.156C207.891 163.156 204.649 167.796 205.452 168.6 206.256 169.404 209.727 166.727 210.713 165.412 211.7 164.097 210.576 162.252 210.576 162.252L207.891 163.156Z" fill="#FF5D7B" transform="matrix(1 0 0 1.00166 315 215.12)"/><path d="M206 138.524C206 138.524 206.886 150.196 207.27 151.621 207.654 153.046 207.526 162.681 208.028 163.823 208.54 164.965 210.823 163.193 210.823 162.426 210.823 161.668 212.22 155.22 212.348 153.621 212.476 152.023 214.248 142.89 214.376 140.351 214.494 137.821 208.914 134.286 206 138.524Z" fill="#FACFC9" transform="matrix(1 0 0 1.00166 315 215.12)"/><path d="M231.884 152.991C231.884 152.991 234.304 158.106 235.41 157.804 236.515 157.503 235.903 153.165 235.254 151.648 234.606 150.141 232.441 150.196 232.441 150.196L231.884 152.991Z" fill="#FF5D7B" transform="matrix(1 0 0 1.00166 315 215.12)"/><path d="M222.997 133.574C222.952 137.766 222.97 140.469 224.331 144.333 224.97 146.15 232.14 149.603 233.528 151.247 234.916 152.891 233.345 153.621 231.309 153.21 229.272 152.799 222.952 149.703 220.678 148.096 218.86 146.808 215.472 141.629 215.526 137.2 215.572 132.761 219.819 131.227 222.997 133.574Z" fill="#FACFC9" transform="matrix(1 0 0 1.00166 315 215.12)"/><path d="M204.073 102.046C204.073 102.046 195.552 100.247 194.438 98.8309 193.324 97.4244 188.291 90.8393 186.665 90.958 185.049 91.0768 184.574 91.9718 184.592 93.0404 184.61 94.109 191.369 102.311 192.045 103.005 192.721 103.699 201.717 109.362 202.959 108.969 204.201 108.576 205.918 102.466 204.073 102.046Z" fill="#174859" transform="matrix(1 0 0 1.00166 315 215.12)"/><path d="M227.61 122.057C227.61 122.057 226.724 124.998 227.738 125.518 228.761 126.048 229.272 125.463 229.272 125.463 229.272 125.463 230.952 126.934 231.564 125.628 232.176 124.322 231.446 121.427 229.098 120.952 229.108 120.952 227.865 120.952 227.61 122.057Z" fill="#FACFC9" transform="matrix(1 0 0 1.00166 315 215.12)"/><path d="M213.325 107.845C213.325 107.845 221.271 111.417 222.057 113.024 222.842 114.641 226.368 122.139 227.984 122.367 229.592 122.596 230.24 121.819 230.45 120.769 230.66 119.719 225.792 110.275 225.281 109.453 224.769 108.631 217.18 101.187 215.883 101.315 214.586 101.443 211.608 107.051 213.325 107.845Z" fill="#174859" transform="matrix(1 0 0 1.00166 315 215.12)"/><path d="M201.443 103.653C201.443 103.653 201.991 114.75 203.799 116.906 203.799 116.906 204.512 118.504 204.53 122.669 204.548 126.833 202.356 133.839 204.786 140.926 204.786 140.926 225.683 142.533 225.765 135.117 225.82 130.35 222.632 124.121 219.783 120.659 217.344 117.691 218.595 116.622 217.791 112.978 217.791 112.96 217.782 112.942 217.782 112.924 217.371 110.996 217.015 102.831 216.376 101.781 215.727 100.731 213.134 100.42 213.134 100.42 213.134 100.42 211.216 106.503 209.288 106.402 207.361 106.311 203.945 101.58 203.945 101.58 203.945 101.58 201.918 101.991 201.443 103.653Z" fill="#174859" transform="matrix(1 0 0 1.00166 315 215.12)"/><path d="M186.309 91.159C186.309 91.159 187.46 87.8071 186.309 87.1586 185.158 86.5101 184.537 87.1586 184.537 87.1586 184.537 87.1586 182.665 85.3868 181.907 86.8663 181.149 88.3459 181.861 91.7161 184.537 92.3646 184.537 92.3646 185.971 92.4285 186.309 91.159Z" fill="#FACFC9" transform="matrix(1 0 0 1.00166 315 215.12)"/><path d="M207.553 101.388 207.553 99.5981C207.553 99.5981 203.754 99.452 203.525 96.7029 203.306 93.9537 203.525 95.3146 203.525 95.3146 203.525 95.3146 202.183 94.8397 202.183 94.3739 202.183 93.9081 203.845 92.4924 203.845 92.4924 203.845 92.4924 204.713 86.9668 209.024 86.7476 213.334 86.5284 215.125 90.1634 214.969 93.1409 214.823 96.1183 212.668 98.8674 211.773 99.0136 210.878 99.1597 211.471 101.397 211.471 101.397 211.471 101.397 208.823 103.388 207.553 101.388Z" fill="#FACFC9" transform="matrix(1 0 0 1.00166 315 215.12)"/><path d="M208.293 84.5008C208.293 84.5008 201.781 85.6425 203.334 88.4464 204.886 91.2503 209.425 91.4512 209.425 91.4512 209.425 91.4512 209.562 94.0451 211.17 94.7757 211.17 94.7757 212.622 98.6117 209.425 102.658 206.229 106.704 215.919 108.366 217.718 99.1323 219.518 89.8986 216.193 86.6563 213.289 85.9987 210.384 85.332 209.763 85.9987 209.763 85.9987 209.763 85.9987 209.151 84.309 208.293 84.5008Z" fill="#FF5D7B" transform="matrix(1 0 0 1.00166 315 215.12)"/><path d="M165.677 47.7212C165.677 47.7212 168.335 81.4321 183.98 88.7021 199.625 95.9722 202.429 106.896 193.04 111.955" stroke="#174859" stroke-width="0.745273" stroke-miterlimit="10" fill="none" transform="matrix(1 0 0 1.00166 315 215.12)"/><path d="M156.854 156.306C156.224 156.918 155.841 157.74 155.704 158.617 155.284 161.394 154.069 169.111 153.402 169.23 152.589 169.376 143.1 173.587 143.1 173.833 143.1 174.08 143.328 176.345 146.863 175.596 150.397 174.847 156.845 172.271 157.32 171.641 157.804 171.011 159.804 161.339 159.457 159.33 159.174 157.613 158.553 154.662 156.854 156.306Z" fill="#CC3853" transform="matrix(1 0 0 1.00166 315 215.12)"/><path d="M141.273 191.935C141.273 191.935 140.661 195.205 140.022 195.689 139.383 196.173 137.711 195.598 137.647 194.374 137.583 193.15 138.871 189.433 138.871 189.433 138.871 189.433 140.734 189.424 141.273 191.935Z" fill="#FACFC9" transform="matrix(1 0 0 1.00166 315 215.12)"/><path d="M159.43 174.208C159.43 174.208 142.561 173.331 141.1 175.55 139.647 177.77 139.812 180.117 146.324 179.916 152.827 179.715 159.932 180.811 160.791 178.482 161.649 176.144 159.43 174.208 159.43 174.208Z" fill="#5384C2" transform="matrix(1 0 0 1.00166 315 215.12)"/><path d="M142.296 175.386C142.296 175.386 141.173 174.993 140.433 177.468 139.684 179.952 136.98 191.807 137.218 192.063 137.455 192.319 140.378 193.78 142.296 193.515 142.296 193.515 144.817 182.473 145.246 180.592 145.675 178.71 144.835 175.057 142.296 175.386Z" fill="#5384C2" transform="matrix(1 0 0 1.00166 315 215.12)"/><path d="M140.798 194.648C140.798 194.648 140.972 196.593 139.291 198.292 137.611 199.991 129.674 195.004 129.354 192.447 129.035 189.889 137.41 192.849 137.41 192.849 137.41 192.849 138.487 194.666 140.798 194.648Z" fill="#FF5D7B" transform="matrix(1 0 0 1.00166 315 215.12)"/><path d="M135.081 193.789C132.186 191.406 129.93 191.616 129.756 191.652 129.464 191.817 129.309 192.072 129.363 192.465 129.665 194.84 136.515 199.297 138.844 198.566 140.058 197.57 137.985 196.182 135.081 193.789Z" fill="#E03D5B" transform="matrix(1 0 0 1.00166 315 215.12)"/><path d="M162.873 153.512C166.152 152.607 169.467 154.9 169.815 158.288 170.436 164.462 170.828 174.883 166.947 178.336 161.311 183.35 154.379 181.752 154.379 181.752 154.379 181.752 156.973 160.398 156.845 157.119 156.809 156.16 158.9 154.608 162.873 153.512Z" fill="#FF5D7B" transform="matrix(1 0 0 1.00166 315 215.12)"/><path d="M149.027 195.351C149.027 195.351 148.415 198.621 147.776 199.105 147.137 199.589 145.465 199.014 145.401 197.79 145.337 196.566 146.625 192.849 146.625 192.849 146.625 192.849 148.488 192.849 149.027 195.351Z" fill="#FACFC9" transform="matrix(1 0 0 1.00166 315 215.12)"/><path d="M167.138 177.505C167.138 177.505 167.668 183.898 160.891 183.642 154.114 183.387 148.287 183.761 148.287 182.418 148.287 181.076 146.927 177.879 154.114 176.993 161.302 176.107 167.138 177.505 167.138 177.505Z" fill="#66A1ED" transform="matrix(1 0 0 1.00166 315 215.12)"/><path d="M150.05 178.089C150.05 178.089 148.927 177.697 148.187 180.172 147.438 182.656 144.735 194.511 144.972 194.767 145.21 195.022 148.132 196.474 150.05 196.219 150.05 196.219 152.571 185.177 153 183.295 153.429 181.423 152.589 177.76 150.05 178.089Z" fill="#66A1ED" transform="matrix(1 0 0 1.00166 315 215.12)"/><path d="M148.662 198.182C148.662 198.182 148.835 200.128 147.155 201.827 145.474 203.525 137.538 198.539 137.218 195.981 136.898 193.424 145.273 196.383 145.273 196.383 145.273 196.383 146.351 198.21 148.662 198.182Z" fill="#FF5D7B" transform="matrix(1 0 0 1.00166 315 215.12)"/><path d="M142.944 197.324C140.049 194.94 137.793 195.15 137.62 195.187 137.328 195.351 137.172 195.607 137.227 196 137.528 198.374 144.378 202.831 146.707 202.101 147.922 201.105 145.849 199.717 142.944 197.324Z" fill="#E03D5B" transform="matrix(1 0 0 1.00166 315 215.12)"/><path d="M160.453 155.603 159.622 153.557C159.622 153.557 155.21 155.156 153.685 152.114 152.151 149.082 152.096 147.155 152.096 147.155 152.096 147.155 150.516 140.451 155.338 138.195 160.161 135.939 163.887 139.273 165.093 142.734 166.307 146.196 165.12 150.342 164.17 150.918 163.22 151.502 164.937 153.786 164.937 153.786 164.937 153.786 162.828 157.293 160.453 155.603Z" fill="#FACFC9" transform="matrix(1 0 0 1.00166 315 215.12)"/><path d="M159.686 141.922C159.686 141.922 154.16 145.255 150.89 144.059 147.621 142.862 147.94 139.346 149.447 138.405 150.954 137.465 151.457 138.405 151.457 138.405 151.457 138.405 153.238 137.081 153.722 137.985 153.722 137.985 158.745 136.076 159.686 136.524 160.626 136.971 160.626 136.962 160.626 136.962 160.626 136.962 159.43 135.894 159.996 135.766 160.563 135.638 161.311 136.524 161.311 136.524 161.311 136.524 163.449 136.396 163.257 136.834 163.065 137.273 162.28 137.455 162.28 137.455 162.28 137.455 165.239 138.844 165.595 143.374 165.951 147.895 165.595 148.772 165.595 148.772 165.595 148.772 165.476 153.064 163.896 151.703 162.316 150.342 164.006 148.333 164.006 147.895 164.006 147.456 164.636 145.447 163.814 144.689 163.001 143.931 162.27 145.319 162.27 145.319 162.27 145.319 162.992 147.328 162.681 147.52 162.371 147.712 161.421 147.392 161.302 146.762 161.174 146.132 161.111 144.817 160.992 144.561 160.864 144.305 159.731 143.803 159.613 143.492 159.494 143.173 159.686 141.922 159.686 141.922Z" fill="#174859" transform="matrix(1 0 0 1.00166 315 215.12)"/><path d="M154.388 178.92 164.472 175.742 153.366 172.892 140.424 175.422Z" fill="#AAB9D8" transform="matrix(1 0 0 1.00166 315 215.12)"/><path d="M166.6 156.06C166.6 156.06 164.965 167.513 164.152 167.65 163.339 167.796 153.85 172.007 153.85 172.253 153.85 172.5 154.078 174.765 157.613 174.016 161.138 173.258 167.595 170.682 168.07 170.061 168.554 169.431 170.554 159.759 170.207 157.749 169.86 155.74 166.764 154.918 166.6 156.06Z" fill="#E03D5B" transform="matrix(1 0 0 1.00166 315 215.12)"/><path d="M154.379 172.381C154.379 172.381 151.21 172.244 150.68 173.413 150.141 174.582 150.927 175.788 152.534 175.742 154.142 175.696 156.243 174.272 156.051 173.769 155.859 173.267 154.918 172.509 154.379 172.381Z" fill="#FACFC9" transform="matrix(1 0 0 1.00166 315 215.12)"/><path d="M138.131 163.275 153.411 166.618 154.388 178.92 140.424 175.422Z" fill="#E0EFF2" transform="matrix(1 0 0 1.00166 315 215.12)"/><path d="M36.9166 224.559 34.9895 226.24C34.9895 226.24 32.1582 226.313 31.1626 226.596 30.1671 226.879 28.3313 227.939 28.6145 228.295 28.6145 228.295 27.2719 229.71 27.6189 229.994 27.6189 229.994 27.829 230.989 28.3313 230.989 28.3313 230.989 28.7606 231.701 29.6739 231.555 29.6739 231.555 31.117 230.496 32.2404 230.496 33.3546 230.496 33.994 230.569 33.994 230.569 33.994 230.569 32.3682 230.889 31.8659 231.583 31.3727 232.268 31.3727 232.697 31.6558 232.843 31.939 232.98 33.1446 231.994 34.131 231.994 35.1265 231.994 36.9257 230.788 36.9075 229.729 36.8892 228.669 39.0812 227.107 39.6474 226.258 40.232 225.39 37.9487 223.655 36.9166 224.559Z" fill="#FACFC9" transform="matrix(1 0 0 1.00166 315 215.12)"/><path d="M72.0157 217.892C72.0157 217.892 74.162 225.235 75.3858 225.573 76.6097 225.911 80.2995 216.211 80.2995 216.211 80.2995 216.211 81.1124 214.96 84.1081 216.211 87.1038 217.463 77.8336 232.66 76.4727 232.688 75.1118 232.715 67.7505 229.153 68.3076 226.441 68.8738 223.728 70.1342 217.91 72.0157 217.892Z" fill="#E8A423" transform="matrix(1 0 0 1.00166 315 215.12)"/><path d="M60.2794 277.377C60.2794 277.377 59.8593 280.217 60.5717 281.249 61.2841 282.281 62.2796 281.743 62.5993 280.692 62.919 279.633 62.8916 276.655 62.8916 276.655 62.8916 276.655 61.0649 276.107 60.2794 277.377Z" fill="#FACFC9" transform="matrix(1 0 0 1.00166 315 215.12)"/><path d="M63.2295 279.907C63.6679 279.733 64.1428 279.697 64.5812 279.861 65.9969 280.382 68.6729 281.341 69.6867 281.542 71.1023 281.825 73.477 282.893 73.5866 284.254 73.6962 285.606 64.5538 284.985 63.1656 284.93 61.7773 284.875 59.631 285.104 59.5123 284.199 59.4392 283.587 59.4666 281.651 59.4849 280.446 59.494 279.952 59.9598 279.596 60.4438 279.724 61.3024 279.943 62.5354 280.181 63.2295 279.907Z" fill="#5384C2" transform="matrix(1 0 0 1.00166 315 215.12)"/><path d="M42.1682 276.655C42.1682 276.655 41.0083 279.286 41.4193 280.473 41.8303 281.66 42.9354 281.405 43.5291 280.473 44.1227 279.541 44.8808 276.655 44.8808 276.655 44.8808 276.655 43.2733 275.641 42.1682 276.655Z" fill="#FACFC9" transform="matrix(1 0 0 1.00166 315 215.12)"/><path d="M43.6935 279.624C44.1319 279.45 44.6068 279.414 45.0452 279.578 46.4608 280.099 49.1369 281.058 50.1507 281.258 51.5663 281.542 53.941 282.619 54.0506 283.971 54.1602 285.323 45.0178 284.702 43.6295 284.647 42.2413 284.592 40.095 284.82 39.9762 283.916 39.9032 283.304 39.9306 281.368 39.9488 280.162 39.958 279.669 40.4238 279.313 40.9078 279.441 41.7755 279.66 43.0085 279.888 43.6935 279.624Z" fill="#5384C2" transform="matrix(1 0 0 1.00166 315 215.12)"/><path d="M47.8308 234.533C47.8308 234.533 48.6437 239.73 50.79 241.702 50.79 241.702 63.2112 255.366 63.8506 258.005 64.4899 260.645 59.8228 277.916 59.7771 278.098 59.7315 278.281 63.2021 278.473 63.5674 276.838 63.9236 275.203 69.5954 257.421 69.2026 256.115 68.8099 254.809 58.535 239.382 58.535 239.382 58.535 239.382 59.0373 234.368 58.0601 232.925 57.0645 231.482 47.8308 234.533 47.8308 234.533Z" fill="#E03D5B" transform="matrix(1 0 0 1.00166 315 215.12)"/><path d="M58.4893 233.428C58.4893 233.428 47.913 234.012 47.8308 235.62L50.0137 262.544 41.4193 277.267C41.4193 277.267 42.7619 278.875 44.7986 278.098 46.8536 275.441 55.3658 264.855 56.1056 262.773 56.8453 260.699 55.0644 242.369 55.0644 242.369 55.0644 242.369 58.535 240.268 58.5989 238.497 58.6629 236.734 58.4893 233.428 58.4893 233.428Z" fill="#FF5D7B" transform="matrix(1 0 0 1.00166 315 215.12)"/><path d="M66.7001 212.841C66.7001 212.841 59.0282 210.604 57.9231 212.321 56.8271 214.038 49.0638 233.647 50.2146 235.674 51.3654 237.693 57.302 241.154 58.7725 240.067 60.2429 238.981 71.4677 221.682 72.0887 220.084 72.7098 218.476 71.2393 215.6 69.8328 214.75 68.4354 213.892 66.7001 212.841 66.7001 212.841Z" fill="#ABB5F3" transform="matrix(1 0 0 1.00166 315 215.12)"/><path d="M60.7087 226.587C60.7087 226.587 56.5714 237.757 54.3794 239.803 54.3794 239.803 49.9497 240.287 47.2372 235.126 47.2372 235.126 52.0504 223.92 52.6349 222.294 53.2194 220.668 57.0189 212.266 57.0189 212.266 57.0189 212.266 57.7495 209.462 66.7001 212.841L60.7087 226.587Z" fill="#F4B031" transform="matrix(1 0 0 1.00166 315 215.12)"/><path d="M61.759 229.135C61.759 229.135 58.6629 239.547 58.7725 240.058 58.8821 240.579 59.4301 241.565 60.5169 242.378 61.6129 243.191 68.3167 226.441 68.3167 226.441 68.3167 226.441 72.7555 220.888 72.4449 219.627 72.1435 218.367 72.2988 216.23 72.2988 216.23 72.2988 216.23 70.0794 215.81 68.2802 218.988 66.4901 222.166 61.759 229.135 61.759 229.135Z" fill="#F4B031" transform="matrix(1 0 0 1.00166 315 215.12)"/><path d="M70.2256 216.074 71.0932 213.946C71.0932 213.946 75.669 215.6 77.2582 212.449 78.8474 209.298 78.9021 207.297 78.9021 207.297 78.9021 207.297 80.537 200.338 75.5411 197.991 70.5361 195.652 66.6727 199.105 65.4123 202.703 64.1519 206.302 65.3849 210.594 66.3713 211.197 67.3577 211.8 65.5767 214.166 65.5767 214.166 65.5767 214.166 67.7687 217.828 70.2256 216.074Z" fill="#FACFC9" transform="matrix(1 0 0 1.00166 315 215.12)"/><path d="M71.0293 201.872C71.0293 201.872 76.765 205.325 80.1534 204.092 83.5418 202.849 83.213 199.205 81.6513 198.228 80.0895 197.251 79.5689 198.228 79.5689 198.228 79.5689 198.228 77.7148 196.849 77.2216 197.79 77.2216 197.79 72.0065 195.808 71.0293 196.264 70.052 196.721 70.052 196.721 70.052 196.721 70.052 196.721 71.2942 195.616 70.7005 195.479 70.116 195.351 69.3305 196.264 69.3305 196.264 69.3305 196.264 67.1111 196.137 67.312 196.593 67.5039 197.05 68.3258 197.233 68.3258 197.233 68.3258 197.233 65.2479 198.676 64.8826 203.37 64.5081 208.065 64.8826 208.978 64.8826 208.978 64.8826 208.978 65.0013 213.426 66.6453 212.019 68.2893 210.613 66.5266 208.521 66.5266 208.065 66.5266 207.608 65.8781 205.526 66.7184 204.74 67.5678 203.955 68.3167 205.389 68.3167 205.389 68.3167 205.389 67.5678 207.471 67.8875 207.672 68.2162 207.864 69.1935 207.535 69.3214 206.886 69.4492 206.238 69.5132 204.868 69.6502 204.603 69.778 204.338 70.9562 203.818 71.0841 203.498 71.2211 203.178 71.0293 201.872 71.0293 201.872Z" fill="#174859" transform="matrix(1 0 0 1.00166 315 215.12)"/><path d="M67.2207 211.974C67.2207 211.974 63.5948 211.764 63.4487 212.074 63.3026 212.375 64.3803 214.284 64.3803 214.284 64.3803 214.284 60.1333 220.248 60.3616 223.29 60.59 226.331 60.3251 228.021 60.3251 228.021 60.3251 228.021 67.5221 213.079 67.2207 211.974Z" fill="#E8A423" transform="matrix(1 0 0 1.00166 315 215.12)"/><path d="M70.7005 214.138C70.7005 214.138 72.9929 216.951 72.8377 217.243 72.6733 217.545 70.5087 217.791 70.5087 217.791 70.5087 217.791 68.1706 224.733 65.5767 226.331 62.9738 227.929 61.7682 229.144 61.7682 229.144 61.7682 229.144 69.6319 214.549 70.7005 214.138Z" fill="#E8A423" transform="matrix(1 0 0 1.00166 315 215.12)"/><path d="M57.9048 211.7C57.9048 211.7 45.9768 214.248 44.8534 215.097 43.73 215.956 35.1539 224.221 35.1539 224.221 35.1539 224.221 36.1768 228.13 39.136 227.454 42.0951 226.779 45.3466 220.248 46.5248 220.248 47.703 220.248 57.5029 217.39 58.9369 216.878 60.3708 216.358 59.9141 211.261 57.9048 211.7Z" fill="#F4C43E" transform="matrix(1 0 0 1.00166 315 215.12)"/><path d="M81.496 217.691 81.9892 215.901C81.9892 215.901 80.7836 214.686 80.7836 214.23 80.7836 213.773 81.3864 211.435 81.9892 211.435 82.592 211.435 85.3959 209.846 85.9256 211.06 86.4553 212.266 85.9256 212.266 85.9256 212.266 85.9256 212.266 86.8481 213.398 86.1631 214.23 86.1631 214.23 86.0809 215.444 85.8526 215.901 85.6242 216.348 84.2634 216.65 84.2634 216.65L83.7884 218.221C83.7793 218.221 81.907 219.655 81.496 217.691Z" fill="#FACFC9" transform="matrix(1 0 0 1.00166 315 215.12)"/><path d="M83.5966 212.302 83.5966 212.302C83.277 212.302 83.0121 212.038 83.0121 211.718L83.0121 207.005C83.0121 206.685 83.277 206.421 83.5966 206.421L83.5966 206.421C83.9163 206.421 84.1812 206.685 84.1812 207.005L84.1812 211.718C84.1812 212.038 83.9163 212.302 83.5966 212.302Z" fill="#174859" transform="matrix(1 0 0 1.00166 315 215.12)"/><path d="M86.7385 206.667C86.7385 208.402 85.3318 209.809 83.5966 209.809 81.8615 209.809 80.4548 208.402 80.4548 206.667 80.4548 204.932 81.8614 203.525 83.5966 203.525 85.3318 203.525 86.7385 204.932 86.7385 206.667Z" fill="#174859" transform="matrix(1 0 0 1.00166 315 215.12)"/><path d="M85.816 206.667C85.816 207.893 84.8224 208.887 83.5966 208.887 82.3709 208.887 81.3773 207.893 81.3773 206.667 81.3773 205.441 82.3709 204.448 83.5966 204.448 84.8224 204.448 85.816 205.441 85.816 206.667Z" fill="#C6E6FD" transform="matrix(1 0 0 1.00166 315 215.12)"/><path d="M293.095 218.961C293.095 218.961 295.168 227.153 297.26 228.477 299.351 229.811 306.558 225.034 306.558 225.034 306.558 225.034 306.905 222.541 307.571 222.203 308.238 221.874 309.316 222.87 309.316 222.87 309.316 222.87 313.06 220.038 314.056 219.956 315.051 219.874 312.101 222.705 312.101 222.705 312.101 222.705 312.229 225.409 311.225 226.139 310.229 226.87 307.736 227.281 307.736 227.281 307.736 227.281 301.571 233.647 297.169 233.391 292.775 233.144 286.939 222.367 286.939 222.367 286.939 222.367 289.935 217.791 293.095 218.961Z" fill="#E0A880" transform="matrix(1 0 0 1.00166 315 215.12)"/><path d="M303.626 265.905 304.932 268.773 308.53 267.869 305.58 263.777C305.589 263.777 302.32 263.038 303.626 265.905Z" fill="#F8C29C" transform="matrix(1 0 0 1.00166 315 215.12)"/><path d="M285.076 235.994C285.076 235.994 295.844 238.688 299.68 244.397 303.516 250.105 308.165 264.398 308.165 264.398L302.703 267.349 293.205 250.078 280.674 243.1C280.683 243.1 281.332 234.788 285.076 235.994Z" fill="#E8A423" transform="matrix(1 0 0 1.00166 315 215.12)"/><path d="M306.028 224.212 305.242 227.82 312.978 222.97 313.599 219.426Z" fill="#FFFFFF" transform="matrix(1 0 0 1.00166 315 215.12)"/><path d="M285.624 216.86C285.624 216.86 288.885 212.357 291.597 214.522 294.31 216.677 295.223 220.394 295.223 220.394L288.611 225.199C288.611 225.199 284.802 224.285 285.624 216.86Z" fill="#E03D5B" transform="matrix(1 0 0 1.00166 315 215.12)"/><path d="M289.908 210.403C289.908 210.403 291.771 210.311 291.899 209.005 292.017 207.699 292.73 200.74 299.982 202.046 305.215 202.986 305.251 207.845 305.251 209.051 305.251 210.257 303.443 214.741 303.681 215.764 303.918 216.787 301.744 215.764 301.744 215.764 301.744 215.764 299.534 218.659 298.813 218.86 298.091 219.061 294.429 216.485 294.31 215.198 294.118 213.033 292.017 216.294 291.049 215.992 290.081 215.682 288.401 212.375 289.908 210.403Z" fill="#F8C29C" transform="matrix(1 0 0 1.00166 315 215.12)"/><path d="M289.908 210.403C289.908 210.403 276.728 211.124 274.189 223.947 271.65 236.77 274.189 244.543 274.189 244.543 274.189 244.543 281.916 245.045 285.542 243.894 289.168 242.734 283.323 233.629 290.2 227.107 295.698 221.901 289.908 210.403 289.908 210.403Z" fill="#FF5D7B" transform="matrix(1 0 0 1.00166 315 215.12)"/><path d="M291.305 221.49C291.305 221.49 293.378 229.683 295.47 231.007 297.561 232.341 304.767 227.564 304.767 227.564 304.767 227.564 305.115 225.071 305.781 224.733 306.448 224.404 307.526 225.399 307.526 225.399 307.526 225.399 311.27 222.568 312.266 222.486 313.261 222.404 310.311 225.235 310.311 225.235 310.311 225.235 310.439 227.939 309.435 228.669 308.439 229.4 305.946 229.811 305.946 229.811 305.946 229.811 299.781 236.177 295.378 235.921 290.985 235.674 285.149 224.897 285.149 224.897 285.149 224.897 288.145 220.321 291.305 221.49Z" fill="#F8C29C" transform="matrix(1 0 0 1.00166 315 215.12)"/><path d="M282.254 218.202C282.254 218.202 285.515 213.7 288.227 215.864 290.94 218.02 291.853 221.737 291.853 221.737L285.241 226.541C285.241 226.532 281.441 225.628 282.254 218.202Z" fill="#E03D5B" transform="matrix(1 0 0 1.00166 315 215.12)"/><path d="M297.808 268.536 299.114 271.404 302.712 270.499 299.762 266.408C299.772 266.408 296.493 265.677 297.808 268.536Z" fill="#F8C29C" transform="matrix(1 0 0 1.00166 315 215.12)"/><path d="M279.258 238.634C279.258 238.634 290.026 241.328 293.862 247.036 297.698 252.744 302.347 267.038 302.347 267.038L296.885 269.988 287.387 252.717 274.856 245.739C274.856 245.739 273.395 243.94 273.797 242.342 274.372 240.104 277.075 237.93 279.258 238.634Z" fill="#F4C43E" transform="matrix(1 0 0 1.00166 315 215.12)"/><path d="M298.639 270.883C298.639 270.883 301.096 271.075 302.722 270.088 302.722 270.088 309.197 273.888 310.594 274.418 311.992 274.947 311.855 276.674 310.594 276.747 309.334 276.811 299.187 275.815 298.648 275.221 298.091 274.609 297.854 271.541 298.639 270.883Z" fill="#164454" transform="matrix(1 0 0 1.00166 315 215.12)"/><path d="M304.338 267.577C304.338 267.577 306.795 267.769 308.421 266.782 308.421 266.782 314.896 270.582 316.294 271.111 317.691 271.641 317.554 273.367 316.294 273.44 315.033 273.504 304.886 272.509 304.347 271.915 303.79 271.312 303.553 268.234 304.338 267.577Z" fill="#164454" transform="matrix(1 0 0 1.00166 315 215.12)"/><path d="M291.268 209.992C291.268 209.992 290.392 210.731 290.921 207.635 291.451 204.53 294.109 201.014 294.84 201.078 294.84 201.078 293.351 200.374 294.164 200.091 294.977 199.808 295.835 200.31 295.835 200.31 295.835 200.31 297.488 198.767 297.835 199.443 298.182 200.11 297.278 200.594 297.278 200.594 297.278 200.594 299.753 199.406 301.753 201.397 303.745 203.388 306.402 204.119 306.402 204.119 306.402 204.119 308.348 203.79 308.53 205.845 308.713 207.9 306.868 207.042 306.868 207.042 306.868 207.042 309.59 208.695 307.736 210.065 305.873 211.435 305.142 210.923 303.681 210.476 302.219 210.037 301.817 209.179 301.087 209.042 300.356 208.905 298.813 209.042 298.813 209.042 298.813 209.042 297.854 211.553 297.278 211.426 296.703 211.289 296.173 211.17 296.502 210.366 296.831 209.562 297.589 208.439 297.278 207.9 296.968 207.37 294.62 207.416 294.429 209.489 294.246 211.553 292.392 212.494 291.853 212.092 291.314 211.7 291.268 209.992 291.268 209.992Z" fill="#164454" transform="matrix(1 0 0 1.00166 315 215.12)"/></g></svg>