<svg width="524" height="464" xmlns="http://www.w3.org/2000/svg" xmlns:xlink="http://www.w3.org/1999/xlink" xml:space="preserve" overflow="hidden"><defs><clipPath id="clip0"><rect x="303" y="111" width="524" height="464"/></clipPath></defs><g clip-path="url(#clip0)" transform="translate(-303 -111)"><path d="M762.286 174.065C774.343 172.626 750.698 193.305 744.784 199.379 746.472 202.675 747.841 207.79 748.89 209.278 749.569 212.855 760.638 231.545 751.507 229.128 743.146 225.512 735.294 220.756 727.062 216.85 722.587 220.956 717.892 224.822 713.097 228.558 711.069 229.817 709.181 232.904 706.504 232.115 703.207 231.525 707.593 210.787 708.012 203.714 700.32 200.627 692.418 198.01 684.546 195.523 671.08 189.169 710.819 186.662 713.936 185.273 721.568 150.799 720.869 138.162 736.223 180.438 744.924 178.28 753.735 176.662 762.286 174.065Z" fill="#FBCE03" fill-rule="evenodd"/><path d="M824.581 134.686C826.859 134.905 827.818 137.592 825.331 138.412 822.264 139.66 818.818 140.879 816.909 143.756 815.151 146.553 814.652 149.94 814.302 153.176 814.492 155.334 813.583 158.89 811.075 156.333 809.367 151.678 807.709 146.703 803.843 143.337 801.336 140.619 791.865 137.583 798.988 134.116 804.402 131.199 806.84 124.956 808.468 119.361 808.748 117.134 811.955 117.044 812.004 119.421 812.364 126.694 817.739 132.638 824.581 134.686Z" fill="#BAAEA0" fill-rule="evenodd"/><path d="M793.504 239.867C797.04 246.59 806.73 248.428 803.234 251.505 799.677 253.443 795.841 255.53 794.053 259.386 792.864 261.894 791.985 264.531 791.316 267.218 790.647 268.847 791.076 272.213 788.659 272.173 787.01 271.934 787.14 269.926 786.9 268.667 786.221 262.014 783.764 254.761 776.351 253.423 774.753 252.983 771.766 252.244 773.035 250.006 779.059 245.681 786.151 240.796 787.32 232.824 787.27 232.724 787.22 232.614 787.19 232.504 787.08 232.095 787.16 231.625 787.39 231.256 787.31 229.258 790.467 229.188 790.457 231.216 790.647 234.292 791.875 237.269 793.504 239.867Z" fill="#BAAEA0" fill-rule="evenodd"/><path d="M477.291 365.796C479.718 399.072 474.314 432.138 470.897 465.154 466.602 492.355 465.913 522.145 448.99 545.131 439.03 560.895 425.984 567.328 407.353 565.02 385.036 563.412 365.167 551.105 349.873 535.381 340.622 524.852 336.207 510.776 333.639 497.23 329.863 469.809 339.653 420.959 358.424 397.983 356.316 395.676 354.678 392.968 354.008 389.941 354.288 384.008 360.631 380.321 363.898 375.816 374.867 364.038 386.884 352.97 400.41 344.179 419.271 331.022 443.086 326.078 465.353 332.611 473.635 334.159 474.064 339.314 471.187 340.612 472.646 342.201 473.924 343.929 474.983 345.777 477.56 352.111 476.971 359.113 477.291 365.796Z" fill="#FBCE03" fill-rule="evenodd"/><path d="M357.734 394.796C359.023 397.024 355.407 398.363 354.068 399.581 349.962 401.939 345.177 403.388 340.412 403.148 338.754 402.988 337.016 402.978 335.278 402.898 337.286 404.876 338.874 407.523 338.514 410.201 336.257 415.135 329.424 413.257 326.946 409.451 326.267 413.107 325.038 419.351 320.113 418.652 316.018 417.483 314.969 412.428 316.467 408.872 304.849 413.797 296.328 402.329 310.933 398.922 302.681 390.88 311.932 383.089 318.365 392.429 320.713 381.38 328.645 381.081 327.905 393.188 338.584 385.766 344.878 394.357 335.557 399.851 342.75 400.461 350.182 399.811 355.557 394.517 356.196 393.967 357.235 394.167 357.734 394.796Z" fill="#FF922C" fill-rule="evenodd"/><path d="M320.293 406.654C315.019 403.497 319.234 394.457 324.978 397.893 330.473 400.96 325.458 408.792 320.293 406.654Z" fill="#FFCD9E" fill-rule="evenodd"/><path d="M601.992 232.095C612.731 235.231 615.318 248.578 613.33 258.258 611.602 267.778 605.128 275.82 597.956 281.993 597.357 282.353 596.577 282.932 595.668 283.611 595.528 284.401 595.369 285.19 595.209 285.969 588.526 316.607 562.922 337.506 533.662 346.396 533.622 348.095 533.433 349.793 533.423 351.052 532.584 364.977 510.696 365.736 500.117 365.177 491.616 364.018 475.892 363.409 474.923 352.45 475.023 351.491 475.033 350.322 475.113 349.144 464.414 347.405 454.005 344.209 444.704 338.455 435.294 332.771 425.624 326.297 420.37 316.328 420.18 315.968 419.98 315.618 419.79 315.259 419.391 315.209 419.001 315.159 418.611 315.109 405.365 311.612 390.83 303.741 385.216 290.644 382.209 283.072 385.226 273.882 391.45 268.827 395.326 265.55 400.181 265.26 404.876 266.419 406.604 264.891 408.712 263.422 409.711 261.754 420.29 248.618 432.557 237.06 445.584 226.371 456.302 217.63 467.201 208.629 480.168 203.414 498.719 197.061 519.637 195.612 538.467 201.586 551.884 205.702 565.509 210.667 575.949 220.387 578.226 223.494 587.906 229.767 587.557 234.093 587.756 234.083 587.976 234.083 588.196 234.093 588.386 234.133 588.566 234.173 588.745 234.233 592.292 231.835 597.486 230.406 601.992 232.095Z" fill="#FFCAAB" fill-rule="evenodd"/><path d="M494.193 363.908C493.804 363.868 493.384 363.888 492.965 363.898 492.055 363.928 491.126 363.968 490.417 363.479 487.46 363.169 484.423 363.119 481.546 362.35 480.328 361.94 479.818 360.362 481.127 359.713 478.969 359.473 476.811 359.183 474.703 358.704 473.555 358.614 472.106 357.555 472.885 356.326 472.566 356.256 472.246 356.166 471.926 356.076 470.738 355.757 470.747 354.059 471.737 353.499 472.486 353.08 473.385 353.209 474.214 353.12 474.214 353.08 474.204 353.03 474.214 352.98 474.224 352.54 474.464 352.141 474.823 351.911 473.744 351.721 472.656 351.541 471.567 351.411 471.377 351.391 471.187 351.381 470.997 351.371 470.348 351.691 469.818 351.601 469.469 351.321 469.239 351.321 469.009 351.331 468.77 351.341 467.101 351.511 466.772 349.024 468.47 348.784 469.179 348.714 469.888 348.704 470.608 348.744 470.817 348.724 471.037 348.734 471.287 348.764 471.367 348.574 471.507 348.394 471.697 348.235 472.106 347.905 472.755 347.855 473.215 348.125 473.874 348.265 474.544 348.374 475.213 348.484 475.662 348.744 476.152 348.954 476.631 349.154L476.631 349.154C477.131 349.353 477.64 349.523 478.13 349.673L478.16 349.683 478.17 349.683 478.18 349.683 478.2 349.693 478.22 349.703 478.23 349.703 478.25 349.713 478.27 349.723 478.27 349.723 478.29 349.733 478.3 349.733 478.3 349.733 478.31 349.733 478.32 349.733 478.33 349.733 478.33 349.733 478.37 349.743 478.38 349.743 478.38 349.743 478.43 349.763 478.43 349.763 478.44 349.763 478.45 349.763 478.46 349.763 478.47 349.763 478.48 349.763 478.49 349.763 478.49 349.763 478.499 349.763 478.519 349.773 478.529 349.773 478.539 349.773 478.549 349.773 478.549 349.773 478.559 349.773 478.569 349.773 478.579 349.773 478.589 349.773 478.599 349.773 478.609 349.773 478.609 349.773 478.619 349.773 478.629 349.773 478.639 349.773 478.879 349.843C481.137 350.532 483.474 350.992 485.802 351.391 488.569 351.861 491.346 352.25 494.133 352.49L494.343 352.51 494.343 352.51 494.553 352.53 494.553 352.53 494.763 352.55 494.763 352.55 494.972 352.57 494.972 352.57 495.182 352.58 495.182 352.58 495.222 352.58 495.222 352.58 495.222 352.58 495.222 352.58 495.222 352.58 495.222 352.58 495.222 352.58 495.222 352.58 495.222 352.58 495.222 352.58 495.222 352.58 495.222 352.58 495.222 352.58 495.222 352.58 495.222 352.58 495.222 352.58 495.222 352.58 495.222 352.58 495.222 352.58 495.222 352.58 495.222 352.58 495.222 352.58 495.222 352.58 495.222 352.58 495.222 352.58 495.222 352.58 495.222 352.58 495.222 352.58 495.222 352.58 495.222 352.58 495.222 352.58 495.222 352.58 495.222 352.58 495.222 352.58 495.222 352.58 495.222 352.58 495.222 352.58 495.222 352.58 495.222 352.58 495.222 352.58 495.222 352.58 495.222 352.58 495.222 352.58 495.222 352.58 495.232 352.58 495.232 352.58 495.252 352.58 495.252 352.58 495.462 352.59 495.462 352.59 495.672 352.6 495.672 352.6 495.882 352.61 495.882 352.61 496.091 352.62 496.091 352.62 496.301 352.63 496.301 352.63 496.321 352.63 496.321 352.63 496.331 352.63 496.331 352.63 496.331 352.63 496.331 352.63 496.331 352.63 496.331 352.63 496.341 352.63 496.341 352.63 496.341 352.63 496.341 352.63 496.341 352.63 496.341 352.63 496.341 352.63 496.341 352.63 496.341 352.63 496.341 352.63 496.341 352.63 496.341 352.63 496.341 352.63 496.341 352.63 496.341 352.63 496.341 352.63 496.341 352.63 496.341 352.63 496.341 352.63 496.341 352.63 496.341 352.63 496.341 352.63 496.341 352.63 496.341 352.63 496.341 352.63 496.341 352.63 496.341 352.63 496.341 352.63 496.341 352.63 496.341 352.63 496.351 352.63 496.351 352.63 496.351 352.63 496.361 352.63 496.361 352.63 496.371 352.63 496.371 352.63 496.381 352.63 496.381 352.63 496.401 352.63 496.611 352.64 496.611 352.64 496.821 352.65 496.821 352.65 497.03 352.66 497.03 352.66 497.24 352.67 497.24 352.67 497.45 352.68 497.45 352.68 497.66 352.69 497.66 352.69 497.869 352.69 497.869 352.69 497.899 352.69 497.899 352.69 497.899 352.69 497.899 352.69 497.909 352.69 497.909 352.69 497.909 352.69 497.909 352.69 497.909 352.69 497.909 352.69 497.909 352.69 497.909 352.69 497.909 352.69 497.909 352.69 497.909 352.69 497.909 352.69 497.909 352.69 497.909 352.69 497.909 352.69 497.909 352.69 497.909 352.69 497.909 352.69 497.909 352.69 497.909 352.69 497.909 352.69 497.909 352.69 497.909 352.69 497.909 352.69 497.909 352.69 497.909 352.69 497.909 352.69 497.909 352.69 497.909 352.69 497.909 352.69 497.909 352.69 497.909 352.69 497.909 352.69 497.909 352.69 497.909 352.69 497.909 352.69 497.909 352.69 497.909 352.69 497.909 352.69 497.909 352.69 497.909 352.69C498.299 352.74 498.309 352.74 494.193 363.908ZM494.193 363.908C496.361 363.908 498.519 363.868 500.687 363.928 507.939 363.908 515.221 363.279 522.404 362.38 523.932 361.93 523.513 359.753 521.945 359.813 525.631 358.943 529.277 357.905 532.923 356.906 534.282 356.386 533.762 354.288 532.324 354.438 533.533 353.929 534.771 353.479 535.96 352.95 536.559 352.58 536.799 351.821 536.44 351.192 535.79 350.053 534.522 350.762 533.602 351.082 533.593 351.052 533.583 351.032 533.573 351.002 533.533 350.902 533.473 350.802 533.413 350.722 534.042 350.602 534.681 350.482 535.311 350.352 535.54 350.302 535.74 350.183 535.9 350.023 536.13 349.973 536.36 349.923 536.579 349.863 537.269 349.703 537.678 348.964 537.508 348.294 537.448 348.085 537.349 347.895 537.209 347.745 537.788 347.545 538.368 347.326 538.937 347.116 539.596 346.866 539.906 346.077 539.646 345.437 539.516 345.158 539.347 344.968 539.147 344.848 539.007 344.938 538.857 345.008 538.707 345.068 537.469 345.547 536.21 345.997 534.951 346.426L534.951 346.426C533.463 346.926 531.954 347.395 530.446 347.865 530.286 347.915 530.136 347.965 529.976 348.005L529.976 348.005 529.876 348.035 529.876 348.035 529.856 348.045 529.856 348.045 529.766 348.075 529.756 348.075 529.716 348.085 529.707 348.085 529.667 348.095 529.657 348.095 529.637 348.105 529.627 348.105 529.607 348.115 529.597 348.115 529.577 348.125 529.567 348.125 529.497 348.145 529.487 348.145 529.467 348.155 529.457 348.155 529.437 348.165 529.427 348.165 529.407 348.175 529.397 348.175 529.377 348.185 529.367 348.185 529.347 348.185 529.337 348.185 529.317 348.185 529.307 348.185 529.287 348.185 529.277 348.185 529.257 348.185 529.247 348.185 529.227 348.185 529.217 348.185 529.197 348.185 529.187 348.185 529.167 348.185 529.157 348.185 529.107 348.195 529.097 348.195 528.997 348.225 528.987 348.225 528.787 348.285C528.747 348.294 528.708 348.315 528.678 348.324 527.769 348.654 526.859 348.964 525.93 349.244L525.92 349.244C525.411 349.393 524.901 349.533 524.392 349.653 523.473 349.863 522.554 350.043 521.625 350.203 519.028 350.812 516.39 351.251 513.753 351.661 513.633 351.681 513.513 351.701 513.393 351.711L513.383 351.711 513.373 351.711 513.353 351.711 513.333 351.711 513.323 351.711 513.313 351.711 513.293 351.711 513.273 351.711 513.254 351.711 513.254 351.711 513.214 351.711 513.194 351.711 513.184 351.711 513.174 351.711 513.154 351.711 513.134 351.711 513.124 351.711 513.104 351.711 513.084 351.711 513.064 351.711 513.064 351.711 513.044 351.711 513.024 351.711 513.004 351.711 512.994 351.711 512.984 351.711 512.964 351.711 512.944 351.711C511.895 351.841 510.836 351.931 509.777 352.001 509.278 352.071 508.778 352.131 508.279 352.19 506.9 352.35 505.532 352.46 504.153 352.53L504.013 352.54 504.013 352.54 503.873 352.55 503.873 352.55 503.733 352.56 503.733 352.56 503.594 352.57 503.594 352.57 503.454 352.58 503.454 352.58 503.314 352.59 503.314 352.59 503.174 352.6 503.174 352.6 503.034 352.61 503.034 352.61 502.894 352.62 502.894 352.62 502.754 352.62 502.754 352.62 502.615 352.62 502.615 352.62 502.475 352.62 502.475 352.62 502.335 352.62 502.335 352.62 502.195 352.62 502.195 352.62 502.055 352.62 502.055 352.62 501.915 352.62 501.915 352.62 501.775 352.62 501.775 352.62 501.636 352.62 501.636 352.62 501.496 352.62 501.496 352.62 501.356 352.62 501.356 352.62 501.216 352.62 501.216 352.62 501.076 352.62 501.076 352.62 500.936 352.62 500.936 352.62 500.796 352.62 500.796 352.62 500.657 352.62 500.657 352.62 500.517 352.62 500.517 352.62 500.377 352.62 500.377 352.62 500.237 352.62 500.237 352.62 500.097 352.62 500.097 352.62 499.957 352.62 499.957 352.62 499.817 352.62 499.817 352.62 499.678 352.62 499.678 352.62 499.538 352.62 499.538 352.62 499.398 352.62 499.398 352.62 499.398 352.62 499.398 352.62 499.398 352.62 499.398 352.62 499.398 352.62 499.398 352.62 499.398 352.62 499.398 352.62 499.398 352.62 499.398 352.62 499.398 352.62 499.398 352.62 499.398 352.62 499.398 352.62 499.398 352.62 499.398 352.62 499.398 352.62 499.398 352.62 499.398 352.62 499.398 352.62 499.398 352.62 499.398 352.62 499.398 352.62 499.398 352.62 499.398 352.62 499.398 352.62 499.398 352.62 499.398 352.62 499.398 352.62 499.398 352.62 499.398 352.62 499.398 352.62 499.398 352.62 499.398 352.62 499.398 352.62 499.398 352.62 499.398 352.62 499.398 352.62 499.398 352.62 499.398 352.62 499.398 352.62 499.398 352.62 499.398 352.62 499.398 352.62 499.388 352.62 499.388 352.62 499.388 352.62 499.388 352.62 499.388 352.62 499.388 352.62 499.378 352.62 499.378 352.62 499.378 352.62 499.378 352.62 499.368 352.62 499.368 352.62 499.368 352.62 499.368 352.62 499.358 352.62 499.358 352.62 499.348 352.62 499.348 352.62 499.338 352.62 499.338 352.62 499.328 352.62 499.328 352.62 499.318 352.62 499.318 352.62 499.308 352.62 499.308 352.62 499.298 352.62 499.298 352.62 499.288 352.62 499.288 352.62 499.278 352.62 499.278 352.62 499.268 352.62 499.268 352.62 499.258 352.62 499.258 352.62 499.248 352.62 499.248 352.62 499.238 352.62 499.238 352.62 499.228 352.62 499.228 352.62 499.218 352.62 499.218 352.62 499.208 352.62 499.208 352.62 499.198 352.62 499.198 352.62 499.188 352.62 499.188 352.62 499.178 352.62 499.178 352.62 499.168 352.62 499.168 352.62 499.158 352.62 499.158 352.62 499.148 352.62 499.138 352.62 499.128 352.62 499.128 352.62 499.118 352.62 499.118 352.62 499.108 352.62 499.108 352.62 499.098 352.62 499.098 352.62 499.088 352.62 499.088 352.62 499.078 352.62 499.078 352.62 499.068 352.62 499.068 352.62 499.058 352.62 499.058 352.62 499.048 352.62 499.048 352.62 499.038 352.62 499.038 352.62 499.028 352.62 499.028 352.62 499.028 352.62 499.028 352.62 498.998 352.62 498.998 352.62 498.998 352.62 498.998 352.62 498.998 352.62 498.998 352.62 498.998 352.62 498.998 352.62 498.998 352.62 498.998 352.62 498.998 352.62 498.998 352.62 498.998 352.62 498.998 352.62 498.998 352.62 498.998 352.62 498.998 352.62 498.998 352.62 498.998 352.62 498.998 352.62 498.998 352.62 498.998 352.62 498.998 352.62 498.998 352.62 498.998 352.62 498.998 352.62 498.998 352.62 498.998 352.62 498.998 352.62 498.998 352.62 498.998 352.62 498.998 352.62 498.998 352.62 498.998 352.62 498.998 352.62 498.998 352.62 498.998 352.62 498.998 352.62 498.998 352.62 498.998 352.62 498.998 352.62 498.998 352.62 498.998 352.62 498.998 352.62 498.998 352.62 498.998 352.62 498.988 352.62 498.988 352.62 498.968 352.62 498.968 352.62 498.938 352.62 498.938 352.62 498.928 352.62 498.928 352.62 498.928 352.62 498.928 352.62 498.928 352.62 498.928 352.62 498.928 352.62 498.928 352.62 498.928 352.62 498.928 352.62 498.928 352.62 498.928 352.62 498.928 352.62 498.928 352.62 498.928 352.62 498.928 352.62 498.928 352.62 498.928 352.62 498.928 352.62 498.928 352.62 498.928 352.62 498.928 352.62 498.928 352.62 498.928 352.62 498.928 352.62 498.928 352.62 498.928 352.62 498.928 352.62 498.928 352.62 498.928 352.62 498.928 352.62 498.928 352.62 498.928 352.62 498.928 352.62 498.928 352.62 498.918 352.62 498.918 352.62 498.868 352.62 498.868 352.62 498.659 352.62 498.659 352.62 498.639 352.62 498.639 352.62 498.629 352.62 498.629 352.62 498.629 352.62 498.629 352.62 498.629 352.62 498.629 352.62 498.629 352.62 498.629 352.62 498.629 352.62 498.629 352.62 498.629 352.62 498.629 352.62 498.629 352.62 498.629 352.62 498.629 352.62 498.629 352.62 498.629 352.62 498.629 352.62 498.629 352.62 498.629 352.62 498.629 352.62 498.629 352.62 498.629 352.62 498.629 352.62 498.629 352.62 498.629 352.62 498.629 352.62 498.629 352.62 498.629 352.62 498.629 352.62 498.629 352.62 498.629 352.62 498.629 352.62 498.629 352.62 498.629 352.62 498.629 352.62 498.629 352.62 498.629 352.62 498.629 352.62 498.629 352.62 498.629 352.62 498.629 352.62 498.589 352.62 494.193 363.908Z" fill="#E8AF8E" fill-rule="evenodd"/><path d="M450.439 313.401C432.297 312.132 430.689 288.247 449.619 287.208 469.529 287.138 471.617 314.04 450.439 313.401Z" fill="#FFB49D" fill-rule="evenodd"/><path d="M556.259 303.121C548.957 303.261 543.482 295.719 545.78 288.806 547.928 281.084 556.519 275.5 564.431 275.969 571.943 276.828 576.918 285.42 574.48 292.432 572.143 299.625 563.591 304.28 556.259 303.121Z" fill="#FFB49D" fill-rule="evenodd"/><path d="M509.867 294.25C508.189 293.981 508.538 291.483 510.217 291.693 511.266 291.903 512.334 291.983 513.413 291.923 518.158 291.593 524.282 288.057 523.393 282.612 521.595 276.509 517.589 277.168 512.584 278.896 511.206 279.266 509.577 280.505 508.239 279.446 507.619 278.936 507.39 278.107 507.19 277.368 506.74 275.62 506.57 273.812 506.451 272.013 506.361 270.655 506.271 269.296 506.361 267.938 506.361 267.188 507.12 266.629 507.829 266.729 508.578 266.819 509.058 267.568 508.928 268.287 508.908 271.254 509.048 274.291 509.827 277.158 513.383 275.949 517.429 274.111 521.135 275.72 523.573 276.938 525.331 279.366 525.9 282.003 527.449 290.414 517.159 295.849 509.867 294.25L509.867 294.25ZM401.679 295.889C400.31 295.719 400.171 293.721 401.509 293.361 402.598 293.022 403.587 292.392 404.626 291.933 407.073 290.804 409.731 290.095 412.428 289.855 412.148 289.645 411.858 289.435 411.569 289.236 406.844 286.129 401.249 284.251 395.555 284.74 395.116 284.75 394.746 284.98 394.297 284.93 393.208 284.83 392.768 283.262 393.687 282.632 394.816 281.973 396.225 282.173 397.483 282.133 404.376 282.053 411.359 285.14 416.344 289.825 418.282 291.653 419.79 293.921 421.139 296.208 421.678 297.167 422.797 298.596 421.478 299.415 420.889 299.755 420.04 299.575 419.71 298.956 418.442 296.558 416.973 294.3 415.165 292.342 412.578 292.253 409.96 292.722 407.503 293.531 406.394 293.951 405.315 294.44 404.246 294.97 403.427 295.319 402.608 295.949 401.679 295.889L401.679 295.889ZM601.422 264.701C599.045 261.354 596.178 261.674 594.21 261.764 593.78 262.693 593.381 263.632 593.011 264.571 592.492 266.219 591.862 267.918 591.782 269.656 591.862 271.284 589.455 271.544 589.215 269.916 589.355 267.049 590.374 263.732 591.882 260.505 591.902 260.056 592.072 259.756 592.342 259.556 594.44 255.361 597.327 251.405 600.134 248.937 601.173 248.078 602.291 247.319 603.47 246.67 604.08 246.33 604.879 246.52 605.238 247.129 606.028 248.618 604.169 249.157 603.23 249.826 599.924 252.194 597.456 255.52 595.528 259.107 595.558 259.107 595.588 259.107 595.618 259.097 598.735 259.017 601.682 260.585 603.46 263.113 604.469 264.481 602.491 266.01 601.422 264.701Z" fill="#ED9C79" fill-rule="evenodd"/><path d="M459.809 280.984C459.429 279.865 460.318 278.517 460.708 277.628 461.877 275.31 463.665 273.282 465.962 272.043 472.825 268.147 477.451 273.052 479.079 279.616 479.239 280.305 478.879 281.014 478.18 281.204 477.53 281.384 476.741 280.984 476.591 280.305 476.352 279.196 475.932 278.127 475.423 277.108 474.574 275.47 473.395 273.682 471.447 273.302 468.33 273.002 465.403 275.07 463.725 277.558 463.165 278.477 462.586 279.456 462.316 280.505 462.326 281.893 460.328 282.273 459.809 280.984Z" fill="#605850" fill-rule="evenodd"/><path d="M538.957 271.924C537.698 270.785 539.017 268.068 539.417 266.689 542.553 257.588 552.293 258.447 556.119 266.519 556.609 267.528 556.898 268.627 557.118 269.716 557.258 270.405 556.679 271.084 556.009 271.164 554.431 271.344 554.531 269.486 554.131 268.457 553.322 266.199 551.684 264.211 549.496 263.173 545.88 261.434 542.683 264.511 541.734 267.848 541.444 268.727 541.135 269.606 541.025 270.525 541.095 270.795 541.085 271.084 540.975 271.354 540.675 272.173 539.616 272.433 538.957 271.924Z" fill="#605850" fill-rule="evenodd"/><path d="M534.182 299.495C539.626 300.014 540.845 306.008 538.647 310.254 532.364 324.159 516.23 331.252 501.486 329.864 494.233 329.064 486.671 325.538 482.286 319.584 477.65 312.561 477.311 305.209 483.424 298.956 483.324 298.196 483.944 297.497 484.703 297.497 485.942 297.657 487.081 298.306 488.269 298.666 492.255 299.955 496.241 301.343 500.337 302.262 509.008 303.751 517.999 303.341 526.5 301.023 529.037 300.424 531.545 299.345 534.182 299.495Z" fill="#FF5D22" fill-rule="evenodd"/><path d="M553.901 249.087C551.464 248.278 548.897 247.958 546.339 247.759 544.152 247.669 541.894 247.459 539.786 248.038 538.847 248.048 538.218 247.019 538.607 246.18 539.097 245.111 540.445 245.251 541.434 245.141 545.39 244.951 549.426 245.241 553.272 246.2 554.281 246.45 555.849 246.8 555.49 248.178 555.31 248.837 554.561 249.307 553.901 249.087Z" fill="#91643D" fill-rule="evenodd"/><path d="M516.091 326.058C516.31 326.627 516.151 327.116 515.821 327.436 515.871 327.506 515.911 327.586 515.951 327.666 516.071 327.926 516.091 328.165 516.031 328.385 513.084 329.174 510.117 329.864 507.1 330.323 505.601 330.493 504.113 330.613 502.605 330.643 502.265 330.653 501.915 330.653 501.576 330.653 500.257 330.653 498.928 330.603 497.61 330.523 497.57 330.523 497.54 330.513 497.5 330.513 497.46 330.503 497.41 330.503 497.37 330.493 495.862 330.053 494.373 329.484 492.915 328.925 489.658 327.736 486.801 325.748 484.403 323.28 483.754 322.361 483.115 321.432 482.485 320.503 481.676 319.055 480.897 317.586 480.168 316.088 479.948 315.588 479.738 315.079 479.538 314.579 479.608 314.38 479.728 314.18 479.918 313.99 481.307 312.901 483.175 312.641 484.853 312.292 492.865 310.663 501.426 312.452 508.289 316.837 511.615 319.175 514.602 322.241 516.091 326.058Z" fill="#FF8E64" fill-rule="evenodd"/><path d="M469.349 311.573C468.999 310.973 469.199 310.144 469.808 309.804 470.648 309.345 471.447 308.825 472.246 308.286 479.389 303.591 483.604 298.736 485.013 290.105 485.492 288.496 487.91 289.136 487.51 290.794 486.321 298.126 482.645 304.08 476.561 308.366 474.813 309.674 473.025 310.953 471.117 312.022 470.508 312.372 469.719 312.192 469.349 311.573Z" fill="#ED9C79" fill-rule="evenodd"/><path d="M634.818 154.006C635.687 160.329 631.941 165.284 627.525 169.19 627.985 169.879 628.374 170.608 628.604 171.417 630.622 177.751 629.573 185.693 625.657 191.107 623.659 193.934 620.832 196.142 617.805 197.8 615.388 199.229 612.641 199.948 609.844 199.928 605.608 199.898 601.073 198.969 597.616 196.442 596.657 196.312 595.698 196.152 594.749 195.962 594.37 196.172 593.86 196.462 593.261 196.801 593.81 197.85 594.34 198.919 594.849 199.978 599.065 209.348 601.812 219.518 602.781 229.737 602.791 230.187 602.631 230.526 602.381 230.766 602.391 231.106 602.221 231.525 601.832 232.035 601.113 232.474 600.293 232.424 599.454 232.364 598.695 232.315 597.916 232.265 597.207 232.594 597.077 232.604 596.947 232.624 596.807 232.664 596.677 232.734 596.547 232.804 596.408 232.874 589.595 235.981 588.046 242.224 585.998 241.465 585.968 241.475 585.938 241.485 585.898 241.495 573.202 243.793 559.855 240.007 548.068 235.361 551.554 239.257 552.263 243.033 545.68 242.454 533.742 240.816 521.925 236.22 513.004 227.989 510.167 225.372 507.28 222.595 504.842 219.518 503.074 228.488 499.288 237.05 493.604 244.242 489.498 249.497 484.773 254.302 479.089 257.848 476.901 259.297 474.643 260.615 472.296 261.794 472.006 261.934 471.697 262.114 471.377 262.254 463.016 267.488 455.493 269.516 459.879 257.658 456.712 261.404 452.756 264.441 448.411 266.699 444.914 268.237 427.982 276.439 431.148 266.959 429.29 268.377 418.851 273.172 414.965 272.403 414.695 272.593 414.306 272.743 413.786 272.843 411.029 271.054 408.702 268.117 405.175 267.518 404.686 267.338 404.057 267.358 403.427 267.368 402.438 267.388 401.429 267.398 400.97 266.719 400.6 266.699 400.23 266.529 399.981 266.229 399.811 265.99 399.651 265.75 399.491 265.49 399.481 266.419 398.402 267.258 397.413 266.529 391.839 262.333 391.13 252.364 392.309 244.392 386.415 248.997 378.803 251.295 371.21 250.596 362.06 250.226 354.498 244.052 352.07 235.421 351.87 235.421 351.681 235.421 351.481 235.411 342.56 234.812 336.416 227.899 335.457 219.238 334.908 213.094 335.607 206.591 338.494 201.057L338.494 201.047C332.6 192.735 336.217 180.768 342.42 172.806 348.784 163.466 360.611 159.4 371.031 164.245 377.294 157.202 388.383 158.391 394.237 165.234 406.234 159.51 425.574 165.733 424.385 181.078 424.286 181.757 424.206 182.506 424.116 183.285 435.104 173.725 448.79 167.661 463.995 167.701 466.352 167.841 475.942 168.8 482.695 170.708 482.985 170.019 483.265 169.44 483.474 169.07 485.652 164.804 489.079 161.218 492.975 158.471 497.08 155.744 501.905 154.395 506.64 153.206 513.323 151.428 520.336 150.929 527.169 152.127 529.557 152.517 531.904 153.106 534.202 153.846 535.001 150.289 536.45 146.823 537.898 144.405 539.806 141.648 542.423 139.181 545.39 137.363 544.571 126.464 550.085 116.704 561.054 112.439 569.685 108.982 579.255 111.949 585.719 118.252 586.718 118.103 587.716 117.863 588.705 117.573 590.703 116.644 592.761 115.945 593.95 115.575 606.088 111.529 620.483 114.307 626.067 126.874 628.185 131.669 629.573 137.313 628.634 142.557 631.881 145.634 634.318 149.51 634.818 154.006L634.818 154.006ZM485.133 171.507C485.392 171.607 485.642 171.697 485.882 171.797 486.182 171.398 486.521 170.978 486.901 170.548 487.131 170.488 487.35 170.409 487.55 170.309 487.72 170.129 487.87 169.949 487.99 169.779 490.277 167.142 492.995 165.044 495.941 163.286 496.701 162.756 497.47 162.237 498.259 161.747 499.628 160.918 501.016 160.159 502.465 159.48 503.923 158.831 505.402 158.281 506.92 157.792 508.029 157.462 509.138 157.152 510.257 156.873 514.632 155.404 519.167 154.585 523.753 154.295 519.517 153.866 515.221 154.035 511.046 154.875 505.272 156.133 499.298 157.432 494.283 160.699 490.507 163.466 487.041 167.172 485.133 171.507L485.133 171.507ZM398.872 264.411C395.605 258.048 396.015 248.238 396.794 240.037 396.374 240.546 395.935 241.045 395.485 241.515 394.257 246.52 394.037 251.784 394.996 256.849 395.555 259.646 396.494 262.623 398.872 264.411L398.872 264.411ZM340.292 225.941C338.364 219.498 340.033 210.557 342.69 205.193 341.811 204.573 341.022 203.914 340.322 203.225 337.835 208.519 337.346 215.082 338.315 220.667 338.744 222.684 339.413 224.433 340.292 225.941L340.292 225.941ZM616.946 119.941C621.791 124.546 624.429 131.439 622.86 138.442 624.029 139.081 625.188 139.82 626.287 140.629 626.576 135.944 625.288 131.199 623.26 127.003 621.751 123.987 619.554 121.639 616.946 119.941L616.946 119.941ZM626.067 171.987C624.159 178.51 622.74 185.473 617.765 190.438 613.969 194.514 609.214 196.292 604.209 196.671 607.456 197.57 610.992 197.58 614.139 196.671 620.183 194.314 625.318 189.309 626.496 182.796 627.186 179.269 627.336 175.383 626.067 171.987L626.067 171.987ZM502.734 216.611C502.085 215.612 501.486 214.583 500.966 213.524 500.027 223.484 497.14 233.333 492.105 241.975 497.23 235.241 500.687 227.32 502.305 219.038 502.465 218.229 502.605 217.42 502.734 216.611Z" fill="#91643D" fill-rule="evenodd"/><path d="M457.791 259.456C457.202 259.107 456.952 258.288 457.331 257.688 458.69 255.54 459.829 253.293 460.898 251.175 464.544 244.282 467.401 237.04 469.389 229.507 469.868 227.899 472.286 228.538 471.876 230.197 470.368 235.441 468.79 240.686 466.462 245.631 465.403 247.918 464.274 250.186 463.165 252.394 462.036 254.631 460.898 256.879 459.549 258.997 459.179 259.596 458.4 259.816 457.791 259.456L457.791 259.456ZM586.268 221.636C581.143 220.177 575.859 218.759 571.283 215.941 570.694 215.552 570.584 214.703 570.984 214.143 571.483 213.444 572.422 213.494 573.032 214.003 573.931 214.533 574.86 214.992 575.809 215.422 579.365 216.96 583.081 218.109 586.827 219.118 588.466 219.538 587.916 221.975 586.268 221.636L586.268 221.636ZM590.823 232.884C592.522 233.014 592.731 230.516 591.053 230.317 584.43 229.328 577.947 227.06 571.833 224.333 564.62 221.146 557.857 217.02 551.694 212.035 550.865 211.366 549.786 210.068 548.727 211.126 548.257 211.626 548.247 212.485 548.777 212.945 560.664 222.914 575.459 230.307 590.823 232.884L590.823 232.884ZM547.718 236.56C542.803 234.702 537.938 232.574 533.543 229.667 528.827 226.351 524.012 223.084 519.787 219.148 518.588 217.969 520.286 216.131 521.555 217.27 522.364 218.039 523.193 218.779 524.052 219.488 529.057 223.324 534.042 227.36 539.636 230.237 542.543 231.705 545.54 233.014 548.597 234.143 550.175 234.752 549.326 237.11 547.718 236.56L547.718 236.56ZM431.368 266.14C430.879 265.65 430.859 264.801 431.368 264.311 432.427 263.292 433.486 262.284 434.455 261.185 438.551 256.34 442.617 251.165 444.884 245.191 444.974 244.082 446.553 243.683 447.192 244.572 448.011 245.811 446.543 247.749 446.083 248.967 443.566 253.902 440.259 258.427 436.633 262.603 435.554 263.842 434.375 264.981 433.186 266.13 432.687 266.619 431.868 266.639 431.368 266.14Z" fill="#6D492B" fill-rule="evenodd"/><path d="M460.748 194.544C467.811 194.773 458.081 207.171 456.722 209.918 454.734 212.835 451.917 219.058 448.491 220.057 446.123 220.667 444.674 218.049 444.295 216.081 444.045 214.952 444.205 213.804 444.015 212.675 440.569 214.263 438.521 217.929 435.184 219.738 430.469 222.145 429.091 217.32 429.21 213.544 426.423 215.872 420.839 222.355 416.973 221.346 410.1 217.959 418.102 203.524 421.179 199.229 422.727 196.991 424.465 194.853 426.573 193.095 427.692 192.156 428.841 191.277 430.06 190.488 430.289 190.338 430.559 190.288 430.819 190.308 433.096 188.8 438.841 184.714 439.999 189.289 440.359 191.427 439.38 193.525 439.13 195.602 439.13 195.622 439.13 195.652 439.14 195.672 440.049 195.972 440.908 195.223 441.728 194.903 444.145 193.714 446.413 192.046 449.08 191.457 450.518 191.037 452.047 191.926 452.446 193.365 452.856 195.023 451.897 196.641 451.937 198.3 451.937 198.3 451.947 198.3 451.947 198.31 451.947 198.31 451.957 198.31 451.957 198.31 454.984 197.331 457.541 194.983 460.748 194.544Z" fill="#B68459" fill-rule="evenodd"/><path d="M407.193 316.288C399.821 307.936 412.628 298.816 419.201 307.447 425.175 315.279 412.927 324.379 407.193 316.288Z" fill="#FFFFFF" fill-rule="evenodd"/><path d="M593.74 286.838C586.268 278.836 599.624 267.278 605.908 276.719 610.243 283.801 599.904 292.782 593.74 286.838Z" fill="#FFFFFF" fill-rule="evenodd"/><path d="M593.391 197.56C593.111 196.871 592.811 196.202 592.482 195.533 591.962 194.504 591.383 193.495 590.773 192.506 587.966 186.002 583.501 180.198 578.067 175.204 576.828 173.785 575.509 172.436 574.111 171.168 571.493 168.81 568.626 166.792 565.599 164.984 563.442 163.695 561.274 162.427 559.046 161.268 556.749 160.069 554.391 159.01 551.964 158.091 550.825 157.662 549.676 157.272 548.507 156.932 547.758 156.633 546.989 156.363 546.219 156.123 545.081 155.774 543.952 155.464 542.793 155.234 541.794 155.034 540.775 154.905 539.766 154.785 539.596 154.755 539.417 154.715 539.237 154.685 538.467 154.555 537.708 154.415 536.929 154.345 536.28 154.285 535.61 154.215 534.961 154.225 534.901 154.225 534.841 154.215 534.781 154.215 534.472 154.195 534.172 154.175 533.872 154.165 533.932 153.676 534.002 153.196 534.072 152.707 534.242 152.587 534.432 152.477 534.631 152.407 534.921 152.177 535.261 151.998 535.64 151.918 556.659 144.995 584.06 163.476 593.081 182.126 594.21 184.184 599.045 194.893 595.738 195.672 595.748 195.772 595.758 195.862 595.748 195.952 595.239 196.442 594.719 196.911 594.17 197.361 594.06 197.451 593.95 197.53 593.83 197.62 593.69 197.62 593.531 197.6 593.391 197.56Z" fill="#FF908F" fill-rule="evenodd"/><path d="M392.668 239.008C388.513 219.747 397.913 199.548 411.439 186.062 414.805 183.375 421.558 178.28 425.424 181.827 424.835 182.396 424.256 182.966 423.676 183.545 422.537 184.684 421.409 185.843 420.32 187.021 418.002 189.549 415.834 192.186 413.826 194.963 410.72 199.279 408.162 203.924 405.745 208.639 404.536 211.007 403.357 213.374 402.318 215.812 401.189 218.449 400.25 221.176 399.371 223.893 398.642 226.131 398.003 228.399 397.453 230.696 396.824 233.323 396.434 236.031 396.175 238.728 396.125 239.217 396.085 239.707 396.045 240.196 395.875 240.136 395.695 240.056 395.505 239.947 395.196 240.196 394.826 240.306 394.456 240.306 393.667 240.326 392.888 239.827 392.668 239.008Z" fill="#FF908F" fill-rule="evenodd"/><path d="M660.851 451.328C660.931 451.997 660.461 452.537 659.882 452.736 659.522 454.045 659.113 455.264 659.053 455.953 654.887 469.999 649.832 485.922 636.556 493.914 629.194 497.93 621.202 501.336 612.701 500.617 605.578 500.127 598.445 497.4 593.481 492.395 593.381 494.673 593.261 496.951 593.151 499.228 592.851 505.232 592.552 511.226 591.982 517.2 591.632 521.126 591.213 525.032 590.733 528.938 590.683 529.697 589.994 530.326 589.225 530.256 589.225 530.256 589.215 530.256 589.215 530.256 585.299 532.414 574.98 533.633 573.032 534.212 556.918 537.299 540.385 538.478 524.002 538.478 522.684 538.478 521.365 538.468 520.047 538.458 496.811 537.918 473.445 537.589 450.329 535.081 448.191 534.682 436.053 533.183 431.888 530.756 432.008 530.626 432.127 530.496 432.227 530.356 429.47 530.456 430.629 525.651 430.09 523.843 430.1 523.733 430.1 523.603 430.09 523.473 429.75 523.453 429.4 523.463 429.061 523.463 426.853 523.423 424.665 523.094 422.477 522.844 419.75 522.534 417.033 522.215 414.326 521.835 410.26 521.246 406.264 520.396 402.278 519.368 398.213 518.329 394.157 517.27 390.121 516.141 389.122 515.841 388.133 515.512 387.164 515.152 386.145 514.652 385.136 514.133 384.137 513.583 384.137 513.583 384.137 513.583 384.137 513.583 384.117 513.573 384.107 513.564 384.087 513.554 382.998 512.934 381.909 512.315 380.88 511.616 379.752 510.856 378.643 510.067 377.554 509.258 376.165 508.199 374.867 507.07 373.618 505.862 372.199 504.433 370.851 502.935 369.582 501.376 368.593 500.078 367.684 498.719 366.815 497.34 359.682 483.595 358.494 467.391 361.301 451.388 365.526 424.616 381.19 400.98 399.941 381.94 413.317 368.144 428.791 355.787 447.282 349.733 452.716 347.905 458.44 346.426 464.224 346.866 466.372 347.166 472.586 347.126 474.424 349.004 474.474 348.994 474.534 348.994 474.594 348.984 475.373 348.984 476.012 349.633 476.012 350.402 475.912 351.281 476.202 352.64 475.912 353.569 476.262 353.819 476.561 354.178 476.801 354.538 484.273 360.442 494.273 362.33 503.604 362.54 512.714 362.53 521.995 360.472 529.117 354.588 529.697 354.178 530.226 353.369 530.825 352.85 530.935 350.063 533.033 345.457 534.781 345.298 534.781 345.298 534.781 345.298 534.781 345.298 535.9 344.478 537.988 344.059 538.897 343.729 565.979 334.409 596.597 363.339 614.149 381.31 617.805 385.456 621.372 389.702 624.838 394.007 626.127 390.99 628.255 388.183 629.643 385.316 634.738 376.535 640.432 368.124 645.896 359.573 646.666 358.624 647.415 356.656 648.813 357.085 648.893 357.055 648.983 357.035 649.073 357.016 651.56 356.666 651.281 365.557 651.64 367.425 651.86 376.515 652.889 385.546 653.568 394.607 654.338 407.264 656.246 419.811 658.084 432.348 658.953 438.132 659.802 443.926 660.631 449.71 660.721 450.259 660.791 450.789 660.851 451.328Z" fill="#A286DB" fill-rule="evenodd"/><path d="M565.839 390.751C568.666 391.49 570.265 394.716 570.125 397.464 570.125 397.554 570.115 397.643 570.105 397.733 570.095 399.512 569.685 401.4 569.166 402.259 568.796 404.287 559.955 415.935 557.568 413.377 557.228 413.407 556.868 413.317 556.519 413.048 536.839 399.442 550.305 385.846 558.257 394.147 559.785 391.999 563.012 389.921 565.839 390.751Z" fill="#FDC9C9" fill-rule="evenodd"/><path d="M448.74 345.887C448.7 345.887 448.65 345.897 448.61 345.907 448.62 345.907 448.63 345.897 448.65 345.897 448.67 345.897 448.71 345.897 448.74 345.887L448.74 345.887ZM575.15 374.557C572.392 366.476 569.525 358.424 566.448 350.462 561.783 341.192 565.559 340.712 575.769 345.248 583.801 349.224 591.972 355.627 594.3 364.648 596.757 377.185 596.737 390.121 596.398 402.848 595.958 410.32 595.399 417.813 594.16 425.195 593.88 427.203 593.321 431.439 590.614 429.431 590.104 429.281 589.664 428.901 589.495 428.212 585.469 410.121 580.524 392.279 575.15 374.557L575.15 374.557ZM450.628 454.904C454.514 455.144 458.38 455.574 462.226 456.123 464.904 456.003 467.521 455.284 465.982 452.477 465.943 452.437 465.903 452.397 465.863 452.367 466.012 452.117 466.092 451.817 466.092 451.458 466.172 440.05 466.022 428.641 465.413 417.253 464.614 398.103 462.396 378.783 457.012 360.342 455.643 356.966 453.046 345.278 448.491 345.937 448.53 345.927 448.57 345.917 448.62 345.907 448.56 345.917 448.491 345.927 448.431 345.947 448.451 345.947 448.471 345.937 448.491 345.937 447.691 346.137 447.082 346.826 447.082 347.695 447.082 347.855 447.102 348.005 447.142 348.155 447.002 348.165 446.852 348.185 446.702 348.235 444.045 349.284 436.303 351.391 432.407 354.318 431.838 353.02 431.248 351.731 430.629 350.452 430.1 348.994 427.832 349.034 427.292 350.452 427.173 353.08 429.041 355.697 430.169 358.294 430.179 358.334 430.189 358.384 430.199 358.424 430.219 358.454 430.239 358.484 430.269 358.514 430.459 358.964 430.619 359.413 430.739 359.853 436.293 372.539 438.761 386.125 441.078 399.751 443.765 416.284 445.434 432.837 446.173 449.59 446.183 449.909 446.273 450.209 446.413 450.479 446.303 452.826 447.512 454.105 449.28 454.834 449.729 454.854 450.179 454.874 450.628 454.904Z" fill="#FBCE03" fill-rule="evenodd"/><path d="M473.575 459.809C470.138 459.46 466.642 459.14 463.135 458.85 463.105 458.99 463.045 459.13 462.966 459.26 460.738 471.797 460.328 484.574 460.628 497.28 460.698 505.512 460.678 513.743 461.977 521.865 461.997 522.115 461.967 522.334 461.887 522.524 465.673 522.095 469.439 521.535 473.165 520.796 473.345 520.167 473.475 519.507 473.515 518.858 472.546 517.529 474.434 516.011 475.523 517.24 476.571 518.478 475.942 520.297 475.583 521.695 475.163 523.084 473.635 523.423 472.376 523.613 462.396 525.311 452.287 526.21 442.167 526.18L442.177 526.18C438.201 526.131 434.245 525.651 430.289 525.321 428.611 525.152 428.781 522.664 430.489 522.754 434.405 523.084 438.301 523.563 442.207 523.613 448.021 523.573 453.855 523.333 459.659 522.764 459.539 522.604 459.459 522.394 459.429 522.145 457.791 511.775 458.201 501.236 458.001 490.777 457.871 482.665 458.31 474.544 459.339 466.492 459.579 464.474 459.809 462.446 460.148 460.448 460.278 459.899 460.308 459.23 460.468 458.64 455.863 458.281 451.248 457.981 446.742 457.761 434.745 457.352 422.687 457.741 410.76 459.03 409.101 459.24 408.662 456.792 410.36 456.483 421.039 455.334 431.798 454.864 442.547 455.074 434.305 448.461 421.888 446.113 411.679 445.404 410.68 445.384 409.541 445.624 409.281 444.335 409.171 443.636 409.661 442.967 410.36 442.857 412.897 442.707 415.445 443.166 417.962 443.426 423.396 444.125 428.801 445.304 433.896 447.372 438.051 448.9 442.007 450.978 445.274 453.995 445.643 454.355 445.743 454.784 445.653 455.164 449.979 455.304 454.305 455.554 458.61 455.923 462.656 456.223 466.702 456.622 470.747 456.952 472.006 457.122 473.355 456.962 474.564 457.362 475.842 458.051 475.053 460.179 473.575 459.809L473.575 459.809ZM530.176 448.661C528.338 447.901 529.447 445.024 531.315 445.764 532.883 446.033 535.58 444.615 536.05 446.883 536.16 449.45 531.844 448.94 530.176 448.661L530.176 448.661ZM531.794 431.918C530.765 431.778 529.607 431.958 528.698 431.379 527.539 430.539 528.208 428.561 529.647 428.601 531.645 429.371 537.199 427.822 537.289 430.499 536.989 433.047 533.533 431.798 531.794 431.918L531.794 431.918ZM526.8 411.199C526.81 409.551 528.548 409.691 529.727 409.501 531.335 409.371 533.952 407.583 534.771 409.801 535.221 412.019 532.274 411.939 530.835 412.428 529.427 412.748 526.909 413.287 526.8 411.199L526.8 411.199ZM525.181 395.496C523.033 395.166 523.693 392.049 525.771 392.379 527.649 392.589 531.005 390.431 531.724 393.068 531.774 395.725 527.039 395.126 525.181 395.496L525.181 395.496ZM519.247 453.576C519.237 455.604 522.364 455.554 522.344 453.576 522.374 443.636 521.785 433.716 520.746 423.836 519.107 407.363 518.258 390.701 514.233 374.597 517.729 373.888 521.165 372.869 524.512 371.68 530.965 369.652 540.136 364.588 541.095 357.235 541.295 355.097 541.115 352.93 540.515 350.862 540.316 350.183 539.606 349.773 538.927 349.963 537.578 350.412 538.038 351.651 538.308 352.67 538.627 354.478 538.777 356.406 538.268 358.194 536.45 363.339 529.806 367.125 524.852 368.833 519.117 370.871 513.214 372.589 507.1 373.009 499.298 373.309 491.396 372.3 483.904 370.132 476.442 367.694 464.314 362.78 468.58 352.89 469.709 351.761 468.16 349.973 466.872 350.962 466.412 351.321 466.152 351.921 465.943 352.45 464.024 357.225 465.703 362.81 469.719 365.956 478.11 372.569 490.147 374.857 500.607 375.536 504.173 375.846 507.729 375.676 511.256 375.147 514.512 388.903 515.711 403.018 517.01 417.083 518.168 429.201 519.387 441.358 519.247 453.576L519.247 453.576ZM555.03 533.023C554.411 532.764 554.031 531.964 554.341 531.335 554.96 530.057 555.52 528.748 555.989 527.409 556.818 524.902 557.478 522.374 557.937 519.857 557.987 518.179 560.485 518.179 560.525 519.867 559.825 524.153 558.607 528.408 556.719 532.334 556.409 532.983 555.68 533.313 555.03 533.023L555.03 533.023ZM567.258 531.335C565.939 530.516 567.068 529.117 567.537 528.128 568.297 526.6 568.986 525.052 569.555 523.483 570.404 521.026 571.004 518.498 571.533 515.951 572.552 511.266 572.762 506.451 573.711 501.766 573.881 500.607 575.349 499.948 576.138 500.957 576.638 501.556 576.278 502.245 576.099 502.875 575.619 505.462 575.429 508.099 575.03 510.697 574.3 515.591 573.421 520.496 571.693 525.152 570.944 527.12 570.005 529.018 569.016 530.876 568.696 531.495 567.847 531.685 567.258 531.335L567.258 531.335ZM600.833 415.225C597.706 414.056 603.061 408.862 604.179 407.523 606.847 404.706 609.884 402.229 613.07 400.031 615.957 398.163 618.974 396.525 621.971 394.866 622.231 394.746 622.481 394.716 622.7 394.746 622.92 394.467 623.15 394.197 623.39 393.927 623.859 393.408 624.698 393.378 625.218 393.857 626.177 394.796 625.268 395.755 624.578 396.505 620.832 401.34 618.615 407.114 616.257 412.698 615.018 415.665 613.8 418.722 612.9 421.808 611.602 426.134 610.453 430.739 609.564 435.125 609.534 435.894 609.134 436.623 608.285 436.663 607.606 436.693 606.947 436.134 606.947 435.424 608.325 427.632 610.483 419.94 613.49 412.658 615.428 408.093 617.236 403.348 619.763 399.052 617.496 400.321 615.258 401.639 613.14 403.148 609.334 406.015 605.648 409.202 602.941 413.147 602.741 413.507 602.471 413.867 602.391 414.276 602.261 414.946 601.492 415.375 600.833 415.225L600.833 415.225ZM593.031 492.615C592.322 492.545 591.812 491.906 591.872 491.207 592.032 489.279 592.132 487.351 592.212 485.423 592.332 482.306 592.372 479.019 592.472 475.932 592.741 462.466 592.601 448.97 591.742 435.534 591.622 433.676 591.423 431.818 591.253 429.96 591.223 429.481 591.253 429.001 591.603 428.621 592.452 427.672 594.14 428.512 593.84 429.77 593.86 430.29 593.93 430.799 593.98 431.319 594.45 436.014 594.669 440.729 594.839 445.444 595.289 457.601 595.289 469.919 594.899 481.996 594.839 484.663 594.739 487.331 594.559 489.988 594.479 491.087 594.559 492.705 593.031 492.615Z" fill="#8368BB" fill-rule="evenodd"/><path d="M451.537 453.875C451.717 440.299 451.198 426.743 449.36 413.327 448.201 402.399 445.963 391.65 443.056 381.061 440.739 372.499 438.841 363.719 434.765 355.777 434.225 354.738 433.636 353.719 432.997 352.73 432.327 351.981 432.117 350.772 433.216 350.272 433.836 350.013 434.535 350.282 434.835 350.812 436.313 353.01 437.522 355.367 438.571 357.795 441.927 365.347 443.666 373.488 445.833 381.43 450.948 399.851 453.206 418.961 454.035 438.032 454.165 443.316 454.125 448.601 454.135 453.885 454.095 455.504 451.597 455.613 451.537 453.875L451.537 453.875ZM339.303 516.531C338.694 516.131 338.564 515.352 338.924 514.742 339.683 513.723 341.202 514.053 342.31 513.953 344.758 513.893 347.205 513.713 349.623 513.374 356.815 511.985 364.328 510.786 370.581 506.89 371.28 506.341 372.349 505.961 372.959 506.85 373.348 507.41 373.228 508.269 372.639 508.649 367.644 512.025 361.78 513.494 355.986 514.762 351.281 515.861 346.486 516.521 341.651 516.55 340.872 516.441 340.043 517 339.303 516.531L339.303 516.531ZM336.536 508.089C344.658 507.979 352.82 506.591 360.581 504.183 362.919 503.464 365.197 502.595 367.464 501.696 368.114 501.436 368.483 500.717 368.234 500.038 367.994 499.388 367.235 499.009 366.575 499.268 361.011 501.536 355.337 503.244 349.363 504.263 345.068 504.833 340.752 505.632 336.406 505.492 334.518 505.522 334.668 508.199 336.536 508.089L336.536 508.089ZM374.657 411.589C371.23 410.071 358.354 403.288 358.104 399.671 358.144 398.972 358.753 398.413 359.453 398.443 360.302 398.453 360.522 399.232 360.921 399.801 363.828 402.848 367.684 404.866 371.26 407.004 372.729 407.823 374.227 408.612 375.776 409.261 377.294 410.021 376.205 412.278 374.657 411.589L374.657 411.589ZM378.643 406.125C380.181 406.834 381.27 404.586 379.762 403.797 378.613 403.188 377.524 402.498 376.425 401.819 375.706 401.41 375.017 400.8 374.157 400.73 372.569 400.68 372.309 402.958 373.848 403.288 375.466 404.207 376.995 405.256 378.643 406.125L378.643 406.125ZM367.315 397.663C366.056 396.545 364.987 395.236 363.818 394.037 362.719 392.858 364.418 391.15 365.606 392.179 366.605 393.178 367.504 394.277 368.523 395.266 369.233 395.785 369.822 396.724 369.133 397.524 368.683 398.043 367.834 398.143 367.315 397.663L367.315 397.663ZM359.832 390.061C358.763 388.283 357.655 386.415 357.305 384.337 357.075 382.429 359.922 382.07 359.972 384.058 360.052 385.646 361.151 387.084 361.88 388.473 362.1 388.803 362.24 389.162 362.16 389.562 362.01 390.641 360.422 391 359.832 390.061L359.832 390.061ZM590.594 428.022C589.645 414.126 587.057 400.361 583.91 386.805 582.122 378.773 580.184 370.771 577.647 362.939 575.639 357.016 573.661 350.982 570.315 345.657 569.985 344.998 569.186 344.648 569.186 343.839 569.186 343.14 569.775 342.55 570.474 342.55 571.194 342.55 571.673 343.12 572.063 343.659 574.78 347.615 576.548 352.141 578.186 356.626 581.003 364.358 583.231 372.29 585.059 380.301 588.036 392.689 590.604 405.166 592.222 417.803 592.591 420.51 592.851 423.227 593.031 425.954 593.001 426.833 593.411 427.852 592.891 428.631 592.272 429.521 590.683 429.131 590.594 428.022Z" fill="#E38704" fill-rule="evenodd"/><path d="M402.019 575C405.945 562.453 427.183 525.951 431.128 528.888 431.718 528.768 432.397 528.898 432.977 528.988 441.288 530.426 449.589 532.174 458.001 532.933 479.598 535.491 501.246 535.631 522.934 534.592 538.697 533.813 554.531 533.273 570.205 531.355 576.678 530.466 583.341 529.427 589.315 526.81 589.914 525.781 591.772 525.541 592.062 527.239 595.478 535.591 599.265 543.912 601.702 552.673 604.01 560.016 605.808 567.508 607.506 575.01L402.019 575.01Z" fill="#FE89BE" fill-rule="evenodd"/><path d="M425.784 575C426.523 572.932 427.282 570.874 428.062 568.826 432.038 558.377 436.233 547.998 441.498 538.128 442.467 536.26 443.436 534.392 444.355 532.494 444.664 531.865 445.444 531.585 446.083 531.895 446.712 532.194 446.992 532.983 446.682 533.613 445.504 536.04 444.245 538.418 443.016 540.815 437.272 551.814 432.797 563.402 428.541 575.01L425.784 575.01 425.784 575ZM583.551 575C582.492 570.305 581.463 565.61 580.334 560.935 577.737 551.564 575.13 542.154 571.863 532.993 570.365 531.235 573.221 529.467 574.141 531.765 576.418 537.539 577.997 543.752 579.835 549.656 582.272 557.488 584.14 565.46 585.828 573.482 585.948 573.991 586.068 574.49 586.188 575L583.551 575 583.551 575ZM556.059 575C554.631 561.604 553.612 548.138 550.325 535.051 549.396 533.473 551.184 531.945 552.433 533.383 553.692 536.65 554.111 540.236 554.801 543.672 556.639 553.652 557.438 563.762 558.507 573.841L558.647 575 556.059 575 556.059 575ZM531.395 575C531.315 568.317 531.325 561.634 531.195 554.961 531.135 548.298 530.596 541.625 530.346 534.961 530.586 533.043 533.253 533.533 532.923 535.451 533.832 548.587 533.902 561.854 533.982 575L531.395 575 531.395 575ZM506.421 575C506.73 571.154 507.05 567.308 507.36 563.462 507.929 555.111 509.038 546.809 509.657 538.468 509.827 537.469 509.627 536.22 510.377 535.441 510.926 535.001 511.705 534.991 512.205 535.531 512.734 536.07 512.454 536.78 512.364 537.419 512.085 540.186 511.935 542.963 511.625 545.73 510.726 553.892 510.047 562.073 509.398 570.255 509.268 571.833 509.138 573.422 509.018 575L506.421 575 506.421 575ZM480.128 575C481.107 568.497 482.465 562.053 483.694 555.59 484.883 549.017 486.122 542.444 487.4 535.9 487.69 535.261 488.499 535.001 489.128 535.301 490.008 535.731 489.888 536.63 489.728 537.409 489.558 538.418 489.378 539.427 489.178 540.426 487.8 547.199 486.661 554.012 485.332 560.795 484.383 565.48 483.474 570.255 482.755 575L480.128 575 480.128 575ZM455.174 575C455.383 573.921 455.603 572.852 455.823 571.773 458.37 559.776 461.897 548.018 465.073 536.18 465.493 534.941 465.703 532.374 467.601 533.083 469.039 533.853 467.89 535.321 467.681 536.47 464.234 549.267 460.398 561.993 457.811 575L455.174 575Z" fill="#D3518C" fill-rule="evenodd"/><path d="M508.419 518.488C505.272 518.419 502.455 518.339 500.357 518.448 493.214 518.309 486.082 518.009 478.949 517.879 477.311 517.979 475.952 518.049 474.853 518.019 474.853 512.804 474.853 507.58 474.863 502.365 474.953 496.711 475.043 491.057 475.033 485.403 475.033 483.984 475.033 482.576 475.033 481.157 475.083 477.321 475.133 473.485 475.173 469.649 475.203 466.842 475.193 464.035 475.173 461.238 475.173 461.098 475.173 460.948 475.173 460.808 475.203 460.808 475.233 460.818 475.263 460.818 475.313 460.828 475.363 460.838 475.413 460.848 475.313 460.728 475.233 460.598 475.173 460.458 475.173 460.079 475.163 459.699 475.153 459.33 475.243 459.12 475.383 458.93 475.592 458.78 476.991 458.141 478.639 458.201 480.128 457.801 484.743 457.112 488.599 454.185 491.676 450.828 496.93 445.144 498.049 437.342 500.237 430.23 501.875 423.736 508.179 422.388 510.766 429.131 513.383 437.842 513.333 447.042 513.553 456.033 515.571 455.913 517.609 455.983 519.617 455.873 521.355 455.923 523.233 455.743 525.121 455.574 530.166 455.104 535.421 454.634 539.097 458.351 543.532 463.286 541.464 470.848 536.19 474.094 538.767 476.202 541.814 478.41 542.473 481.856 543.113 485.393 540.495 488.36 537.558 489.938 539.307 491.107 540.735 492.725 540.605 493.944 541.135 496.331 540.695 498.969 538.827 500.677 538.298 501.076 537.618 501.796 536.889 502.425 543.292 516.81 528.308 518.578 514.812 518.578 512.604 518.578 510.436 518.528 508.419 518.488Z" fill="#FFCAAB" fill-rule="evenodd"/><path d="M530.616 474.464C530.616 473.565 531.465 473.075 532.284 473.155 533.473 473.065 534.651 473.006 535.84 473.006 536.539 473.006 537.129 473.585 537.129 474.294 537.019 476.132 534.771 475.443 533.533 475.643 532.424 475.773 530.676 476.062 530.616 474.464L530.616 474.464ZM522.604 514.562C521.935 514.173 521.815 513.334 522.194 512.704 522.704 511.676 523.033 510.557 523.273 509.428 523.363 508.529 523.523 507.41 524.672 507.41 525.351 507.41 525.99 507.999 525.96 508.699 525.801 510.577 525.221 512.415 524.372 514.093 524.052 514.722 523.193 514.902 522.604 514.562L522.604 514.562ZM524.582 501.286C523.563 501.146 523.343 500.087 523.543 499.238 523.593 498.459 523.583 497.68 523.543 496.891 523.353 495.842 523.363 494.523 524.742 494.463 526.41 494.533 526.04 496.571 526.16 497.73 526.1 498.979 526.48 501.416 524.582 501.286L524.582 501.286ZM524.682 487.061C522.993 486.751 523.783 484.713 523.573 483.525 523.543 482.785 523.373 482.056 523.273 481.317 523.273 480.618 523.863 480.028 524.562 480.028 525.211 480.028 525.761 480.528 525.841 481.157 526.17 482.735 526.25 484.354 526.13 485.952 526.08 486.661 525.341 487.151 524.682 487.061L524.682 487.061ZM525.281 469.599C524.242 469.459 524.052 468.4 524.232 467.541 524.272 466.822 524.272 466.103 524.242 465.383 524.182 464.824 524.142 464.265 523.952 463.735 523.723 463.066 524.212 462.327 524.852 462.147 526.67 461.787 526.72 464.155 526.82 465.393 526.73 466.762 527.409 469.689 525.281 469.599L525.281 469.599ZM533.283 503.294C532.743 502.975 532.484 502.265 532.743 501.686 533.003 501.066 533.702 500.697 534.362 500.937 535.071 500.927 535.78 500.817 536.479 500.727 538.168 500.537 538.507 503.014 536.829 503.284 535.68 503.354 534.382 503.784 533.283 503.294L533.283 503.294ZM533.762 491.576C533.053 491.476 532.574 490.817 532.653 490.128 532.933 488.38 535.76 489.069 537.059 488.889 538.757 488.929 538.757 491.426 537.059 491.466 535.83 491.456 534.861 491.526 533.762 491.576Z" fill="#EA9A77" fill-rule="evenodd"/><path d="M806.161 464.774C806.43 465.373 806.26 465.913 805.901 466.282 806.021 466.802 805.851 467.361 805.411 467.711 804.282 468.62 803.074 469.429 801.845 470.188 792.964 475.753 782.665 478.11 772.845 481.447 758.13 486.292 743.046 489.898 727.792 492.605 709.79 495.153 691.969 499.688 673.787 500.607 673.258 500.617 672.878 500.387 672.649 500.048 672.339 500.197 671.889 500.217 671.27 500.068 661.67 475.623 658.224 448.641 653.898 422.718 648.594 390.001 644.937 356.916 645.886 323.75 646.026 322.751 645.876 321.582 646.566 320.773 646.815 320.503 647.145 320.363 647.485 320.353 647.874 318.715 653.089 319.055 654.617 318.885 663.818 318.445 673.028 318.016 682.239 317.776 703.117 316.877 723.996 316.907 744.884 316.667 747.281 315.768 752.586 316.557 754.374 316.048 757.081 316.537 770.198 313.8 771.736 315.948 772.615 315.339 773.824 315.918 773.784 318.106 776.611 350.362 781.296 382.569 789.797 413.857 792.894 426.014 796.341 438.072 800.297 449.969 801.935 455.024 804.003 459.929 806.161 464.774Z" fill="#F7E4CF" fill-rule="evenodd"/><path d="M800.486 462.347C800.746 462.946 800.566 463.485 800.197 463.845 800.307 464.364 800.127 464.924 799.677 465.264 798.528 466.153 797.31 466.932 796.071 467.671 787.09 473.065 776.741 475.223 766.861 478.36 752.057 482.915 736.902 486.232 721.598 488.639 703.547 490.837 685.645 495.023 667.454 495.592 666.925 495.592 666.545 495.352 666.325 495.003 666.005 495.143 665.566 495.163 664.947 495.003 655.816 470.378 652.899 443.326 649.073 417.333 644.408 384.527 641.391 351.371 642.979 318.236 643.139 317.237 643.009 316.068 643.719 315.269 643.978 314.999 644.308 314.869 644.648 314.869 645.077 313.241 650.272 313.68 651.81 313.54 661.021 313.281 670.231 313.031 679.442 312.971 700.33 312.482 721.208 312.911 742.097 313.081 744.504 312.232 749.799 313.121 751.597 312.641 754.294 313.181 767.461 310.703 768.959 312.871 769.848 312.282 771.047 312.881 770.967 315.069 773.165 347.375 777.22 379.672 785.122 411.11 787.979 423.317 791.196 435.444 794.922 447.422 796.451 452.517 798.419 457.452 800.486 462.347Z" fill="#FFFFFF" fill-rule="evenodd"/><path d="M663.628 473.225C662.669 473.205 661.69 473.255 660.741 473.105 660.741 473.105 660.741 473.105 660.741 473.105 659.652 472.816 660.002 471.087 661.19 471.357 663.178 471.497 665.176 471.397 667.164 471.337 677.434 470.808 687.683 469.859 697.932 469.239 712.368 468.33 726.573 465.543 740.848 463.316 756.812 460.748 772.895 458.441 788.399 453.755 790.716 453.096 793.054 452.487 795.352 451.747 795.821 451.598 796.341 451.927 796.461 452.387 796.59 452.876 796.291 453.346 795.821 453.496 793.524 454.225 791.186 454.834 788.868 455.494 769.808 461.218 749.969 463.505 730.399 466.832 716.943 469.239 703.367 470.918 689.711 471.587 681.02 472.156 672.349 473.085 663.628 473.225L663.628 473.225ZM653.938 448.031C653.479 447.842 653.259 447.302 653.448 446.853 653.738 446.163 654.617 446.143 655.257 446.083 657.474 445.924 659.702 445.963 661.92 445.934 676.694 445.654 691.479 445.514 706.264 445.154 719.091 444.625 731.867 443.336 744.644 442.137 758.75 440.669 772.875 439.121 786.821 436.573 788.289 436.293 789.708 435.984 791.166 435.694 791.646 435.604 792.125 436.004 792.185 436.463 792.255 436.973 791.895 437.382 791.406 437.482 788.759 438.022 786.131 438.561 783.474 439.031 761.826 442.467 739.989 444.555 718.152 446.263 718.162 446.263 718.172 446.263 718.182 446.263 718.192 446.263 718.212 446.263 718.221 446.263 696.854 447.852 675.256 447.002 653.938 448.031L653.938 448.031ZM651.9 424.076C651.171 424.026 650.202 424.246 649.842 423.447 649.593 422.877 650.052 422.188 650.671 422.198 653.578 422.378 656.515 422.178 659.422 422.208 668.163 422.058 676.884 421.509 685.625 421.429 701.719 421.169 717.752 419.501 733.775 418.182 741.777 417.713 749.729 416.734 757.711 416.004 764.484 415.315 771.287 414.956 778.03 413.917 780.647 413.617 782.955 413.008 785.482 412.498 785.961 412.408 786.431 412.808 786.501 413.267 786.581 413.847 786.111 414.266 785.562 414.316 783.244 414.816 780.937 415.375 778.579 415.665 770.328 416.914 761.986 417.313 753.685 418.202 744.235 419.301 734.744 419.89 725.264 420.68 708.921 422.418 692.508 423.177 676.085 423.467 668.023 423.786 659.962 424.116 651.9 424.076L651.9 424.076ZM663.958 401.49C658.933 401.46 653.888 401.509 648.873 401.12 647.864 400.94 646.366 401.16 645.916 400.101 645.776 399.631 646.086 399.122 646.556 398.992 653.339 399.921 660.222 399.581 667.074 399.691 678.373 399.601 689.671 399.601 700.959 399.232 712.987 398.962 724.974 398.013 736.952 396.814 747.971 395.865 758.959 394.617 769.888 392.918 773.115 392.429 776.341 391.919 779.558 391.33 780.048 391.24 780.507 391.63 780.577 392.099 780.647 392.609 780.287 393.028 779.798 393.118 763.754 395.995 747.541 397.763 731.308 399.152 708.931 401.45 686.424 401.4 663.958 401.49L663.958 401.49ZM663.009 378.144C657.764 378.094 652.519 377.774 647.275 377.664 646.636 377.654 645.996 377.604 645.357 377.604 644.877 377.694 644.408 377.295 644.338 376.825 644.268 376.316 644.628 375.906 645.117 375.806 650.572 375.866 656.036 376.216 661.49 376.316 667.144 376.385 672.789 376.246 678.443 376.256 687.533 376.206 696.634 376.366 705.714 375.876 711.828 375.466 717.922 374.767 724.035 374.378 732.527 373.798 741.028 373.289 749.499 372.42 758.69 371.441 767.81 369.882 776.961 368.554 777.45 368.474 777.91 368.843 777.98 369.323 778.05 369.812 777.69 370.262 777.2 370.342 774.663 370.731 772.126 371.131 769.588 371.491 755.843 373.738 741.987 375.127 728.081 375.916 720.649 376.345 713.227 377.145 705.804 377.684 691.549 378.343 677.274 377.944 663.009 378.144L663.009 378.144ZM649.473 355.517C648.054 355.467 646.646 355.377 645.237 355.177 644.478 355.127 643.389 354.738 643.769 353.759 644.018 353.149 644.708 353.13 645.247 353.349 654.457 354.348 663.748 353.14 672.998 353.549 689.511 353.839 705.944 352.22 722.347 350.542 730.609 349.723 738.93 349.573 747.142 348.454 753.655 347.475 760.178 346.406 766.641 345.188 768.629 344.788 770.657 344.369 772.635 343.979 773.305 343.819 774.254 343.559 774.503 344.458 774.703 345.537 773.644 345.627 772.845 345.767 770.747 346.177 768.649 346.616 766.562 347.036 758.75 348.414 750.938 349.873 743.056 350.762 734.115 351.511 725.144 351.971 716.224 352.93 702.278 354.468 688.282 355.497 674.247 355.357 665.976 355.127 657.724 355.607 649.473 355.517L649.473 355.517ZM661.65 333.829C655.496 333.839 649.283 333.51 643.139 333.53 642.65 333.58 642.19 333.26 642.12 332.761 642.06 332.291 642.41 331.792 642.899 331.742 653.908 331.832 664.917 332.181 675.925 331.961 698.412 331.812 720.879 330.733 743.236 328.235 751.787 327.736 760.308 326.767 768.769 325.408 769.758 325.248 770.747 325.069 771.746 325.009 772.236 324.979 772.655 325.438 772.655 325.908 772.625 327.216 770.567 326.777 769.688 327.096 763.654 328.115 757.571 328.795 751.487 329.444 746.243 329.914 741.018 330.123 735.793 330.763 711.179 333.48 686.384 333.76 661.65 333.829Z" fill="#C9E7EF" fill-rule="evenodd"/><path d="M685.875 492.925C675.775 456.812 667.714 420.05 664.307 382.659 663.418 373.239 662.15 363.838 661.67 354.388 661.19 345.198 661.42 335.997 661.35 326.797 661.31 323.33 661.27 319.864 661.21 316.517 661.19 315.658 660.941 314.31 662.14 314.28 662.629 314.3 663.029 314.729 662.999 315.229 662.989 315.389 662.989 315.558 662.989 315.708 663.069 319.374 663.109 323.051 663.148 326.727 663.148 340.992 662.949 355.227 664.747 369.383 666.845 391.43 669.452 413.417 673.718 435.165 677.464 453.945 682.259 472.666 687.214 491.137 687.413 491.956 688.053 493.005 687.024 493.474 686.594 493.624 686.025 493.394 685.875 492.925Z" fill="#EFB8C0" fill-rule="evenodd"/><path d="M680.97 374.318C679.132 372.11 681.15 368.624 681.859 366.256 682.628 364.498 683.028 362.47 684.347 361.021 685.146 360.152 686.484 361.271 685.725 362.19 684.496 363.649 684.117 365.647 683.368 367.375 682.818 369.143 681.809 370.981 682.119 372.859 682.139 372.899 682.169 372.939 682.199 372.979 682.209 372.989 682.219 372.999 682.159 372.979 683.997 373.279 686.734 369.582 687.913 368.284 688.123 366.006 689.321 362.75 691.519 361.741 693.008 361.291 693.627 362.959 693.048 364.108 692.258 365.876 690.93 367.355 689.751 368.883 690.99 373.109 699.351 365.037 700.879 363.549 701.569 362.889 702.218 362.19 702.907 361.531 703.227 361.231 703.617 361.001 704.066 361.081 705.105 361.321 704.915 362.58 704.685 363.349 704.276 365.587 703.457 367.934 703.896 370.222 707.143 368.234 709.261 364.847 712.208 362.47 713.087 361.721 714.006 360.882 715.185 360.712 718.032 360.122 719.68 363.329 719.75 365.746 721.288 364.018 724.355 359.423 726.992 361.261 728.681 362.67 727.891 365.127 728.061 367.045 729.66 365.946 730.898 364.658 732.427 363.529 733.096 362.959 734.385 362.72 734.754 363.739 735.214 365.547 733.735 369.363 737.142 367.275 738.71 366.246 740.099 364.967 741.448 363.669 741.967 363.119 742.426 362.51 743.016 362.04 743.515 361.671 744.295 361.97 744.414 362.58 744.524 364.128 743.555 365.657 743.905 367.235 743.975 367.724 743.555 368.174 743.086 368.214 741.757 368.224 742.007 366.446 742.097 365.547 740.269 367.115 738.481 369.083 736.053 369.632 733.506 370.052 732.637 367.365 733.046 365.307 730.379 367.355 725.804 372.669 726.263 365.617 726.223 364.747 726.343 363.848 726.153 362.999 726.043 362.859 725.943 362.68 725.774 362.59 724.815 362.74 724.065 363.599 723.446 364.218 721.918 365.766 720.579 367.495 719.44 369.343 719.111 370.861 718.781 372.739 717.312 373.578 717.083 373.668 716.833 373.638 716.613 373.548 714.915 372.659 717.253 369.862 717.742 368.693 718.122 366.676 718.221 364.258 716.663 362.7 714.995 361.651 713.357 363.978 712.178 364.917 709.78 367.125 707.822 369.832 705.075 371.63 700.64 373.708 702.088 366.616 702.598 364.368 699.791 366.945 691.969 375.167 688.452 370.412 686.824 372.21 683.587 376.316 680.97 374.318L680.97 374.318ZM687.493 420.799C684.317 419.781 690.7 411.249 691.669 409.471 692.538 408.392 693.447 405.885 695.125 406.195 696.434 406.684 695.735 408.372 695.625 409.401 695.235 412.049 694.246 414.956 694.636 417.523 695.535 418.342 696.824 417.713 697.603 417.013 700.829 414.416 703.527 411.259 705.974 407.933 707.013 407.034 707.393 403.108 709.201 403.987 710.14 404.566 709.381 405.845 709.021 406.504 707.882 407.963 705.175 416.754 707.023 417.823 707.033 417.823 707.053 417.823 707.063 417.823 707.093 417.823 707.113 417.833 707.143 417.833 707.103 417.833 707.063 417.823 707.023 417.823 711.229 416.784 714.845 411.07 717.332 407.743 717.862 406.994 718.271 406.165 718.781 405.405 718.951 405.176 719.171 405.026 719.46 404.996 720.08 404.926 720.589 405.575 720.449 406.165 720.289 407.283 718.052 413.557 719.76 413.567 719.74 413.567 719.72 413.577 719.7 413.577 719.69 413.577 719.69 413.577 719.64 413.587 720.959 413.347 721.848 412.208 722.777 411.339 724.445 409.521 726.013 407.613 727.672 405.785 728.341 405.096 729.33 403.967 730.379 404.556 730.818 404.796 730.998 405.306 730.998 405.785 731.158 407.503 729.13 412.768 730.559 413.647 730.559 413.647 730.529 413.607 730.529 413.607 731.208 413.667 731.797 413.087 732.337 412.728 733.226 411.999 734.065 411.189 734.894 410.38 736.343 408.982 737.761 407.553 739.18 406.125 740.289 405.176 742.566 402.109 744.095 403.477 744.764 404.297 744.554 405.465 744.474 406.434 744.315 408.292 743.925 409.911 743.965 411.709 745.903 410.43 747.341 408.522 749.02 406.934 750.079 406.035 751.187 404.446 752.756 404.866 755.183 406.015 754.424 409.072 754.694 411.229 756.162 411.04 757.361 409.731 758.48 408.912 761.687 406.464 764.743 403.298 768.909 402.688 769.399 402.628 769.848 403.028 769.888 403.507 769.938 404.097 769.429 404.506 768.879 404.516 767.75 404.756 766.671 405.166 765.692 405.735 763.205 407.293 760.997 409.271 758.68 411.07 757.291 412.158 754.924 414.017 753.295 412.448 752.586 411.439 752.896 410.071 752.816 408.912 752.796 408.103 752.836 407.194 752.186 406.604 749.909 407.813 745.713 414.336 743.375 413.417 741.697 412.848 742.177 410.81 742.297 409.451 742.436 408.013 742.696 406.674 742.756 405.266 740.469 407.164 738.531 409.441 736.363 411.469 734.954 412.768 733.646 414.286 731.897 415.125 730.359 415.955 728.631 414.966 728.301 413.307 728.001 411.169 728.791 409.042 729.05 406.934 726.593 409.281 723.136 414.976 719.78 415.355 717.253 415.445 717.013 412.398 717.532 410.55 715.015 413.827 712.477 417.403 708.631 419.211 706.783 420.14 705.185 419.321 704.695 417.343 704.326 415.545 704.815 413.687 705.145 411.909 703.567 413.917 701.749 415.735 699.86 417.443 698.522 418.602 696.953 420.05 695.035 419.601 690.86 419.091 693.447 412.248 693.737 409.551 691.829 412.728 689.351 415.755 688.392 419.381 688.862 420.06 688.253 420.939 687.493 420.799L687.493 420.799ZM691.08 397.703C690.73 396.764 691.03 395.556 691.209 394.637 691.509 393.208 692.109 391.909 692.888 390.681 693.457 389.981 693.767 389.252 693.767 388.333 693.877 387.164 693.927 385.926 693.537 384.807 692.948 383.248 687.433 389.692 686.724 390.411 685.415 391.879 684.127 393.408 683.258 395.196 683.238 395.246 683.218 395.296 683.208 395.346 683.417 396.005 682.708 396.704 682.049 396.455 680.081 395.446 683.038 392.189 683.797 391.05 685.965 388.463 688.243 385.926 690.86 383.768 694.466 380.941 695.945 384.297 695.635 387.674 697.713 385.996 701.369 383.688 703.786 385.916 705.774 388.143 705.774 391.39 706.673 394.117 706.913 394.167 707.113 393.987 707.293 393.857 708.332 393.008 709.291 392.049 710.22 391.1 710.919 390.381 711.738 389.482 712.318 388.723 712.987 388.003 713.476 386.165 714.695 387.194 715.035 387.554 714.975 388.083 714.695 388.463 714.246 389.422 713.946 390.441 713.666 391.46 712.787 394.906 715.215 394.547 717.223 392.868 719.46 390.88 721.478 388.773 723.366 386.475 723.946 385.836 724.175 384.837 724.925 384.387 725.654 384.097 726.413 384.927 726.053 385.626 725.284 387.674 723.906 390.001 724.605 392.209 727.432 391.4 729.4 388.823 731.518 386.915 732.247 386.305 732.697 385.136 733.706 384.977 734.295 384.937 734.784 385.456 734.674 386.045 734.325 387.524 733.745 388.942 733.386 390.421 733.166 391.24 733.016 392.169 733.396 392.958 733.386 392.948 733.386 392.938 733.376 392.928 733.366 392.908 733.356 392.888 733.346 392.868 733.396 392.968 733.456 393.068 733.546 393.138 735.094 392.759 736.193 391.46 737.302 390.411 738.541 389.142 739.719 387.884 740.898 386.575 741.607 385.736 742.966 384.247 744.005 385.446 744.494 386.285 744.275 387.344 744.464 388.273 744.524 388.763 744.125 389.212 743.645 389.252 742.616 389.322 742.606 388.163 742.556 387.424 741.288 388.853 739.939 390.301 738.62 391.64 737.591 392.709 736.493 393.757 735.174 394.457 731.348 396.465 730.779 391.73 731.857 389.112 729.829 390.95 727.891 393.158 725.184 393.937 722.837 394.577 722.317 391.71 722.677 390.001 720.519 392.099 718.611 394.786 715.654 395.765 713.297 396.555 711.209 394.487 711.718 392.129 710.15 393.468 707.552 397.394 705.335 395.346 704.825 394.756 704.735 393.927 704.566 393.198 704.276 391.829 703.906 390.491 703.527 389.142 703.217 388.103 702.648 386.725 701.359 386.795 698.961 387.154 696.904 388.763 695.295 390.481 694.806 392.389 694.586 397.763 692.618 398.413 692.019 398.642 691.309 398.313 691.08 397.703Z" fill="#6A5C5E" fill-rule="evenodd"/><path d="M721.318 474.234C721.728 469.02 722.737 463.865 724.016 458.76 723.176 458.98 722.327 459.2 721.488 459.42 718.801 459.649 713.656 463.046 712.647 459 712.487 455.673 718.941 456.103 721.268 454.944 722.617 454.555 723.976 454.185 725.344 453.835 726.103 451.168 726.903 448.521 727.712 445.904 740.798 408.702 743.795 426.574 744.614 449.949 747.212 449.51 749.809 449.08 752.416 448.631 753.585 448.401 754.774 449.09 755.043 450.289 755.303 451.428 754.554 452.687 753.385 452.916 750.508 453.466 747.631 453.945 744.754 454.395 744.764 454.625 744.764 454.854 744.774 455.074 744.894 460.209 744.844 465.353 744.704 470.498 744.674 471.697 743.585 472.646 742.406 472.586 741.198 472.526 740.289 471.487 740.319 470.298 740.438 465.673 740.508 461.048 740.429 456.672 740.419 456.143 740.409 455.613 740.389 455.094 736.523 455.753 732.697 456.612 728.891 457.551 728.251 460.049 727.682 462.576 727.172 465.104 726.613 467.741 726.083 470.378 725.754 473.045 725.824 474.464 725.414 476.102 723.726 476.242 722.527 476.322 721.408 475.423 721.318 474.234L721.318 474.234ZM767.251 457.731C766.062 457.681 765.103 456.632 765.163 455.444 765.273 453.196 765.393 450.958 765.513 448.711 764.024 448.94 762.536 449.1 761.037 449.12 759.159 448.831 758.6 446.173 760.188 445.154 761.307 444.495 762.676 444.845 763.904 444.485 764.414 444.505 765.083 444.405 765.842 444.245 766.152 441.158 765.133 435.145 768.659 435.005 770.068 435.035 771.097 436.543 770.647 437.862 770.448 439.66 770.328 441.458 770.218 443.266 772.765 442.787 775.113 442.717 775.552 444.595 775.802 445.724 775.073 447.002 773.894 447.212 772.555 447.402 771.217 447.652 769.868 447.911 769.718 451.468 770.527 457.911 767.251 457.731L767.251 457.731ZM740.239 450.709C740.009 444.265 739.579 437.822 738.62 431.448 735.134 438.251 732.357 445.374 730.209 452.687 733.526 451.947 736.872 451.308 740.239 450.709Z" fill="#FF5D22" fill-rule="evenodd"/><path d="M717.532 295.209C729.859 295.419 728.331 333.869 716.383 333.2 715.344 333.25 713.796 332.131 712.577 330.713 710.799 333.919 708.182 335.658 704.695 334.709 703.796 334.529 702.318 333.2 701.099 331.582 699.651 335.078 697.293 337.266 693.817 337.006 689.991 336.237 687.393 333.15 685.855 329.624 684.327 334.339 681.44 337.336 676.854 336.377 668.643 331.512 667.964 320.663 667.684 312.082 667.014 312.072 666.385 312.302 665.736 312.402 665.057 313.251 663.628 313.161 663.198 312.122 662.859 310.683 663.838 309.205 664.147 307.806 665.976 301.383 672.469 293.401 679.811 296.948 680.271 297.197 680.71 297.527 681.13 297.937 684.157 294.081 691.279 293.721 695.255 296.458 695.995 296.838 696.704 297.457 697.363 298.286 697.912 297.677 698.512 297.157 698.931 296.858 704.006 293.211 707.952 294.42 710.709 298.096 712.168 296.069 715.145 295.03 717.532 295.209Z" fill="#FFCAAB" fill-rule="evenodd"/><path d="M686.534 329.694C685.465 329.554 685.326 328.445 685.485 327.566 685.775 321.302 685.256 314.979 684.097 308.815 683.537 306.328 682.748 303.89 681.749 301.553 681.44 300.654 680.72 299.835 680.78 298.856 680.88 298.156 681.539 297.657 682.239 297.747 683.427 297.947 683.467 299.425 684.017 300.274 685.975 304.63 687.024 309.325 687.523 314.06 688.043 318.875 688.372 323.75 687.993 328.585 687.933 329.294 687.204 329.794 686.534 329.694Z" fill="#EA9A77" fill-rule="evenodd"/><path d="M699.551 329.744C699.92 324.619 699.791 319.484 699.581 314.36 699.321 309.565 698.722 304.73 697.063 300.194 696.164 298.306 699.061 297.387 699.531 299.435 701.539 304.939 702.038 310.823 702.248 316.637 702.328 319.185 702.378 321.742 702.358 324.299 702.348 326.117 702.238 327.936 702.128 329.754 702.108 330.103 701.998 330.413 701.749 330.663 701.009 331.462 699.491 330.863 699.551 329.744Z" fill="#EA9A77" fill-rule="evenodd"/><path d="M712.807 328.905C712.108 328.815 711.608 328.145 711.698 327.456 712.018 325.138 712.258 322.821 712.417 320.493 712.557 318.206 712.647 315.908 712.497 313.61 712.238 309.924 711.578 306.258 710.42 302.752 710.22 301.683 709.021 300.554 709.78 299.505 711.878 297.577 712.627 301.413 713.157 302.802 714.365 306.767 715.025 310.893 715.145 315.029 715.235 319.294 714.805 323.57 714.256 327.796 714.166 328.505 713.496 329.004 712.807 328.905Z" fill="#EA9A77" fill-rule="evenodd"/></g></svg>